<?xml version="1.0" encoding="UTF-8"?>
<svg xmlns="http://www.w3.org/2000/svg" xmlns:xlink="http://www.w3.org/1999/xlink" width="229pt" height="229pt" viewBox="0 0 229 229" version="1.1">
<g id="surface1">
<path style="fill:none;stroke-width:0.3985;stroke-linecap:butt;stroke-linejoin:miter;stroke:rgb(0%,0%,0%);stroke-opacity:1;stroke-miterlimit:10;" d="M -112.987031 0.00140625 L 112.989531 0.00140625 " transform="matrix(1,0,0,-1,114.28,114.185)"/>
<path style="fill:none;stroke-width:0.3985;stroke-linecap:round;stroke-linejoin:round;stroke:rgb(0%,0%,0%);stroke-opacity:1;stroke-miterlimit:10;" d="M -2.072032 2.389219 C -1.693126 0.955625 -0.849376 0.279844 -0.00172 -0.00140625 C -0.849376 -0.27875 -1.693126 -0.954531 -2.072032 -2.392031 " transform="matrix(-1,0,0,1,1.09203,114.185)"/>
<path style="fill:none;stroke-width:0.3985;stroke-linecap:round;stroke-linejoin:round;stroke:rgb(0%,0%,0%);stroke-opacity:1;stroke-miterlimit:10;" d="M -2.073439 2.392031 C -1.694532 0.954531 -0.850782 0.27875 0.00078 0.00140625 C -0.850782 -0.279844 -1.694532 -0.955625 -2.073439 -2.389219 " transform="matrix(1,0,0,-1,227.46797,114.185)"/>
<path style="fill:none;stroke-width:0.3985;stroke-linecap:butt;stroke-linejoin:miter;stroke:rgb(0%,0%,0%);stroke-opacity:1;stroke-miterlimit:10;" d="M 0.00125 -112.986875 L 0.00125 112.989687 " transform="matrix(1,0,0,-1,114.28,114.185)"/>
<path style="fill:none;stroke-width:0.3985;stroke-linecap:round;stroke-linejoin:round;stroke:rgb(0%,0%,0%);stroke-opacity:1;stroke-miterlimit:10;" d="M -2.072189 2.391875 C -1.693282 0.958281 -0.849532 0.278594 -0.00187625 0.00125 C -0.849532 -0.28 -1.693282 -0.955781 -2.072189 -2.389375 " transform="matrix(0,1,1,0,114.28,227.37297)"/>
<path style="fill:none;stroke-width:0.3985;stroke-linecap:round;stroke-linejoin:round;stroke:rgb(0%,0%,0%);stroke-opacity:1;stroke-miterlimit:10;" d="M -2.073283 2.389375 C -1.694376 0.955781 -0.850626 0.28 0.00093625 -0.00125 C -0.850626 -0.278594 -1.694376 -0.958281 -2.073283 -2.391875 " transform="matrix(0,-1,-1,0,114.28,0.99703)"/>
</g>
</svg>
