<?xml version="1.0" encoding="UTF-8"?>
<svg xmlns="http://www.w3.org/2000/svg" xmlns:xlink="http://www.w3.org/1999/xlink" width="291pt" height="243pt" viewBox="0 0 291 243" version="1.1">
<g id="surface1">
<path style="fill:none;stroke-width:0.3985;stroke-linecap:butt;stroke-linejoin:miter;stroke:rgb(0%,0%,0%);stroke-opacity:1;stroke-miterlimit:10;" d="M -0.000637533 -0.000135946 L -117.490063 -67.834038 " transform="matrix(1.00009,0,0,-1.00003,119.637356,171.882677)"/>
<path style="fill:none;stroke-width:0.3985;stroke-linecap:round;stroke-linejoin:round;stroke:rgb(0%,0%,0%);stroke-opacity:1;stroke-miterlimit:10;" d="M -2.072349 2.390284 C -1.691162 0.956888 -0.851666 0.278264 -0.00214577 -0.000202551 C -0.84834 -0.278447 -1.695841 -0.957371 -2.072398 -2.390811 " transform="matrix(-0.866088,0.499995,0.500025,0.866036,1.963087,239.817655)"/>
<path style="fill:none;stroke-width:0.3985;stroke-linecap:butt;stroke-linejoin:miter;stroke:rgb(0%,0%,0%);stroke-opacity:1;stroke-miterlimit:10;" d="M -0.000637533 -0.000135946 L 169.68331 -0.000135946 " transform="matrix(1.00009,0,0,-1.00003,119.637356,171.882677)"/>
<path style="fill:none;stroke-width:0.3985;stroke-linecap:round;stroke-linejoin:round;stroke:rgb(0%,0%,0%);stroke-opacity:1;stroke-miterlimit:10;" d="M -2.073112 2.390417 C -1.694239 0.956867 -0.850565 0.277199 0.000920484 -0.000135946 C -0.850565 -0.277471 -1.694239 -0.957138 -2.073112 -2.390689 " transform="matrix(1.00009,0,0,-1.00003,289.534236,171.882677)"/>
<path style="fill:none;stroke-width:0.3985;stroke-linecap:butt;stroke-linejoin:miter;stroke:rgb(0%,0%,0%);stroke-opacity:1;stroke-miterlimit:10;" d="M -0.000637533 -0.000135946 L -0.000637533 169.682274 " transform="matrix(1.00009,0,0,-1.00003,119.637356,171.882677)"/>
<path style="fill:none;stroke-width:0.3985;stroke-linecap:round;stroke-linejoin:round;stroke:rgb(0%,0%,0%);stroke-opacity:1;stroke-miterlimit:10;" d="M -2.070354 2.391047 C -1.695365 0.957583 -0.851641 0.277956 -0.000103645 0.000637533 C -0.851641 -0.280587 -1.695365 -0.956308 -2.070354 -2.389772 " transform="matrix(0,-1.00003,-1.00009,0,119.637356,1.99599)"/>
</g>
</svg>
