<?xml version="1.0" encoding="UTF-8"?>
<svg xmlns="http://www.w3.org/2000/svg" xmlns:xlink="http://www.w3.org/1999/xlink" width="326pt" height="128pt" viewBox="0 0 326 128" version="1.1">
<g id="surface1">
<path style="fill:none;stroke-width:0.3985;stroke-linecap:butt;stroke-linejoin:miter;stroke:rgb(0%,0%,0%);stroke-opacity:1;stroke-miterlimit:10;" d="M -0.00163621 -0.00084375 L 84.64003 -0.00084375 " transform="matrix(1.00008,0,0,-1,98.056324,86.839)"/>
<path style="fill:none;stroke-width:0.3985;stroke-linecap:round;stroke-linejoin:round;stroke:rgb(0%,0%,0%);stroke-opacity:1;stroke-miterlimit:10;" d="M -2.072084 2.389781 C -1.693208 0.956187 -0.849526 0.280406 -0.00193723 -0.00084375 C -0.849526 -0.278188 -1.693208 -0.957875 -2.072084 -2.391469 " transform="matrix(1.00008,0,0,-1,182.904281,86.839)"/>
<path style="fill:none;stroke-width:0.3985;stroke-linecap:butt;stroke-linejoin:miter;stroke:rgb(0%,0%,0%);stroke-opacity:1;stroke-miterlimit:10;" d="M -0.00163621 -0.00084375 L -0.00163621 84.643687 " transform="matrix(1.00008,0,0,-1,98.056324,86.839)"/>
<path style="fill:none;stroke-width:0.3985;stroke-linecap:round;stroke-linejoin:round;stroke:rgb(0%,0%,0%);stroke-opacity:1;stroke-miterlimit:10;" d="M -2.072483 2.39207 C -1.693576 0.954685 -0.849826 0.278958 0.00173625 0.00163621 C -0.849826 -0.279591 -1.693576 -0.955318 -2.072483 -2.392703 " transform="matrix(0,-1,-1.00008,0,98.056324,1.99783)"/>
<path style="fill:none;stroke-width:0.3985;stroke-linecap:butt;stroke-linejoin:miter;stroke:rgb(0%,0%,0%);stroke-opacity:1;stroke-miterlimit:10;" d="M -0.00163621 -0.00084375 L -32.459977 -32.457875 " transform="matrix(1.00008,0,0,-1,98.056324,86.839)"/>
<path style="fill:none;stroke-width:0.3985;stroke-linecap:round;stroke-linejoin:round;stroke:rgb(0%,0%,0%);stroke-opacity:1;stroke-miterlimit:10;" d="M -2.070955 2.390376 C -1.692611 0.956886 -0.850212 0.280217 0.000488469 -0.00147843 C -0.850235 -0.277718 -1.69545 -0.957216 -2.073908 -2.390736 " transform="matrix(-0.707157,0.7071,0.707157,0.7071,65.454516,119.4382)"/>
<path style="fill-rule:nonzero;fill:rgb(94.999695%,79.998779%,84.999084%);fill-opacity:0.5;stroke-width:0.3985;stroke-linecap:butt;stroke-linejoin:miter;stroke:rgb(0%,0%,0%);stroke-opacity:1;stroke-miterlimit:10;" d="M -39.260214 -39.258656 L 95.955531 -17.434438 L 39.260848 39.260875 L -95.954897 17.43275 L -39.260214 -39.258656 " transform="matrix(1.00008,0,0,-1,98.056324,86.839)"/>
<path style="fill:none;stroke-width:0.79701;stroke-linecap:butt;stroke-linejoin:miter;stroke:rgb(0%,0%,100%);stroke-opacity:1;stroke-miterlimit:10;" d="M -0.00163621 -0.00084375 L 13.610556 -13.610219 " transform="matrix(1.00008,0,0,-1,98.056324,86.839)"/>
<path style="fill:none;stroke-width:0.79701;stroke-linecap:round;stroke-linejoin:round;stroke:rgb(0%,0%,100%);stroke-opacity:1;stroke-miterlimit:10;" d="M -2.552209 3.110395 C -2.085348 1.245991 -1.046781 0.362093 0.0000511366 0.000222612 C -1.046752 -0.361564 -2.085248 -1.245379 -2.55196 -3.109746 " transform="matrix(0.707157,0.7071,0.707157,-0.7071,111.949025,100.73059)"/>
<path style="fill:none;stroke-width:0.79701;stroke-linecap:butt;stroke-linejoin:miter;stroke:rgb(100%,0%,0%);stroke-opacity:1;stroke-miterlimit:10;" d="M -0.00163621 -0.00084375 L -33.018526 -5.328969 " transform="matrix(1.00008,0,0,-1,98.056324,86.839)"/>
<path style="fill:none;stroke-width:0.79701;stroke-linecap:round;stroke-linejoin:round;stroke:rgb(100%,0%,0%);stroke-opacity:1;stroke-miterlimit:10;" d="M -2.549234 3.112317 C -2.083094 1.244571 -1.046605 0.361069 -0.00122219 -0.00154634 C -1.044825 -0.363345 -2.085131 -1.24404 -2.548853 -3.112072 " transform="matrix(-0.987259,0.15933,0.159343,0.98718,64.643571,92.23219)"/>
<path style="fill:none;stroke-width:0.3985;stroke-linecap:butt;stroke-linejoin:miter;stroke:rgb(0%,0%,0%);stroke-opacity:1;stroke-miterlimit:10;" d="M 113.38773 28.346812 L 226.773191 28.346812 " transform="matrix(1.00008,0,0,-1,98.056324,86.839)"/>
<path style="fill:none;stroke-width:0.3985;stroke-linecap:butt;stroke-linejoin:miter;stroke:rgb(0%,0%,0%);stroke-opacity:1;stroke-miterlimit:10;" d="M 170.082413 -28.3485 L 170.082413 85.042125 " transform="matrix(1.00008,0,0,-1,98.056324,86.839)"/>
<path style="fill-rule:nonzero;fill:rgb(94.999695%,79.998779%,84.999084%);fill-opacity:0.5;stroke-width:0.3985;stroke-linecap:butt;stroke-linejoin:miter;stroke:rgb(0%,0%,0%);stroke-opacity:1;stroke-miterlimit:10;" d="M 116.223441 -25.512563 L 116.223441 82.206187 L 223.941386 82.206187 L 223.941386 -25.512563 L 116.223441 -25.512563 " transform="matrix(1.00008,0,0,-1,98.056324,86.839)"/>
<path style="fill:none;stroke-width:1.19553;stroke-linecap:butt;stroke-linejoin:miter;stroke:rgb(0%,0%,100%);stroke-opacity:1;stroke-miterlimit:10;" d="M 170.082413 28.346812 L 183.057938 28.346812 " transform="matrix(1.00008,0,0,-1,98.056324,86.839)"/>
<path style="fill:none;stroke-width:1.19553;stroke-linecap:round;stroke-linejoin:round;stroke:rgb(0%,0%,100%);stroke-opacity:1;stroke-miterlimit:10;" d="M -3.028055 3.832044 C -2.473412 1.531262 -1.243042 0.445325 -0.000953784 0.0000125 C -1.243042 -0.4453 -2.473412 -1.531238 -3.028055 -3.832019 " transform="matrix(1.00008,0,0,-1,281.727516,58.4922)"/>
<path style="fill:none;stroke-width:1.19553;stroke-linecap:butt;stroke-linejoin:miter;stroke:rgb(100%,0%,0%);stroke-opacity:1;stroke-miterlimit:10;" d="M 170.082413 28.346812 L 170.082413 41.323375 " transform="matrix(1.00008,0,0,-1,98.056324,86.839)"/>
<path style="fill:none;stroke-width:1.19553;stroke-linecap:round;stroke-linejoin:round;stroke:rgb(100%,0%,0%);stroke-opacity:1;stroke-miterlimit:10;" d="M -3.028753 3.830171 C -2.474065 1.53348 -1.243596 0.447629 -0.00140875 -0.00155332 C -1.243596 -0.44683 -2.474065 -1.532681 -3.028753 -3.829372 " transform="matrix(0,-1,-1.00008,0,268.15079,44.91656)"/>
</g>
</svg>
