<?xml version="1.0" encoding="UTF-8"?>
<svg xmlns="http://www.w3.org/2000/svg" xmlns:xlink="http://www.w3.org/1999/xlink" width="291pt" height="243pt" viewBox="0 0 291 243" version="1.1">
<g id="surface1">
<path style="fill:none;stroke-width:0.3985;stroke-linecap:butt;stroke-linejoin:miter;stroke:rgb(0%,0%,0%);stroke-opacity:1;stroke-miterlimit:10;" d="M -0.000555827 -0.000135946 L -117.4896 -67.834038 " transform="matrix(1.00006,0,0,-1.00003,118.938056,171.882677)"/>
<path style="fill:none;stroke-width:0.3985;stroke-linecap:round;stroke-linejoin:round;stroke:rgb(0%,0%,0%);stroke-opacity:1;stroke-miterlimit:10;" d="M -2.072823 2.390558 C -1.69161 0.957146 -0.852086 0.278506 0.000840308 -0.00192652 C -0.848753 -0.278209 -1.696264 -0.957127 -2.07281 -2.390573 " transform="matrix(-0.866062,0.499995,0.50001,0.866036,1.267316,239.817655)"/>
<path style="fill:none;stroke-width:0.3985;stroke-linecap:butt;stroke-linejoin:miter;stroke:rgb(0%,0%,0%);stroke-opacity:1;stroke-miterlimit:10;" d="M -0.000555827 -0.000135946 L 169.68067 -0.000135946 " transform="matrix(1.00006,0,0,-1.00003,118.938056,171.882677)"/>
<path style="fill:none;stroke-width:0.3985;stroke-linecap:round;stroke-linejoin:round;stroke:rgb(0%,0%,0%);stroke-opacity:1;stroke-miterlimit:10;" d="M -2.071902 2.390417 C -1.693018 0.956867 -0.849319 0.277199 -0.00171365 -0.000135946 C -0.849319 -0.277471 -1.693018 -0.957138 -2.071902 -2.390689 " transform="matrix(1.00006,0,0,-1.00003,288.829839,171.882677)"/>
<path style="fill:none;stroke-width:0.3985;stroke-linecap:butt;stroke-linejoin:miter;stroke:rgb(0%,0%,0%);stroke-opacity:1;stroke-miterlimit:10;" d="M -0.000555827 -0.000135946 L -0.000555827 169.682274 " transform="matrix(1.00006,0,0,-1.00003,118.938056,171.882677)"/>
<path style="fill:none;stroke-width:0.3985;stroke-linecap:round;stroke-linejoin:round;stroke:rgb(0%,0%,0%);stroke-opacity:1;stroke-miterlimit:10;" d="M -2.070354 2.391037 C -1.695365 0.95753 -0.851641 0.277883 -0.000103645 0.000555827 C -0.851641 -0.280677 -1.695365 -0.956418 -2.070354 -2.389926 " transform="matrix(0,-1.00003,-1.00006,0,118.938056,1.99599)"/>
</g>
</svg>
