<?xml version="1.0" encoding="UTF-8"?>
<svg xmlns="http://www.w3.org/2000/svg" xmlns:xlink="http://www.w3.org/1999/xlink" width="353pt" height="298pt" viewBox="0 0 353 298" version="1.1">
<g id="surface1">
<path style="fill:none;stroke-width:0.3985;stroke-linecap:butt;stroke-linejoin:miter;stroke:rgb(0%,0%,0%);stroke-opacity:1;stroke-miterlimit:10;" d="M -0.0000686966 -0.000499755 L -117.490288 -67.834238 " transform="matrix(1.00005,0,0,-1.00009,176.632881,171.894031)"/>
<path style="fill:none;stroke-width:0.3985;stroke-linecap:round;stroke-linejoin:round;stroke:rgb(0%,0%,0%);stroke-opacity:1;stroke-miterlimit:10;" d="M -2.072186 2.390343 C -1.694315 0.958933 -0.851394 0.278344 -0.00184833 -0.000150044 C -0.848044 -0.278348 -1.695528 -0.957211 -2.072028 -2.390585 " transform="matrix(-0.866053,0.500025,0.500005,0.866088,58.963318,239.833085)"/>
<path style="fill:none;stroke-width:0.3985;stroke-linecap:butt;stroke-linejoin:miter;stroke:rgb(0%,0%,0%);stroke-opacity:1;stroke-miterlimit:10;" d="M -0.0000686966 -0.000499755 L 169.682853 -0.000499755 " transform="matrix(1.00005,0,0,-1.00009,176.632881,171.894031)"/>
<path style="fill:none;stroke-width:0.3985;stroke-linecap:round;stroke-linejoin:round;stroke:rgb(0%,0%,0%);stroke-opacity:1;stroke-miterlimit:10;" d="M -2.073643 2.38991 C -1.694756 0.956445 -0.851048 0.280725 0.000472197 -0.000499755 C -0.851048 -0.277819 -1.694756 -0.957445 -2.073643 -2.39091 " transform="matrix(1.00005,0,0,-1.00009,346.522965,171.894031)"/>
<path style="fill:none;stroke-width:0.3985;stroke-linecap:butt;stroke-linejoin:miter;stroke:rgb(0%,0%,0%);stroke-opacity:1;stroke-miterlimit:10;" d="M -0.0000686966 -0.000499755 L -0.0000686966 169.683447 " transform="matrix(1.00005,0,0,-1.00009,176.632881,171.894031)"/>
<path style="fill:none;stroke-width:0.3985;stroke-linecap:round;stroke-linejoin:round;stroke:rgb(0%,0%,0%);stroke-opacity:1;stroke-miterlimit:10;" d="M -2.072974 2.390574 C -1.694102 0.957052 -0.850428 0.277399 0.00105826 0.0000686966 C -0.850428 -0.277261 -1.694102 -0.956915 -2.072974 -2.390437 " transform="matrix(0,-1.00009,-1.00005,0,176.632881,1.997152)"/>
<path style="fill-rule:nonzero;fill:rgb(94.999695%,79.998779%,84.999084%);fill-opacity:0.5;stroke-width:0.3985;stroke-linecap:butt;stroke-linejoin:miter;stroke:rgb(0%,0%,0%);stroke-opacity:1;stroke-miterlimit:10;" d="M -17.413261 79.371263 L -174.530405 -124.727556 L 17.413123 -79.372263 L 174.530267 124.726556 L -17.413261 79.371263 " transform="matrix(1.00005,0,0,-1.00009,176.632881,171.894031)"/>
<path style="fill:none;stroke-width:0.79701;stroke-linecap:butt;stroke-linejoin:miter;stroke:rgb(0%,0%,100%);stroke-opacity:1;stroke-miterlimit:10;" d="M -0.0000686966 -0.000499755 L -47.208646 -11.155746 " transform="matrix(1.00005,0,0,-1.00009,176.632881,171.894031)"/>
<path style="fill:none;stroke-width:0.79701;stroke-linecap:round;stroke-linejoin:round;stroke:rgb(0%,0%,100%);stroke-opacity:1;stroke-miterlimit:10;" d="M -2.551662 3.109873 C -2.085006 1.245623 -1.045512 0.361836 0.000501574 -0.0017098 C -1.044616 -0.364857 -2.08305 -1.243337 -2.552475 -3.11118 " transform="matrix(-0.973189,0.229951,0.229941,0.973228,129.032131,183.142174)"/>
<path style="fill:none;stroke-width:0.79701;stroke-linecap:butt;stroke-linejoin:miter;stroke:rgb(100%,0%,0%);stroke-opacity:1;stroke-miterlimit:10;" d="M -0.0000686966 -0.000499755 L 38.790961 50.393402 " transform="matrix(1.00005,0,0,-1.00009,176.632881,171.894031)"/>
<path style="fill:none;stroke-width:0.79701;stroke-linecap:round;stroke-linejoin:round;stroke:rgb(100%,0%,0%);stroke-opacity:1;stroke-miterlimit:10;" d="M -2.551483 3.111649 C -2.084241 1.24315 -1.045765 0.361559 0.00180987 -0.000350871 C -1.045264 -0.362704 -2.085002 -1.246876 -2.55303 -3.110677 " transform="matrix(0.60998,-0.792441,-0.79241,-0.610005,215.670493,121.180908)"/>
<path style="fill:none;stroke-width:0.79701;stroke-linecap:butt;stroke-linejoin:miter;stroke:rgb(75%,0%,25%);stroke-opacity:1;stroke-miterlimit:10;" d="M -0.0000686966 -0.000499755 L 8.538567 -38.907154 " transform="matrix(1.00005,0,0,-1.00009,176.632881,171.894031)"/>
<path style="fill:none;stroke-width:0.79701;stroke-linecap:round;stroke-linejoin:round;stroke:rgb(75%,0%,25%);stroke-opacity:1;stroke-miterlimit:10;" d="M -2.55151 3.109749 C -2.085096 1.243797 -1.046409 0.36406 0.00106183 -0.0017134 C -1.046142 -0.363845 -2.083053 -1.244126 -2.548308 -3.109639 " transform="matrix(0.214291,0.976808,0.976769,-0.214299,185.255352,211.193908)"/>
</g>
</svg>
