<?xml version="1.0" encoding="UTF-8"?>
<svg xmlns="http://www.w3.org/2000/svg" xmlns:xlink="http://www.w3.org/1999/xlink" width="229pt" height="230pt" viewBox="0 0 229 230" version="1.1">
<g id="surface1">
<path style="fill:none;stroke-width:0.3985;stroke-linecap:butt;stroke-linejoin:miter;stroke:rgb(0%,0%,0%);stroke-opacity:1;stroke-miterlimit:10;" d="M -112.990317 -0.00151621 L 112.987278 -0.00151621 " transform="matrix(1.00003,0,0,-1.00002,114.485894,115.185984)"/>
<path style="fill:none;stroke-width:0.3985;stroke-linecap:round;stroke-linejoin:round;stroke:rgb(0%,0%,0%);stroke-opacity:1;stroke-miterlimit:10;" d="M -2.072597 2.392093 C -1.693702 0.954622 -0.849977 0.278854 0.00156002 0.00151621 C -0.849977 -0.279728 -1.693702 -0.955496 -2.072597 -2.392967 " transform="matrix(-1.00003,0,0,1.00002,1.294529,115.185984)"/>
<path style="fill:none;stroke-width:0.3985;stroke-linecap:round;stroke-linejoin:round;stroke:rgb(0%,0%,0%);stroke-opacity:1;stroke-miterlimit:10;" d="M -2.071729 2.392967 C -1.692834 0.955496 -0.84911 0.279728 -0.0014788 -0.00151621 C -0.84911 -0.278854 -1.692834 -0.954622 -2.071729 -2.392093 " transform="matrix(1.00003,0,0,-1.00002,227.67726,115.185984)"/>
<path style="fill:none;stroke-width:0.3985;stroke-linecap:butt;stroke-linejoin:miter;stroke:rgb(0%,0%,0%);stroke-opacity:1;stroke-miterlimit:10;" d="M -0.00151941 -112.987538 L -0.00151941 112.988411 " transform="matrix(1.00003,0,0,-1.00002,114.485894,115.185984)"/>
<path style="fill:none;stroke-width:0.3985;stroke-linecap:round;stroke-linejoin:round;stroke:rgb(0%,0%,0%);stroke-opacity:1;stroke-miterlimit:10;" d="M -2.071489 2.39294 C -1.69259 0.955483 -0.848857 0.279722 -0.0012175 -0.00151941 C -0.848857 -0.278855 -1.69259 -0.954616 -2.071489 -2.392073 " transform="matrix(0,1.00002,1.00003,0,114.485894,228.376218)"/>
<path style="fill:none;stroke-width:0.3985;stroke-linecap:round;stroke-linejoin:round;stroke:rgb(0%,0%,0%);stroke-opacity:1;stroke-miterlimit:10;" d="M -2.070615 2.392073 C -1.691716 0.954616 -0.851889 0.278855 -0.000343743 0.00151941 C -0.851889 -0.279722 -1.691716 -0.955483 -2.070615 -2.39294 " transform="matrix(0,-1.00002,-1.00003,0,114.485894,1.99575)"/>
</g>
</svg>
