<?xml version="1.0" encoding="UTF-8"?>
<svg xmlns="http://www.w3.org/2000/svg" xmlns:xlink="http://www.w3.org/1999/xlink" width="295pt" height="151pt" viewBox="0 0 295 151" version="1.1">
<g id="surface1">
<path style="fill:none;stroke-width:0.3985;stroke-linecap:butt;stroke-linejoin:miter;stroke:rgb(0%,0%,0%);stroke-opacity:1;stroke-miterlimit:10;" d="M -56.296812 0.00187216 L 56.296938 0.00187216 " transform="matrix(1,0,0,-1.00006,57.789,92.513591)"/>
<path style="fill:none;stroke-width:0.3985;stroke-linecap:round;stroke-linejoin:round;stroke:rgb(0%,0%,0%);stroke-opacity:1;stroke-miterlimit:10;" d="M -2.072538 2.392515 C -1.693631 0.955102 -0.849881 0.279361 0.00168125 -0.00187216 C -0.849881 -0.279199 -1.693631 -0.95494 -2.072538 -2.392354 " transform="matrix(-1,0,0,1.00006,1.29465,92.513591)"/>
<path style="fill:none;stroke-width:0.3985;stroke-linecap:round;stroke-linejoin:round;stroke:rgb(0%,0%,0%);stroke-opacity:1;stroke-miterlimit:10;" d="M -2.072412 2.392354 C -1.693506 0.95494 -0.849756 0.279199 0.00180625 0.00187216 C -0.849756 -0.279361 -1.693506 -0.955102 -2.072412 -2.392515 " transform="matrix(1,0,0,-1.00006,114.28335,92.513591)"/>
<path style="fill:none;stroke-width:0.3985;stroke-linecap:butt;stroke-linejoin:miter;stroke:rgb(0%,0%,0%);stroke-opacity:1;stroke-miterlimit:10;" d="M 0.0000625 -56.295531 L 0.0000625 56.29537 " transform="matrix(1,0,0,-1.00006,57.789,92.513591)"/>
<path style="fill:none;stroke-width:0.3985;stroke-linecap:round;stroke-linejoin:round;stroke:rgb(0%,0%,0%);stroke-opacity:1;stroke-miterlimit:10;" d="M -2.073706 2.390688 C -1.694823 0.957094 -0.851123 0.277406 0.000388046 0.0000625 C -0.851123 -0.277281 -1.694823 -0.956969 -2.073706 -2.390562 " transform="matrix(0,1.00006,1,0,57.789,149.011331)"/>
<path style="fill:none;stroke-width:0.3985;stroke-linecap:round;stroke-linejoin:round;stroke:rgb(0%,0%,0%);stroke-opacity:1;stroke-miterlimit:10;" d="M -2.073868 2.390562 C -1.694984 0.956969 -0.851285 0.277281 0.000226345 -0.0000625 C -0.851285 -0.277406 -1.694984 -0.957094 -2.073868 -2.390688 " transform="matrix(0,-1.00006,-1,0,57.789,36.015851)"/>
<path style="fill:none;stroke-width:0.3985;stroke-linecap:butt;stroke-linejoin:miter;stroke:rgb(50%,50%,100%);stroke-opacity:1;stroke-miterlimit:10;" d="M 28.347719 -56.693945 L -28.347594 56.693783 " transform="matrix(1,0,0,-1.00006,57.789,92.513591)"/>
<path style="fill:none;stroke-width:0.79701;stroke-linecap:butt;stroke-linejoin:miter;stroke:rgb(0%,0%,100%);stroke-opacity:1;stroke-miterlimit:10;" d="M 0.0000625 0.00187216 L 13.816469 -27.633188 " transform="matrix(1,0,0,-1.00006,57.789,92.513591)"/>
<path style="fill:none;stroke-width:0.79701;stroke-linecap:round;stroke-linejoin:round;stroke:rgb(0%,0%,100%);stroke-opacity:1;stroke-miterlimit:10;" d="M -2.551654 3.111211 C -2.083483 1.243671 -1.047546 0.363219 -0.00112347 0.00163088 C -1.04755 -0.361792 -2.083498 -1.245825 -2.548199 -3.109909 " transform="matrix(0.44717,0.894434,0.89438,-0.447197,71.7842,120.50564)"/>
<path style="fill:none;stroke-width:0.3985;stroke-linecap:butt;stroke-linejoin:miter;stroke:rgb(0%,0%,0%);stroke-opacity:1;stroke-miterlimit:10;" d="M -0.0010625 0.00050085 L -58.571375 -33.817783 " transform="matrix(1,0,0,-1.00006,205.462,86.844251)"/>
<path style="fill:none;stroke-width:0.3985;stroke-linecap:round;stroke-linejoin:round;stroke:rgb(0%,0%,0%);stroke-opacity:1;stroke-miterlimit:10;" d="M -2.073066 2.390687 C -1.691782 0.957271 -0.8522 0.278603 0.000768901 -0.00186082 C -0.848845 -0.278108 -1.692978 -0.958941 -2.072866 -2.390409 " transform="matrix(-0.86601,0.50001,0.49998,0.866062,146.71644,120.762946)"/>
<path style="fill:none;stroke-width:0.3985;stroke-linecap:butt;stroke-linejoin:miter;stroke:rgb(0%,0%,0%);stroke-opacity:1;stroke-miterlimit:10;" d="M -0.0010625 0.00050085 L 84.643469 0.00050085 " transform="matrix(1,0,0,-1.00006,205.462,86.844251)"/>
<path style="fill:none;stroke-width:0.3985;stroke-linecap:round;stroke-linejoin:round;stroke:rgb(0%,0%,0%);stroke-opacity:1;stroke-miterlimit:10;" d="M -2.072701 2.390982 C -1.693795 0.957475 -0.850045 0.277828 0.0015175 0.00050085 C -0.850045 -0.280732 -1.693795 -0.956473 -2.072701 -2.389981 " transform="matrix(1,0,0,-1.00006,290.30317,86.844251)"/>
<path style="fill:none;stroke-width:0.3985;stroke-linecap:butt;stroke-linejoin:miter;stroke:rgb(0%,0%,0%);stroke-opacity:1;stroke-miterlimit:10;" d="M -0.0010625 0.00050085 L -0.0010625 84.64386 " transform="matrix(1,0,0,-1.00006,205.462,86.844251)"/>
<path style="fill:none;stroke-width:0.3985;stroke-linecap:round;stroke-linejoin:round;stroke:rgb(0%,0%,0%);stroke-opacity:1;stroke-miterlimit:10;" d="M -2.072198 2.391687 C -1.693314 0.958094 -0.849615 0.278406 0.00189655 0.0010625 C -0.849615 -0.280188 -1.693314 -0.955969 -2.072198 -2.389563 " transform="matrix(0,-1.00006,-1,0,205.462,1.99799)"/>
<path style="fill-rule:nonzero;fill:rgb(94.999695%,79.998779%,84.999084%);fill-opacity:0.5;stroke-width:0.3985;stroke-linecap:butt;stroke-linejoin:miter;stroke:rgb(0%,0%,0%);stroke-opacity:1;stroke-miterlimit:10;" d="M -8.708094 39.68562 L -87.266687 -62.362945 L 8.705969 -39.684618 L 87.264563 62.363947 L -8.708094 39.68562 " transform="matrix(1,0,0,-1.00006,205.462,86.844251)"/>
<path style="fill:none;stroke-width:0.79701;stroke-linecap:butt;stroke-linejoin:miter;stroke:rgb(0%,0%,100%);stroke-opacity:1;stroke-miterlimit:10;" d="M -0.0010625 0.00050085 L -23.215906 -5.487451 " transform="matrix(1,0,0,-1.00006,205.462,86.844251)"/>
<path style="fill:none;stroke-width:0.79701;stroke-linecap:round;stroke-linejoin:round;stroke:rgb(0%,0%,100%);stroke-opacity:1;stroke-miterlimit:10;" d="M -2.551179 3.110962 C -2.08539 1.242851 -1.044942 0.362833 0.00112393 -0.000728511 C -1.047845 -0.362984 -2.083423 -1.246186 -2.551963 -3.110284 " transform="matrix(-0.97314,0.229944,0.22993,0.973198,181.85673,92.422326)"/>
<path style="fill:none;stroke-width:0.79701;stroke-linecap:butt;stroke-linejoin:miter;stroke:rgb(100%,0%,0%);stroke-opacity:1;stroke-miterlimit:10;" d="M -0.0010625 0.00050085 L 19.155188 24.88182 " transform="matrix(1,0,0,-1.00006,205.462,86.844251)"/>
<path style="fill:none;stroke-width:0.79701;stroke-linecap:round;stroke-linejoin:round;stroke:rgb(100%,0%,0%);stroke-opacity:1;stroke-miterlimit:10;" d="M -2.551324 3.1124 C -2.084047 1.243817 -1.045523 0.362178 0.00209442 0.000242935 C -1.045015 -0.362115 -2.084784 -1.246315 -2.550428 -3.113287 " transform="matrix(0.60995,-0.792418,-0.79237,-0.609987,224.85829,61.646339)"/>
</g>
</svg>
