<?xml version="1.0" encoding="UTF-8"?>
<svg xmlns="http://www.w3.org/2000/svg" xmlns:xlink="http://www.w3.org/1999/xlink" width="342pt" height="64pt" viewBox="0 0 342 64" version="1.1">
<g id="surface1">
<path style="fill:none;stroke-width:0.3985;stroke-linecap:butt;stroke-linejoin:miter;stroke:rgb(0%,0%,0%);stroke-opacity:1;stroke-miterlimit:10;" d="M 0.0009986 -0.00009375 L 32.398788 -0.00009375 " transform="matrix(1.00002,0,0,-1,33.694314,40.621)"/>
<path style="fill:none;stroke-width:0.3985;stroke-linecap:butt;stroke-linejoin:miter;stroke:rgb(0%,0%,0%);stroke-opacity:1;stroke-miterlimit:10;" d="M 0.0009986 -0.00009375 L 0.0009986 32.398344 " transform="matrix(1.00002,0,0,-1,33.694314,40.621)"/>
<path style="fill:none;stroke-width:0.3985;stroke-linecap:butt;stroke-linejoin:miter;stroke:rgb(0%,0%,0%);stroke-opacity:1;stroke-miterlimit:10;" d="M 0.0009986 -0.00009375 L -21.600132 -10.800875 " transform="matrix(1.00002,0,0,-1,33.694314,40.621)"/>
<path style="fill:none;stroke-width:0.79701;stroke-linecap:butt;stroke-linejoin:miter;stroke:rgb(0%,0%,100%);stroke-opacity:1;stroke-miterlimit:10;" d="M 0.0009986 -0.00009375 L 17.430338 8.71475 " transform="matrix(1.00002,0,0,-1,33.694314,40.621)"/>
<path style=" stroke:none;fill-rule:nonzero;fill:rgb(0%,0%,100%);fill-opacity:1;" d="M 55.292969 29.820312 C 53.941406 30.207031 51.585938 30.515625 49.792969 30.402344 L 51.53125 33.875 C 52.515625 32.371094 54.175781 30.671875 55.292969 29.820312 "/>
<path style="fill:none;stroke-width:0.79701;stroke-linecap:butt;stroke-linejoin:miter;stroke:rgb(0%,0%,100%);stroke-opacity:1;stroke-miterlimit:10;" d="M 0.0009986 -0.00009375 L 8.715668 17.429594 " transform="matrix(1.00002,0,0,-1,33.694314,40.621)"/>
<path style=" stroke:none;fill-rule:nonzero;fill:rgb(0%,0%,100%);fill-opacity:1;" d="M 44.496094 19.023438 C 43.644531 20.140625 41.945312 21.800781 40.441406 22.785156 L 43.914062 24.523438 C 43.800781 22.726562 44.109375 20.371094 44.496094 19.023438 "/>
<path style="fill:none;stroke-width:0.79701;stroke-linecap:butt;stroke-linejoin:miter;stroke:rgb(0%,0%,100%);stroke-opacity:1;stroke-miterlimit:10;" d="M 0.0009986 -0.00009375 L 0.0009986 16.937406 " transform="matrix(1.00002,0,0,-1,33.694314,40.621)"/>
<path style=" stroke:none;fill-rule:nonzero;fill:rgb(0%,0%,100%);fill-opacity:1;" d="M 33.695312 19.023438 C 33.433594 20.402344 32.65625 22.648438 31.75 24.203125 L 35.636719 24.203125 C 34.730469 22.648438 33.953125 20.402344 33.695312 19.023438 "/>
<path style="fill:none;stroke-width:0.79701;stroke-linecap:butt;stroke-linejoin:miter;stroke:rgb(0%,0%,100%);stroke-opacity:1;stroke-miterlimit:10;" d="M 0.0009986 -0.00009375 L 7.504755 -7.504 " transform="matrix(1.00002,0,0,-1,33.694314,40.621)"/>
<path style=" stroke:none;fill-rule:nonzero;fill:rgb(0%,0%,100%);fill-opacity:1;" d="M 44.496094 51.421875 C 43.699219 50.261719 42.664062 48.125 42.203125 46.382812 L 39.457031 49.132812 C 41.195312 49.589844 43.335938 50.625 44.496094 51.421875 "/>
<path style="fill:none;stroke-width:0.79701;stroke-linecap:butt;stroke-linejoin:miter;stroke:rgb(0%,0%,100%);stroke-opacity:1;stroke-miterlimit:10;" d="M 0.0009986 -0.00009375 L -19.014246 28.519438 " transform="matrix(1.00002,0,0,-1,33.694314,40.621)"/>
<path style=" stroke:none;fill-rule:nonzero;fill:rgb(0%,0%,100%);fill-opacity:1;" d="M 12.09375 8.222656 C 12.644531 9.515625 13.242188 11.8125 13.351562 13.609375 L 16.585938 11.453125 C 14.96875 10.664062 13.078125 9.226562 12.09375 8.222656 "/>
<path style="fill:none;stroke-width:0.79701;stroke-linecap:butt;stroke-linejoin:miter;stroke:rgb(0%,0%,100%);stroke-opacity:1;stroke-miterlimit:10;" d="M 0.0009986 -0.00009375 L -28.517962 -19.011812 " transform="matrix(1.00002,0,0,-1,33.694314,40.621)"/>
<path style=" stroke:none;fill-rule:nonzero;fill:rgb(0%,0%,100%);fill-opacity:1;" d="M 1.292969 62.21875 C 2.585938 61.667969 4.886719 61.070312 6.683594 60.964844 L 4.527344 57.730469 C 3.738281 59.347656 2.300781 61.238281 1.292969 62.21875 "/>
<path style="fill:none;stroke-width:0.3985;stroke-linecap:butt;stroke-linejoin:miter;stroke:rgb(0%,0%,0%);stroke-opacity:1;stroke-dasharray:2.98883,2.98883;stroke-miterlimit:10;" d="M 32.398788 32.398344 C 46.98834 40.824125 61.007591 40.824125 72.491736 34.191313 " transform="matrix(1.00002,0,0,-1,33.694314,40.621)"/>
<path style=" stroke:none;fill-rule:nonzero;fill:rgb(0%,0%,0%);fill-opacity:1;" d="M 109.292969 8.222656 C 108.472656 7.519531 107.277344 6.136719 106.589844 4.933594 L 105.09375 7.523438 C 106.480469 7.515625 108.273438 7.863281 109.292969 8.222656 "/>
<path style="fill:none;stroke-width:0.3985;stroke-linecap:butt;stroke-linejoin:miter;stroke:rgb(0%,0%,0%);stroke-opacity:1;stroke-miterlimit:10;" d="M 75.597143 10.800688 L 118.795498 10.800688 " transform="matrix(1.00002,0,0,-1,33.694314,40.621)"/>
<path style="fill:none;stroke-width:0.3985;stroke-linecap:butt;stroke-linejoin:miter;stroke:rgb(0%,0%,0%);stroke-opacity:1;stroke-miterlimit:10;" d="M 97.198273 -10.800875 L 97.198273 32.398344 " transform="matrix(1.00002,0,0,-1,33.694314,40.621)"/>
<path style="fill:none;stroke-width:0.79701;stroke-linecap:butt;stroke-linejoin:miter;stroke:rgb(0%,0%,100%);stroke-opacity:1;stroke-miterlimit:10;" d="M 97.198273 10.800688 L 101.467719 27.874906 " transform="matrix(1.00002,0,0,-1,33.694314,40.621)"/>
<path style=" stroke:none;fill-rule:nonzero;fill:rgb(0%,0%,100%);fill-opacity:1;" d="M 136.292969 8.222656 C 135.707031 9.5 134.410156 11.488281 133.152344 12.777344 L 136.921875 13.71875 C 136.417969 11.992188 136.210938 9.625 136.292969 8.222656 "/>
<path style="fill:none;stroke-width:0.79701;stroke-linecap:butt;stroke-linejoin:miter;stroke:rgb(0%,0%,100%);stroke-opacity:1;stroke-miterlimit:10;" d="M 97.198273 10.800688 L 114.627612 19.515531 " transform="matrix(1.00002,0,0,-1,33.694314,40.621)"/>
<path style=" stroke:none;fill-rule:nonzero;fill:rgb(0%,0%,100%);fill-opacity:1;" d="M 152.492188 19.023438 C 151.140625 19.40625 148.785156 19.714844 146.992188 19.601562 L 148.730469 23.074219 C 149.714844 21.570312 151.375 19.871094 152.492188 19.023438 "/>
<path style="fill:none;stroke-width:0.79701;stroke-linecap:butt;stroke-linejoin:miter;stroke:rgb(0%,0%,100%);stroke-opacity:1;stroke-miterlimit:10;" d="M 97.198273 10.800688 L 84.878207 19.011625 " transform="matrix(1.00002,0,0,-1,33.694314,40.621)"/>
<path style=" stroke:none;fill-rule:nonzero;fill:rgb(0%,0%,100%);fill-opacity:1;" d="M 114.695312 19.023438 C 115.699219 20.003906 117.136719 21.894531 117.925781 23.511719 L 120.082031 20.277344 C 118.285156 20.171875 115.988281 19.574219 114.695312 19.023438 "/>
<path style="fill:none;stroke-width:0.79701;stroke-linecap:butt;stroke-linejoin:miter;stroke:rgb(0%,0%,100%);stroke-opacity:1;stroke-miterlimit:10;" d="M 97.198273 10.800688 L 97.198273 -0.738375 " transform="matrix(1.00002,0,0,-1,33.694314,40.621)"/>
<path style=" stroke:none;fill-rule:nonzero;fill:rgb(0%,0%,100%);fill-opacity:1;" d="M 130.894531 46.019531 C 131.152344 44.640625 131.929688 42.394531 132.835938 40.839844 L 128.949219 40.839844 C 129.855469 42.394531 130.632812 44.640625 130.894531 46.019531 "/>
<path style="fill:none;stroke-width:0.79701;stroke-linecap:butt;stroke-linejoin:miter;stroke:rgb(0%,0%,100%);stroke-opacity:1;stroke-miterlimit:10;" d="M 97.198273 10.800688 L 115.498689 -7.504 " transform="matrix(1.00002,0,0,-1,33.694314,40.621)"/>
<path style=" stroke:none;fill-rule:nonzero;fill:rgb(0%,0%,100%);fill-opacity:1;" d="M 152.492188 51.421875 C 151.699219 50.261719 150.660156 48.125 150.203125 46.382812 L 147.457031 49.132812 C 149.195312 49.589844 151.332031 50.625 152.492188 51.421875 "/>
<path style=" stroke:none;fill-rule:nonzero;fill:rgb(0%,0%,100%);fill-opacity:0.5;" d="M 109.292969 51.421875 L 109.292969 8.222656 L 152.492188 8.222656 L 152.492188 51.421875 Z M 109.292969 51.421875 "/>
<path style="fill:none;stroke-width:0.3985;stroke-linecap:butt;stroke-linejoin:miter;stroke:rgb(0%,0%,0%);stroke-opacity:1;stroke-miterlimit:10;" d="M -21.599151 10.80025 L 21.599204 10.80025 " transform="matrix(1.00002,0,0,-1,211.212864,41.019)"/>
<path style="fill:none;stroke-width:0.3985;stroke-linecap:butt;stroke-linejoin:miter;stroke:rgb(0%,0%,0%);stroke-opacity:1;stroke-miterlimit:10;" d="M -0.00192664 -10.801312 L -0.00192664 32.397906 " transform="matrix(1.00002,0,0,-1,211.212864,41.019)"/>
<path style="fill:none;stroke-width:0.79701;stroke-linecap:butt;stroke-linejoin:miter;stroke:rgb(0%,0%,100%);stroke-opacity:1;stroke-miterlimit:10;" d="M -0.00192664 10.80025 L 4.267519 27.874469 " transform="matrix(1.00002,0,0,-1,211.212864,41.019)"/>
<path style=" stroke:none;fill-rule:nonzero;fill:rgb(0%,0%,100%);fill-opacity:1;" d="M 216.613281 8.621094 C 216.027344 9.898438 214.726562 11.886719 213.472656 13.175781 L 217.242188 14.117188 C 216.738281 12.390625 216.527344 10.023438 216.613281 8.621094 "/>
<path style="fill:none;stroke-width:0.79701;stroke-linecap:butt;stroke-linejoin:miter;stroke:rgb(0%,0%,100%);stroke-opacity:1;stroke-miterlimit:10;" d="M -0.00192664 10.80025 L 17.431318 19.515094 " transform="matrix(1.00002,0,0,-1,211.212864,41.019)"/>
<path style=" stroke:none;fill-rule:nonzero;fill:rgb(0%,0%,100%);fill-opacity:1;" d="M 232.8125 19.417969 C 231.460938 19.804688 229.105469 20.113281 227.3125 20 L 229.046875 23.472656 C 230.03125 21.96875 231.691406 20.269531 232.8125 19.417969 "/>
<path style="fill:none;stroke-width:0.79701;stroke-linecap:butt;stroke-linejoin:miter;stroke:rgb(0%,0%,100%);stroke-opacity:1;stroke-miterlimit:10;" d="M -0.00192664 10.80025 L -12.321993 19.015094 " transform="matrix(1.00002,0,0,-1,211.212864,41.019)"/>
<path style=" stroke:none;fill-rule:nonzero;fill:rgb(0%,0%,100%);fill-opacity:1;" d="M 195.011719 19.417969 C 196.019531 20.402344 197.457031 22.292969 198.246094 23.910156 L 200.402344 20.675781 C 198.605469 20.570312 196.304688 19.96875 195.011719 19.417969 "/>
<path style="fill:none;stroke-width:0.79701;stroke-linecap:butt;stroke-linejoin:miter;stroke:rgb(0%,0%,100%);stroke-opacity:1;stroke-miterlimit:10;" d="M -0.00192664 10.80025 L -0.00192664 -0.738812 " transform="matrix(1.00002,0,0,-1,211.212864,41.019)"/>
<path style=" stroke:none;fill-rule:nonzero;fill:rgb(0%,0%,100%);fill-opacity:1;" d="M 211.210938 46.417969 C 211.472656 45.039062 212.25 42.792969 213.15625 41.238281 L 209.269531 41.238281 C 210.175781 42.792969 210.953125 45.039062 211.210938 46.417969 "/>
<path style="fill:none;stroke-width:0.79701;stroke-linecap:butt;stroke-linejoin:miter;stroke:rgb(0%,0%,100%);stroke-opacity:1;stroke-miterlimit:10;" d="M -0.00192664 10.80025 L 18.302395 -7.504437 " transform="matrix(1.00002,0,0,-1,211.212864,41.019)"/>
<path style=" stroke:none;fill-rule:nonzero;fill:rgb(0%,0%,100%);fill-opacity:1;" d="M 232.8125 51.820312 C 232.019531 50.660156 230.980469 48.523438 230.523438 46.78125 L 227.777344 49.527344 C 229.515625 49.988281 231.652344 51.023438 232.8125 51.820312 "/>
<path style="fill:none;stroke-width:0.3985;stroke-linecap:butt;stroke-linejoin:miter;stroke:rgb(0%,0%,0%);stroke-opacity:1;stroke-dasharray:2.98883,2.98883;stroke-miterlimit:10;" d="M 32.399769 32.397906 C 46.989321 40.823688 61.008572 40.823688 72.492717 34.190875 " transform="matrix(1.00002,0,0,-1,211.212864,41.019)"/>
<path style=" stroke:none;fill-rule:nonzero;fill:rgb(0%,0%,0%);fill-opacity:1;" d="M 286.8125 8.621094 C 285.992188 7.914062 284.792969 6.535156 284.109375 5.332031 L 282.613281 7.921875 C 283.996094 7.914062 285.792969 8.261719 286.8125 8.621094 "/>
<path style="fill:none;stroke-width:0.3985;stroke-linecap:butt;stroke-linejoin:miter;stroke:rgb(0%,0%,0%);stroke-opacity:1;stroke-miterlimit:10;" d="M 97.195348 -0.00053125 L 129.597044 -0.00053125 " transform="matrix(1.00002,0,0,-1,211.212864,41.019)"/>
<path style="fill:none;stroke-width:0.3985;stroke-linecap:butt;stroke-linejoin:miter;stroke:rgb(0%,0%,0%);stroke-opacity:1;stroke-miterlimit:10;" d="M 97.195348 -0.00053125 L 97.195348 32.397906 " transform="matrix(1.00002,0,0,-1,211.212864,41.019)"/>
<path style="fill:none;stroke-width:0.3985;stroke-linecap:butt;stroke-linejoin:miter;stroke:rgb(0%,0%,0%);stroke-opacity:1;stroke-miterlimit:10;" d="M 97.195348 -0.00053125 L 75.598124 -10.801312 " transform="matrix(1.00002,0,0,-1,211.212864,41.019)"/>
<path style="fill:none;stroke-width:0.79701;stroke-linecap:butt;stroke-linejoin:miter;stroke:rgb(0%,0%,100%);stroke-opacity:1;stroke-miterlimit:10;" d="M 97.195348 -0.00053125 L 101.121051 11.776813 " transform="matrix(1.00002,0,0,-1,211.212864,41.019)"/>
<path style=" stroke:none;fill-rule:nonzero;fill:rgb(0%,0%,100%);fill-opacity:1;" d="M 313.8125 24.820312 C 313.128906 26.046875 311.683594 27.933594 310.332031 29.121094 L 314.015625 30.347656 C 313.648438 28.585938 313.621094 26.210938 313.8125 24.820312 "/>
<path style="fill:none;stroke-width:0.79701;stroke-linecap:butt;stroke-linejoin:miter;stroke:rgb(0%,0%,100%);stroke-opacity:1;stroke-miterlimit:10;" d="M 97.195348 -0.00053125 L 114.628593 8.714313 " transform="matrix(1.00002,0,0,-1,211.212864,41.019)"/>
<path style=" stroke:none;fill-rule:nonzero;fill:rgb(0%,0%,100%);fill-opacity:1;" d="M 330.011719 30.21875 C 328.660156 30.605469 326.304688 30.914062 324.511719 30.796875 L 326.246094 34.273438 C 327.230469 32.769531 328.890625 31.070312 330.011719 30.21875 "/>
<path style="fill:none;stroke-width:0.79701;stroke-linecap:butt;stroke-linejoin:miter;stroke:rgb(0%,0%,100%);stroke-opacity:1;stroke-miterlimit:10;" d="M 97.195348 -0.00053125 L 74.527833 9.069781 " transform="matrix(1.00002,0,0,-1,211.212864,41.019)"/>
<path style=" stroke:none;fill-rule:nonzero;fill:rgb(0%,0%,100%);fill-opacity:1;" d="M 281.414062 30.21875 C 282.597656 30.972656 284.394531 32.527344 285.5 33.945312 L 286.945312 30.339844 C 285.164062 30.605469 282.792969 30.492188 281.414062 30.21875 "/>
<path style="fill:none;stroke-width:0.79701;stroke-linecap:butt;stroke-linejoin:miter;stroke:rgb(0%,0%,100%);stroke-opacity:1;stroke-miterlimit:10;" d="M 97.195348 -0.00053125 L 93.273552 -11.777875 " transform="matrix(1.00002,0,0,-1,211.212864,41.019)"/>
<path style=" stroke:none;fill-rule:nonzero;fill:rgb(0%,0%,100%);fill-opacity:1;" d="M 303.011719 57.21875 C 303.695312 55.988281 305.140625 54.105469 306.492188 52.917969 L 302.808594 51.691406 C 303.175781 53.449219 303.203125 55.824219 303.011719 57.21875 "/>
<path style="fill:none;stroke-width:0.79701;stroke-linecap:butt;stroke-linejoin:miter;stroke:rgb(0%,0%,100%);stroke-opacity:1;stroke-miterlimit:10;" d="M 97.195348 -0.00053125 L 119.624587 -4.484906 " transform="matrix(1.00002,0,0,-1,211.212864,41.019)"/>
<path style=" stroke:none;fill-rule:nonzero;fill:rgb(0%,0%,100%);fill-opacity:1;" d="M 335.410156 46.417969 C 334.109375 45.894531 332.058594 44.691406 330.714844 43.496094 L 329.949219 47.308594 C 331.652344 46.722656 334.007812 46.402344 335.410156 46.417969 "/>
<path style=" stroke:none;fill-rule:nonzero;fill:rgb(0%,0%,100%);fill-opacity:0.5;" d="M 286.8125 62.617188 L 340.8125 51.820312 L 330.011719 19.417969 L 276.011719 30.21875 L 286.8125 62.617188 "/>
</g>
</svg>
