<?xml version="1.0" encoding="UTF-8"?>
<svg xmlns="http://www.w3.org/2000/svg" xmlns:xlink="http://www.w3.org/1999/xlink" width="295pt" height="150pt" viewBox="0 0 295 150" version="1.1">
<g id="surface1">
<path style="fill:none;stroke-width:0.3985;stroke-linecap:butt;stroke-linejoin:miter;stroke:rgb(0%,0%,0%);stroke-opacity:1;stroke-miterlimit:10;" d="M -56.296237 -0.000607444 L 56.295192 -0.000607444 " transform="matrix(1.00009,0,0,-1.00006,57.727085,91.913455)"/>
<path style="fill:none;stroke-width:0.3985;stroke-linecap:round;stroke-linejoin:round;stroke:rgb(0%,0%,0%);stroke-opacity:1;stroke-miterlimit:10;" d="M -2.072944 2.391089 C -1.694072 0.957581 -0.850398 0.277935 0.00108789 0.000607444 C -0.850398 -0.280626 -1.694072 -0.956366 -2.072944 -2.389874 " transform="matrix(-1.00009,0,0,1.00006,1.22765,91.913455)"/>
<path style="fill:none;stroke-width:0.3985;stroke-linecap:round;stroke-linejoin:round;stroke:rgb(0%,0%,0%);stroke-opacity:1;stroke-miterlimit:10;" d="M -2.073989 2.389874 C -1.695117 0.956366 -0.851443 0.280626 0.0000430246 -0.000607444 C -0.851443 -0.277935 -1.695117 -0.957581 -2.073989 -2.391089 " transform="matrix(1.00009,0,0,-1.00006,114.226519,91.913455)"/>
<path style="fill:none;stroke-width:0.3985;stroke-linecap:butt;stroke-linejoin:miter;stroke:rgb(0%,0%,0%);stroke-opacity:1;stroke-miterlimit:10;" d="M -0.000522433 -56.294105 L -0.000522433 56.296796 " transform="matrix(1.00009,0,0,-1.00006,57.727085,91.913455)"/>
<path style="fill:none;stroke-width:0.3985;stroke-linecap:round;stroke-linejoin:round;stroke:rgb(0%,0%,0%);stroke-opacity:1;stroke-miterlimit:10;" d="M -2.071227 2.389887 C -1.692343 0.956423 -0.848644 0.280702 -0.00103837 -0.000522433 C -0.848644 -0.277841 -1.692343 -0.957468 -2.071227 -2.390932 " transform="matrix(0,1.00006,1.00009,0,57.727085,148.411195)"/>
<path style="fill:none;stroke-width:0.3985;stroke-linecap:round;stroke-linejoin:round;stroke:rgb(0%,0%,0%);stroke-opacity:1;stroke-miterlimit:10;" d="M -2.072442 2.390932 C -1.693558 0.957468 -0.849859 0.277841 0.00165276 0.000522433 C -0.849859 -0.280702 -1.693558 -0.956423 -2.072442 -2.389887 " transform="matrix(0,-1.00006,-1.00009,0,57.727085,35.415715)"/>
<path style="fill:none;stroke-width:0.3985;stroke-linecap:butt;stroke-linejoin:miter;stroke:rgb(50%,50%,100%);stroke-opacity:1;stroke-miterlimit:10;" d="M 28.348489 -56.692518 L -28.345628 56.69521 " transform="matrix(1.00009,0,0,-1.00006,57.727085,91.913455)"/>
<path style="fill:none;stroke-width:0.79701;stroke-linecap:butt;stroke-linejoin:miter;stroke:rgb(0%,0%,100%);stroke-opacity:1;stroke-miterlimit:10;" d="M -0.000522433 -0.000607444 L 13.818546 -27.635668 " transform="matrix(1.00009,0,0,-1.00006,57.727085,91.913455)"/>
<path style="fill:none;stroke-width:0.79701;stroke-linecap:round;stroke-linejoin:round;stroke:rgb(0%,0%,100%);stroke-opacity:1;stroke-miterlimit:10;" d="M -2.548581 3.111814 C -2.083844 1.246139 -1.0444 0.363966 0.000269621 -0.00112791 C -1.046125 -0.364487 -2.08377 -1.243178 -2.550142 -3.110606 " transform="matrix(0.44721,0.894434,0.89446,-0.447197,71.723545,119.905504)"/>
<path style="fill:none;stroke-width:0.3985;stroke-linecap:butt;stroke-linejoin:miter;stroke:rgb(0%,0%,0%);stroke-opacity:1;stroke-miterlimit:10;" d="M -0.00124014 0.00192726 L -58.574094 -33.816356 " transform="matrix(1.00009,0,0,-1.00006,205.993428,86.244115)"/>
<path style="fill:none;stroke-width:0.3985;stroke-linecap:round;stroke-linejoin:round;stroke:rgb(0%,0%,0%);stroke-opacity:1;stroke-miterlimit:10;" d="M -2.072635 2.393301 C -1.693385 0.956549 -0.848551 0.27936 0.000966734 0.000888209 C -0.850554 -0.278768 -1.692704 -0.956236 -2.071192 -2.393023 " transform="matrix(-0.866088,0.50001,0.500025,0.866062,147.242581,120.16281)"/>
<path style="fill:none;stroke-width:0.3985;stroke-linecap:butt;stroke-linejoin:miter;stroke:rgb(0%,0%,0%);stroke-opacity:1;stroke-miterlimit:10;" d="M -0.00124014 0.00192726 L 84.643486 0.00192726 " transform="matrix(1.00009,0,0,-1.00006,205.993428,86.244115)"/>
<path style="fill:none;stroke-width:0.3985;stroke-linecap:round;stroke-linejoin:round;stroke:rgb(0%,0%,0%);stroke-opacity:1;stroke-miterlimit:10;" d="M -2.072516 2.392409 C -1.693644 0.954995 -0.849969 0.279254 0.00151641 0.00192726 C -0.849969 -0.279306 -1.693644 -0.955047 -2.072516 -2.39246 " transform="matrix(1.00009,0,0,-1.00006,290.842233,86.244115)"/>
<path style="fill:none;stroke-width:0.3985;stroke-linecap:butt;stroke-linejoin:miter;stroke:rgb(0%,0%,0%);stroke-opacity:1;stroke-miterlimit:10;" d="M -0.00124014 0.00192726 L -0.00124014 84.64138 " transform="matrix(1.00009,0,0,-1.00006,205.993428,86.244115)"/>
<path style="fill:none;stroke-width:0.3985;stroke-linecap:round;stroke-linejoin:round;stroke:rgb(0%,0%,0%);stroke-opacity:1;stroke-miterlimit:10;" d="M -2.070771 2.39165 C -1.691888 0.958185 -0.848188 0.278559 -0.000583055 0.00124014 C -0.848188 -0.279985 -1.691888 -0.955705 -2.070771 -2.38917 " transform="matrix(0,-1.00006,-1.00009,0,205.993428,1.397854)"/>
<path style="fill-rule:nonzero;fill:rgb(94.999695%,79.998779%,84.999084%);fill-opacity:0.5;stroke-width:0.3985;stroke-linecap:butt;stroke-linejoin:miter;stroke:rgb(0%,0%,0%);stroke-opacity:1;stroke-miterlimit:10;" d="M -8.707488 39.687046 L -87.266824 -62.361518 L 8.708913 -39.687098 L 87.264343 62.361467 L -8.707488 39.687046 " transform="matrix(1.00009,0,0,-1.00006,205.993428,86.244115)"/>
<path style="fill:none;stroke-width:0.79701;stroke-linecap:butt;stroke-linejoin:miter;stroke:rgb(0%,0%,100%);stroke-opacity:1;stroke-miterlimit:10;" d="M -0.00124014 0.00192726 L -23.217901 -5.486025 " transform="matrix(1.00009,0,0,-1.00006,205.993428,86.244115)"/>
<path style="fill:none;stroke-width:0.79701;stroke-linecap:round;stroke-linejoin:round;stroke:rgb(0%,0%,100%);stroke-opacity:1;stroke-miterlimit:10;" d="M -2.54932 3.109057 C -2.08271 1.244766 -1.047068 0.36187 -0.00109871 -0.00166914 C -1.046184 -0.364842 -2.084594 -1.243362 -2.55023 -3.11216 " transform="matrix(-0.973228,0.229944,0.229951,0.973198,182.386033,91.82219)"/>
<path style="fill:none;stroke-width:0.79701;stroke-linecap:butt;stroke-linejoin:miter;stroke:rgb(100%,0%,0%);stroke-opacity:1;stroke-miterlimit:10;" d="M -0.00124014 0.00192726 L 19.153286 24.879341 " transform="matrix(1.00009,0,0,-1.00006,205.993428,86.244115)"/>
<path style="fill:none;stroke-width:0.79701;stroke-linecap:round;stroke-linejoin:round;stroke:rgb(100%,0%,0%);stroke-opacity:1;stroke-miterlimit:10;" d="M -2.548764 3.111412 C -2.083966 1.24605 -1.045515 0.364507 -0.00104383 0.000254501 C -1.048134 -0.362129 -2.084811 -1.243941 -2.550521 -3.110827 " transform="matrix(0.610005,-0.792418,-0.792441,-0.609987,225.391463,61.046203)"/>
</g>
</svg>
