<?xml version="1.0" encoding="UTF-8"?>
<svg xmlns="http://www.w3.org/2000/svg" xmlns:xlink="http://www.w3.org/1999/xlink" width="290pt" height="242pt" viewBox="0 0 290 242" version="1.1">
<g id="surface1">
<path style="fill:none;stroke-width:0.3985;stroke-linecap:butt;stroke-linejoin:miter;stroke:rgb(0%,0%,0%);stroke-opacity:1;stroke-miterlimit:10;" d="M 0.000412203 0.00185849 L -117.49292 -67.832044 " transform="matrix(1.00009,0,0,-1.00003,118.874588,171.283109)"/>
<path style="fill:none;stroke-width:0.3985;stroke-linecap:round;stroke-linejoin:round;stroke:rgb(0%,0%,0%);stroke-opacity:1;stroke-miterlimit:10;" d="M -2.072302 2.392465 C -1.693069 0.955686 -0.848237 0.278492 0.00128367 0.0000249805 C -0.850247 -0.279649 -1.692412 -0.957143 -2.074304 -2.392014 " transform="matrix(-0.866088,0.499995,0.500025,0.866036,1.200318,239.218087)"/>
<path style="fill:none;stroke-width:0.3985;stroke-linecap:butt;stroke-linejoin:miter;stroke:rgb(0%,0%,0%);stroke-opacity:1;stroke-miterlimit:10;" d="M 0.000412203 0.00185849 L 169.680453 0.00185849 " transform="matrix(1.00009,0,0,-1.00003,118.874588,171.283109)"/>
<path style="fill:none;stroke-width:0.3985;stroke-linecap:round;stroke-linejoin:round;stroke:rgb(0%,0%,0%);stroke-opacity:1;stroke-miterlimit:10;" d="M -2.072062 2.392412 C -1.69319 0.954955 -0.849516 0.279194 -0.00193568 0.00185849 C -0.849516 -0.279383 -1.69319 -0.955144 -2.072062 -2.392601 " transform="matrix(1.00009,0,0,-1.00003,288.771467,171.283109)"/>
<path style="fill:none;stroke-width:0.3985;stroke-linecap:butt;stroke-linejoin:miter;stroke:rgb(0%,0%,0%);stroke-opacity:1;stroke-miterlimit:10;" d="M 0.000412203 0.00185849 L 0.000412203 169.684268 " transform="matrix(1.00009,0,0,-1.00003,118.874588,171.283109)"/>
<path style="fill:none;stroke-width:0.3985;stroke-linecap:round;stroke-linejoin:round;stroke:rgb(0%,0%,0%);stroke-opacity:1;stroke-miterlimit:10;" d="M -2.072266 2.389998 C -1.693371 0.956533 -0.849646 0.280812 0.0018908 -0.000412203 C -0.849646 -0.277731 -1.693371 -0.957357 -2.072266 -2.390822 " transform="matrix(0,-1.00003,-1.00009,0,118.874588,1.396422)"/>
</g>
</svg>
