<?xml version="1.0" encoding="UTF-8"?>
<svg xmlns="http://www.w3.org/2000/svg" xmlns:xlink="http://www.w3.org/1999/xlink" width="349pt" height="64pt" viewBox="0 0 349 64" version="1.1">
<g id="surface1">
<path style="fill:none;stroke-width:0.3985;stroke-linecap:butt;stroke-linejoin:miter;stroke:rgb(0%,0%,0%);stroke-opacity:1;stroke-miterlimit:10;" d="M -0.000371348 0.00146875 L 32.400028 0.00146875 " transform="matrix(1.00006,0,0,-1,33.629278,41.021)"/>
<path style="fill:none;stroke-width:0.3985;stroke-linecap:butt;stroke-linejoin:miter;stroke:rgb(0%,0%,0%);stroke-opacity:1;stroke-miterlimit:10;" d="M -0.000371348 0.00146875 L -0.000371348 32.399906 " transform="matrix(1.00006,0,0,-1,33.629278,41.021)"/>
<path style="fill:none;stroke-width:0.3985;stroke-linecap:butt;stroke-linejoin:miter;stroke:rgb(0%,0%,0%);stroke-opacity:1;stroke-miterlimit:10;" d="M -0.000371348 0.00146875 L -21.600638 -10.799312 " transform="matrix(1.00006,0,0,-1,33.629278,41.021)"/>
<path style="fill:none;stroke-width:0.79701;stroke-linecap:butt;stroke-linejoin:miter;stroke:rgb(0%,0%,100%);stroke-opacity:1;stroke-miterlimit:10;" d="M -0.000371348 0.00146875 L 17.42827 8.716313 " transform="matrix(1.00006,0,0,-1,33.629278,41.021)"/>
<path style=" stroke:none;fill-rule:nonzero;fill:rgb(0%,0%,100%);fill-opacity:1;" d="M 55.230469 30.222656 C 53.878906 30.609375 51.523438 30.917969 49.726562 30.800781 L 51.464844 34.273438 C 52.449219 32.769531 54.109375 31.070312 55.230469 30.222656 "/>
<path style="fill:none;stroke-width:0.79701;stroke-linecap:butt;stroke-linejoin:miter;stroke:rgb(0%,0%,100%);stroke-opacity:1;stroke-miterlimit:10;" d="M -0.000371348 0.00146875 L 8.71395 17.431156 " transform="matrix(1.00006,0,0,-1,33.629278,41.021)"/>
<path style=" stroke:none;fill-rule:nonzero;fill:rgb(0%,0%,100%);fill-opacity:1;" d="M 44.429688 19.421875 C 43.582031 20.542969 41.882812 22.203125 40.375 23.1875 L 43.851562 24.921875 C 43.734375 23.128906 44.042969 20.773438 44.429688 19.421875 "/>
<path style="fill:none;stroke-width:0.79701;stroke-linecap:butt;stroke-linejoin:miter;stroke:rgb(0%,0%,100%);stroke-opacity:1;stroke-miterlimit:10;" d="M -0.000371348 0.00146875 L -0.000371348 16.935063 " transform="matrix(1.00006,0,0,-1,33.629278,41.021)"/>
<path style=" stroke:none;fill-rule:nonzero;fill:rgb(0%,0%,100%);fill-opacity:1;" d="M 33.628906 19.421875 C 33.371094 20.804688 32.59375 23.046875 31.6875 24.601562 L 35.570312 24.601562 C 34.664062 23.046875 33.886719 20.804688 33.628906 19.421875 "/>
<path style="fill:none;stroke-width:0.79701;stroke-linecap:butt;stroke-linejoin:miter;stroke:rgb(0%,0%,100%);stroke-opacity:1;stroke-miterlimit:10;" d="M -0.000371348 0.00146875 L 7.503085 -7.502437 " transform="matrix(1.00006,0,0,-1,33.629278,41.021)"/>
<path style=" stroke:none;fill-rule:nonzero;fill:rgb(0%,0%,100%);fill-opacity:1;" d="M 44.429688 51.820312 C 43.636719 50.660156 42.597656 48.523438 42.140625 46.785156 L 39.390625 49.53125 C 41.132812 49.988281 43.269531 51.027344 44.429688 51.820312 "/>
<path style="fill:none;stroke-width:0.79701;stroke-linecap:butt;stroke-linejoin:miter;stroke:rgb(0%,0%,100%);stroke-opacity:1;stroke-miterlimit:10;" d="M -0.000371348 0.00146875 L -19.014855 28.521 " transform="matrix(1.00006,0,0,-1,33.629278,41.021)"/>
<path style=" stroke:none;fill-rule:nonzero;fill:rgb(0%,0%,100%);fill-opacity:1;" d="M 12.027344 8.621094 C 12.578125 9.914062 13.179688 12.214844 13.285156 14.007812 L 16.519531 11.855469 C 14.902344 11.0625 13.011719 9.628906 12.027344 8.621094 "/>
<path style="fill:none;stroke-width:0.79701;stroke-linecap:butt;stroke-linejoin:miter;stroke:rgb(0%,0%,100%);stroke-opacity:1;stroke-miterlimit:10;" d="M -0.000371348 0.00146875 L -28.518192 -19.014156 " transform="matrix(1.00006,0,0,-1,33.629278,41.021)"/>
<path style=" stroke:none;fill-rule:nonzero;fill:rgb(0%,0%,100%);fill-opacity:1;" d="M 1.226562 62.621094 C 2.519531 62.070312 4.820312 61.472656 6.617188 61.363281 L 4.460938 58.128906 C 3.671875 59.746094 2.234375 61.636719 1.226562 62.621094 "/>
<path style="fill:none;stroke-width:0.3985;stroke-linecap:butt;stroke-linejoin:miter;stroke:rgb(0%,0%,0%);stroke-opacity:1;stroke-dasharray:2.98883,2.98883;stroke-miterlimit:10;" d="M 32.400028 32.399906 C 46.988997 40.821781 61.007687 40.821781 72.491373 34.192875 " transform="matrix(1.00006,0,0,-1,33.629278,41.021)"/>
<path style=" stroke:none;fill-rule:nonzero;fill:rgb(0%,0%,0%);fill-opacity:1;" d="M 109.230469 8.621094 C 108.410156 7.917969 107.214844 6.535156 106.527344 5.335938 L 105.03125 7.921875 C 106.417969 7.917969 108.210938 8.261719 109.230469 8.621094 "/>
<path style="fill:none;stroke-width:0.3985;stroke-linecap:butt;stroke-linejoin:miter;stroke:rgb(0%,0%,0%);stroke-opacity:1;stroke-miterlimit:10;" d="M 75.596655 10.798344 L 118.797188 10.798344 " transform="matrix(1.00006,0,0,-1,33.629278,41.021)"/>
<path style="fill:none;stroke-width:0.3985;stroke-linecap:butt;stroke-linejoin:miter;stroke:rgb(0%,0%,0%);stroke-opacity:1;stroke-miterlimit:10;" d="M 97.196922 -10.799312 L 97.196922 32.399906 " transform="matrix(1.00006,0,0,-1,33.629278,41.021)"/>
<path style="fill:none;stroke-width:0.79701;stroke-linecap:butt;stroke-linejoin:miter;stroke:rgb(0%,0%,100%);stroke-opacity:1;stroke-miterlimit:10;" d="M 97.196922 10.798344 L 101.466197 27.876469 " transform="matrix(1.00006,0,0,-1,33.629278,41.021)"/>
<path style=" stroke:none;fill-rule:nonzero;fill:rgb(0%,0%,100%);fill-opacity:1;" d="M 136.234375 8.621094 C 135.644531 9.898438 134.347656 11.890625 133.089844 13.175781 L 136.859375 14.117188 C 136.359375 12.390625 136.148438 10.023438 136.234375 8.621094 "/>
<path style="fill:none;stroke-width:0.79701;stroke-linecap:butt;stroke-linejoin:miter;stroke:rgb(0%,0%,100%);stroke-opacity:1;stroke-miterlimit:10;" d="M 97.196922 10.798344 L 114.625564 19.513188 " transform="matrix(1.00006,0,0,-1,33.629278,41.021)"/>
<path style=" stroke:none;fill-rule:nonzero;fill:rgb(0%,0%,100%);fill-opacity:1;" d="M 152.433594 19.421875 C 151.082031 19.808594 148.726562 20.117188 146.929688 20 L 148.667969 23.476562 C 149.652344 21.96875 151.3125 20.269531 152.433594 19.421875 "/>
<path style="fill:none;stroke-width:0.79701;stroke-linecap:butt;stroke-linejoin:miter;stroke:rgb(0%,0%,100%);stroke-opacity:1;stroke-miterlimit:10;" d="M 97.196922 10.798344 L 84.877348 19.013188 " transform="matrix(1.00006,0,0,-1,33.629278,41.021)"/>
<path style=" stroke:none;fill-rule:nonzero;fill:rgb(0%,0%,100%);fill-opacity:1;" d="M 114.632812 19.421875 C 115.636719 20.402344 117.074219 22.296875 117.863281 23.910156 L 120.019531 20.679688 C 118.222656 20.570312 115.925781 19.972656 114.632812 19.421875 "/>
<path style="fill:none;stroke-width:0.79701;stroke-linecap:butt;stroke-linejoin:miter;stroke:rgb(0%,0%,100%);stroke-opacity:1;stroke-miterlimit:10;" d="M 97.196922 10.798344 L 97.196922 -0.736812 " transform="matrix(1.00006,0,0,-1,33.629278,41.021)"/>
<path style=" stroke:none;fill-rule:nonzero;fill:rgb(0%,0%,100%);fill-opacity:1;" d="M 130.832031 46.421875 C 131.089844 45.039062 131.867188 42.792969 132.773438 41.242188 L 128.890625 41.242188 C 129.796875 42.792969 130.574219 45.039062 130.832031 46.421875 "/>
<path style="fill:none;stroke-width:0.79701;stroke-linecap:butt;stroke-linejoin:miter;stroke:rgb(0%,0%,100%);stroke-opacity:1;stroke-miterlimit:10;" d="M 97.196922 10.798344 L 115.500511 -7.502437 " transform="matrix(1.00006,0,0,-1,33.629278,41.021)"/>
<path style=" stroke:none;fill-rule:nonzero;fill:rgb(0%,0%,100%);fill-opacity:1;" d="M 152.433594 51.820312 C 151.640625 50.660156 150.601562 48.523438 150.144531 46.785156 L 147.394531 49.53125 C 149.136719 49.988281 151.273438 51.027344 152.433594 51.820312 "/>
<path style=" stroke:none;fill-rule:nonzero;fill:rgb(0%,0%,100%);fill-opacity:0.5;" d="M 109.230469 51.820312 L 109.230469 8.621094 L 152.433594 8.621094 L 152.433594 51.820312 Z M 109.230469 51.820312 "/>
<path style="fill:none;stroke-width:0.3985;stroke-linecap:butt;stroke-linejoin:miter;stroke:rgb(0%,0%,0%);stroke-opacity:1;stroke-miterlimit:10;" d="M -21.600655 10.797906 L 21.599878 10.797906 " transform="matrix(1.00006,0,0,-1,218.293357,41.419)"/>
<path style="fill:none;stroke-width:0.3985;stroke-linecap:butt;stroke-linejoin:miter;stroke:rgb(0%,0%,0%);stroke-opacity:1;stroke-miterlimit:10;" d="M -0.000388027 -10.79975 L -0.000388027 32.399469 " transform="matrix(1.00006,0,0,-1,218.293357,41.419)"/>
<path style="fill:none;stroke-width:0.79701;stroke-linecap:butt;stroke-linejoin:miter;stroke:rgb(0%,0%,100%);stroke-opacity:1;stroke-miterlimit:10;" d="M -0.000388027 10.797906 L 4.268887 27.876031 " transform="matrix(1.00006,0,0,-1,218.293357,41.419)"/>
<path style=" stroke:none;fill-rule:nonzero;fill:rgb(0%,0%,100%);fill-opacity:1;" d="M 223.695312 9.019531 C 223.105469 10.296875 221.808594 12.285156 220.550781 13.574219 L 224.320312 14.515625 C 223.820312 12.789062 223.609375 10.421875 223.695312 9.019531 "/>
<path style="fill:none;stroke-width:0.79701;stroke-linecap:butt;stroke-linejoin:miter;stroke:rgb(0%,0%,100%);stroke-opacity:1;stroke-miterlimit:10;" d="M -0.000388027 10.797906 L 17.428254 19.51275 " transform="matrix(1.00006,0,0,-1,218.293357,41.419)"/>
<path style=" stroke:none;fill-rule:nonzero;fill:rgb(0%,0%,100%);fill-opacity:1;" d="M 239.894531 19.820312 C 238.542969 20.207031 236.1875 20.515625 234.390625 20.398438 L 236.128906 23.875 C 237.113281 22.367188 238.773438 20.667969 239.894531 19.820312 "/>
<path style="fill:none;stroke-width:0.79701;stroke-linecap:butt;stroke-linejoin:miter;stroke:rgb(0%,0%,100%);stroke-opacity:1;stroke-miterlimit:10;" d="M -0.000388027 10.797906 L -12.319961 19.01275 " transform="matrix(1.00006,0,0,-1,218.293357,41.419)"/>
<path style=" stroke:none;fill-rule:nonzero;fill:rgb(0%,0%,100%);fill-opacity:1;" d="M 202.09375 19.820312 C 203.097656 20.800781 204.535156 22.691406 205.324219 24.308594 L 207.480469 21.078125 C 205.683594 20.96875 203.386719 20.371094 202.09375 19.820312 "/>
<path style="fill:none;stroke-width:0.79701;stroke-linecap:butt;stroke-linejoin:miter;stroke:rgb(0%,0%,100%);stroke-opacity:1;stroke-miterlimit:10;" d="M -0.000388027 10.797906 L -0.000388027 -0.73725 " transform="matrix(1.00006,0,0,-1,218.293357,41.419)"/>
<path style=" stroke:none;fill-rule:nonzero;fill:rgb(0%,0%,100%);fill-opacity:1;" d="M 218.292969 46.820312 C 218.550781 45.4375 219.328125 43.191406 220.234375 41.636719 L 216.351562 41.636719 C 217.257812 43.191406 218.035156 45.4375 218.292969 46.820312 "/>
<path style="fill:none;stroke-width:0.79701;stroke-linecap:butt;stroke-linejoin:miter;stroke:rgb(0%,0%,100%);stroke-opacity:1;stroke-miterlimit:10;" d="M -0.000388027 10.797906 L 18.303201 -7.502875 " transform="matrix(1.00006,0,0,-1,218.293357,41.419)"/>
<path style=" stroke:none;fill-rule:nonzero;fill:rgb(0%,0%,100%);fill-opacity:1;" d="M 239.894531 52.21875 C 239.101562 51.058594 238.0625 48.921875 237.605469 47.183594 L 234.855469 49.929688 C 236.597656 50.386719 238.734375 51.425781 239.894531 52.21875 "/>
<path style="fill:none;stroke-width:0.3985;stroke-linecap:butt;stroke-linejoin:miter;stroke:rgb(0%,0%,0%);stroke-opacity:1;stroke-dasharray:2.98883,2.98883;stroke-miterlimit:10;" d="M 32.400012 32.399469 C 46.98898 40.821344 61.00767 40.821344 72.491356 34.192437 " transform="matrix(1.00006,0,0,-1,218.293357,41.419)"/>
<path style=" stroke:none;fill-rule:nonzero;fill:rgb(0%,0%,0%);fill-opacity:1;" d="M 293.894531 9.019531 C 293.074219 8.316406 291.878906 6.933594 291.191406 5.734375 L 289.695312 8.320312 C 291.082031 8.316406 292.875 8.660156 293.894531 9.019531 "/>
<path style="fill:none;stroke-width:0.3985;stroke-linecap:butt;stroke-linejoin:miter;stroke:rgb(0%,0%,0%);stroke-opacity:1;stroke-miterlimit:10;" d="M 97.196905 0.00103125 L 129.597305 0.00103125 " transform="matrix(1.00006,0,0,-1,218.293357,41.419)"/>
<path style="fill:none;stroke-width:0.3985;stroke-linecap:butt;stroke-linejoin:miter;stroke:rgb(0%,0%,0%);stroke-opacity:1;stroke-miterlimit:10;" d="M 97.196905 0.00103125 L 97.196905 32.399469 " transform="matrix(1.00006,0,0,-1,218.293357,41.419)"/>
<path style="fill:none;stroke-width:0.3985;stroke-linecap:butt;stroke-linejoin:miter;stroke:rgb(0%,0%,0%);stroke-opacity:1;stroke-miterlimit:10;" d="M 97.196905 0.00103125 L 75.596639 -10.79975 " transform="matrix(1.00006,0,0,-1,218.293357,41.419)"/>
<path style="fill:none;stroke-width:0.79701;stroke-linecap:butt;stroke-linejoin:miter;stroke:rgb(0%,0%,100%);stroke-opacity:1;stroke-miterlimit:10;" d="M 97.196905 0.00103125 L 101.122451 11.778375 " transform="matrix(1.00006,0,0,-1,218.293357,41.419)"/>
<path style=" stroke:none;fill-rule:nonzero;fill:rgb(0%,0%,100%);fill-opacity:1;" d="M 320.898438 25.21875 C 320.214844 26.449219 318.765625 28.332031 317.414062 29.519531 L 321.101562 30.75 C 320.734375 28.988281 320.707031 26.613281 320.898438 25.21875 "/>
<path style="fill:none;stroke-width:0.79701;stroke-linecap:butt;stroke-linejoin:miter;stroke:rgb(0%,0%,100%);stroke-opacity:1;stroke-miterlimit:10;" d="M 97.196905 0.00103125 L 114.625547 8.715875 " transform="matrix(1.00006,0,0,-1,218.293357,41.419)"/>
<path style=" stroke:none;fill-rule:nonzero;fill:rgb(0%,0%,100%);fill-opacity:1;" d="M 337.097656 30.621094 C 335.746094 31.003906 333.390625 31.3125 331.59375 31.199219 L 333.332031 34.671875 C 334.316406 33.167969 335.976562 31.46875 337.097656 30.621094 "/>
<path style="fill:none;stroke-width:0.79701;stroke-linecap:butt;stroke-linejoin:miter;stroke:rgb(0%,0%,100%);stroke-opacity:1;stroke-miterlimit:10;" d="M 97.196905 0.00103125 L 74.52639 9.067437 " transform="matrix(1.00006,0,0,-1,218.293357,41.419)"/>
<path style=" stroke:none;fill-rule:nonzero;fill:rgb(0%,0%,100%);fill-opacity:1;" d="M 288.496094 30.621094 C 289.683594 31.371094 291.476562 32.929688 292.585938 34.347656 L 294.027344 30.738281 C 292.246094 31.003906 289.875 30.890625 288.496094 30.621094 "/>
<path style="fill:none;stroke-width:0.79701;stroke-linecap:butt;stroke-linejoin:miter;stroke:rgb(0%,0%,100%);stroke-opacity:1;stroke-miterlimit:10;" d="M 97.196905 0.00103125 L 93.271359 -11.776313 " transform="matrix(1.00006,0,0,-1,218.293357,41.419)"/>
<path style=" stroke:none;fill-rule:nonzero;fill:rgb(0%,0%,100%);fill-opacity:1;" d="M 310.097656 57.617188 C 310.777344 56.390625 312.226562 54.507812 313.578125 53.320312 L 309.890625 52.089844 C 310.261719 53.851562 310.289062 56.226562 310.097656 57.617188 "/>
<path style="fill:none;stroke-width:0.79701;stroke-linecap:butt;stroke-linejoin:miter;stroke:rgb(0%,0%,100%);stroke-opacity:1;stroke-miterlimit:10;" d="M 97.196905 0.00103125 L 119.625247 -4.48725 " transform="matrix(1.00006,0,0,-1,218.293357,41.419)"/>
<path style=" stroke:none;fill-rule:nonzero;fill:rgb(0%,0%,100%);fill-opacity:1;" d="M 342.496094 46.820312 C 341.195312 46.292969 339.144531 45.089844 337.796875 43.898438 L 337.035156 47.707031 C 338.738281 47.125 341.09375 46.800781 342.496094 46.820312 "/>
<path style=" stroke:none;fill-rule:nonzero;fill:rgb(0%,0%,100%);fill-opacity:0.5;" d="M 293.894531 63.019531 L 347.898438 52.21875 L 337.097656 19.820312 L 283.09375 30.621094 L 293.894531 63.019531 "/>
</g>
</svg>
