<?xml version="1.0" encoding="UTF-8"?>
<svg xmlns="http://www.w3.org/2000/svg" xmlns:xlink="http://www.w3.org/1999/xlink" width="326pt" height="128pt" viewBox="0 0 326 128" version="1.1">
<g id="surface1">
<path style="fill:none;stroke-width:0.3985;stroke-linecap:butt;stroke-linejoin:miter;stroke:rgb(0%,0%,0%);stroke-opacity:1;stroke-miterlimit:10;" d="M -0.0018125 -0.00084375 L 84.642719 -0.00084375 " transform="matrix(1,0,0,-1,97.744,86.839)"/>
<path style="fill:none;stroke-width:0.3985;stroke-linecap:round;stroke-linejoin:round;stroke:rgb(0%,0%,0%);stroke-opacity:1;stroke-miterlimit:10;" d="M -2.073451 2.389781 C -1.694545 0.956187 -0.850795 0.280406 0.0007675 -0.00084375 C -0.850795 -0.278188 -1.694545 -0.957875 -2.073451 -2.391469 " transform="matrix(1,0,0,-1,182.58517,86.839)"/>
<path style="fill:none;stroke-width:0.3985;stroke-linecap:butt;stroke-linejoin:miter;stroke:rgb(0%,0%,0%);stroke-opacity:1;stroke-miterlimit:10;" d="M -0.0018125 -0.00084375 L -0.0018125 84.643687 " transform="matrix(1,0,0,-1,97.744,86.839)"/>
<path style="fill:none;stroke-width:0.3985;stroke-linecap:round;stroke-linejoin:round;stroke:rgb(0%,0%,0%);stroke-opacity:1;stroke-miterlimit:10;" d="M -2.072483 2.392437 C -1.693576 0.954937 -0.849826 0.279156 0.00173625 0.0018125 C -0.849826 -0.279438 -1.693576 -0.955219 -2.072483 -2.392719 " transform="matrix(0,-1,-1,0,97.744,1.99783)"/>
<path style="fill:none;stroke-width:0.3985;stroke-linecap:butt;stroke-linejoin:miter;stroke:rgb(0%,0%,0%);stroke-opacity:1;stroke-miterlimit:10;" d="M -0.0018125 -0.00084375 L -32.458844 -32.457875 " transform="matrix(1,0,0,-1,97.744,86.839)"/>
<path style="fill:none;stroke-width:0.3985;stroke-linecap:round;stroke-linejoin:round;stroke:rgb(0%,0%,0%);stroke-opacity:1;stroke-miterlimit:10;" d="M -2.071927 2.391348 C -1.69351 0.957785 -0.848289 0.278293 -0.000304943 -0.000685016 C -0.848289 -0.279663 -1.696273 -0.956393 -2.071927 -2.392718 " transform="matrix(-0.7071,0.7071,0.7071,0.7071,65.1448,119.4382)"/>
<path style="fill-rule:nonzero;fill:rgb(94.999695%,79.998779%,84.999084%);fill-opacity:0.5;stroke-width:0.3985;stroke-linecap:butt;stroke-linejoin:miter;stroke:rgb(0%,0%,0%);stroke-opacity:1;stroke-miterlimit:10;" d="M -39.259625 -39.258656 L 95.955219 -17.434438 L 39.259906 39.260875 L -95.954937 17.43275 L -39.259625 -39.258656 " transform="matrix(1,0,0,-1,97.744,86.839)"/>
<path style="fill:none;stroke-width:0.79701;stroke-linecap:butt;stroke-linejoin:miter;stroke:rgb(0%,0%,100%);stroke-opacity:1;stroke-miterlimit:10;" d="M -0.0018125 -0.00084375 L 13.611469 -13.610219 " transform="matrix(1,0,0,-1,97.744,86.839)"/>
<path style="fill:none;stroke-width:0.79701;stroke-linecap:round;stroke-linejoin:round;stroke:rgb(0%,0%,100%);stroke-opacity:1;stroke-miterlimit:10;" d="M -2.551526 3.111079 C -2.08472 1.246619 -1.046147 0.362727 0.000712417 0.000883892 C -1.046147 -0.360959 -2.08472 -1.244851 -2.551526 -3.109311 " transform="matrix(0.7071,0.7071,0.7071,-0.7071,111.63559,100.73059)"/>
<path style="fill:none;stroke-width:0.79701;stroke-linecap:butt;stroke-linejoin:miter;stroke:rgb(100%,0%,0%);stroke-opacity:1;stroke-miterlimit:10;" d="M -0.0018125 -0.00084375 L -33.017437 -5.328969 " transform="matrix(1,0,0,-1,97.744,86.839)"/>
<path style="fill:none;stroke-width:0.79701;stroke-linecap:round;stroke-linejoin:round;stroke:rgb(100%,0%,0%);stroke-opacity:1;stroke-miterlimit:10;" d="M -2.550515 3.112524 C -2.084316 1.244768 -1.047735 0.361252 0.00159043 -0.0020003 C -1.045946 -0.363164 -2.086321 -1.243848 -2.550056 -3.111878 " transform="matrix(-0.98718,0.15933,0.15933,0.98718,64.33392,92.23219)"/>
<path style="fill:none;stroke-width:0.3985;stroke-linecap:butt;stroke-linejoin:miter;stroke:rgb(0%,0%,0%);stroke-opacity:1;stroke-miterlimit:10;" d="M 113.388813 28.346812 L 226.775531 28.346812 " transform="matrix(1,0,0,-1,97.744,86.839)"/>
<path style="fill:none;stroke-width:0.3985;stroke-linecap:butt;stroke-linejoin:miter;stroke:rgb(0%,0%,0%);stroke-opacity:1;stroke-miterlimit:10;" d="M 170.080219 -28.3485 L 170.080219 85.042125 " transform="matrix(1,0,0,-1,97.744,86.839)"/>
<path style="fill-rule:nonzero;fill:rgb(94.999695%,79.998779%,84.999084%);fill-opacity:0.5;stroke-width:0.3985;stroke-linecap:butt;stroke-linejoin:miter;stroke:rgb(0%,0%,0%);stroke-opacity:1;stroke-miterlimit:10;" d="M 116.220844 -25.512563 L 116.220844 82.206187 L 223.939594 82.206187 L 223.939594 -25.512563 L 116.220844 -25.512563 " transform="matrix(1,0,0,-1,97.744,86.839)"/>
<path style="fill:none;stroke-width:1.19553;stroke-linecap:butt;stroke-linejoin:miter;stroke:rgb(0%,0%,100%);stroke-opacity:1;stroke-miterlimit:10;" d="M 170.080219 28.346812 L 183.056781 28.346812 " transform="matrix(1,0,0,-1,97.744,86.839)"/>
<path style="fill:none;stroke-width:1.19553;stroke-linecap:round;stroke-linejoin:round;stroke:rgb(0%,0%,100%);stroke-opacity:1;stroke-miterlimit:10;" d="M -3.029406 3.832044 C -2.474719 1.531262 -1.24425 0.445325 0.00184375 0.0000125 C -1.24425 -0.4453 -2.474719 -1.531238 -3.029406 -3.832019 " transform="matrix(1,0,0,-1,281.4005,58.4922)"/>
<path style="fill:none;stroke-width:1.19553;stroke-linecap:butt;stroke-linejoin:miter;stroke:rgb(100%,0%,0%);stroke-opacity:1;stroke-miterlimit:10;" d="M 170.080219 28.346812 L 170.080219 41.323375 " transform="matrix(1,0,0,-1,97.744,86.839)"/>
<path style="fill:none;stroke-width:1.19553;stroke-linecap:round;stroke-linejoin:round;stroke:rgb(100%,0%,0%);stroke-opacity:1;stroke-miterlimit:10;" d="M -3.028753 3.832672 C -2.474065 1.531891 -1.243596 0.445954 -0.00140875 0.00064125 C -1.243596 -0.448578 -2.474065 -1.530609 -3.028753 -3.83139 " transform="matrix(0,-1,-1,0,267.82486,44.91656)"/>
</g>
</svg>
