<?xml version="1.0" encoding="UTF-8"?>
<svg xmlns="http://www.w3.org/2000/svg" xmlns:xlink="http://www.w3.org/1999/xlink" width="353pt" height="298pt" viewBox="0 0 353 298" version="1.1">
<g id="surface1">
<path style="fill:none;stroke-width:0.3985;stroke-linecap:butt;stroke-linejoin:miter;stroke:rgb(0%,0%,0%);stroke-opacity:1;stroke-miterlimit:10;" d="M -0.00151405 -0.000499755 L -117.490558 -67.834238 " transform="matrix(1.00006,0,0,-1.00009,176.329639,171.894031)"/>
<path style="fill:none;stroke-width:0.3985;stroke-linecap:round;stroke-linejoin:round;stroke:rgb(0%,0%,0%);stroke-opacity:1;stroke-miterlimit:10;" d="M -2.071928 2.390193 C -1.694065 0.958789 -0.851153 0.278205 -0.00161554 -0.000284446 C -0.847806 -0.278485 -1.695286 -0.957351 -2.07179 -2.390723 " transform="matrix(-0.866062,0.500025,0.50001,0.866088,58.658899,239.833085)"/>
<path style="fill:none;stroke-width:0.3985;stroke-linecap:butt;stroke-linejoin:miter;stroke:rgb(0%,0%,0%);stroke-opacity:1;stroke-miterlimit:10;" d="M -0.00151405 -0.000499755 L 169.683617 -0.000499755 " transform="matrix(1.00006,0,0,-1.00009,176.329639,171.894031)"/>
<path style="fill:none;stroke-width:0.3985;stroke-linecap:round;stroke-linejoin:round;stroke:rgb(0%,0%,0%);stroke-opacity:1;stroke-miterlimit:10;" d="M -2.07286 2.38991 C -1.693977 0.956445 -0.850277 0.280725 0.00123414 -0.000499755 C -0.850277 -0.277819 -1.693977 -0.957445 -2.07286 -2.39091 " transform="matrix(1.00006,0,0,-1.00009,346.221422,171.894031)"/>
<path style="fill:none;stroke-width:0.3985;stroke-linecap:butt;stroke-linejoin:miter;stroke:rgb(0%,0%,0%);stroke-opacity:1;stroke-miterlimit:10;" d="M -0.00151405 -0.000499755 L -0.00151405 169.683447 " transform="matrix(1.00006,0,0,-1.00009,176.329639,171.894031)"/>
<path style="fill:none;stroke-width:0.3985;stroke-linecap:round;stroke-linejoin:round;stroke:rgb(0%,0%,0%);stroke-opacity:1;stroke-miterlimit:10;" d="M -2.072974 2.391996 C -1.694102 0.954582 -0.850428 0.278841 0.00105826 0.00151405 C -0.850428 -0.279719 -1.694102 -0.95546 -2.072974 -2.392874 " transform="matrix(0,-1.00009,-1.00006,0,176.329639,1.997152)"/>
<path style="fill-rule:nonzero;fill:rgb(94.999695%,79.998779%,84.999084%);fill-opacity:0.5;stroke-width:0.3985;stroke-linecap:butt;stroke-linejoin:miter;stroke:rgb(0%,0%,0%);stroke-opacity:1;stroke-miterlimit:10;" d="M -17.414532 79.371263 L -174.530105 -124.727556 L 17.41541 -79.372263 L 174.530983 124.726556 L -17.414532 79.371263 " transform="matrix(1.00006,0,0,-1.00009,176.329639,171.894031)"/>
<path style="fill:none;stroke-width:0.79701;stroke-linecap:butt;stroke-linejoin:miter;stroke:rgb(0%,0%,100%);stroke-opacity:1;stroke-miterlimit:10;" d="M -0.00151405 -0.000499755 L -47.209619 -11.155746 " transform="matrix(1.00006,0,0,-1.00009,176.329639,171.894031)"/>
<path style="fill:none;stroke-width:0.79701;stroke-linecap:round;stroke-linejoin:round;stroke:rgb(0%,0%,100%);stroke-opacity:1;stroke-miterlimit:10;" d="M -2.550688 3.109643 C -2.08404 1.245395 -1.044558 0.36161 0.00144505 -0.00193273 C -1.047465 -0.364184 -2.085892 -1.242666 -2.551514 -3.111407 " transform="matrix(-0.973198,0.229951,0.229944,0.973228,128.728413,183.142174)"/>
<path style="fill:none;stroke-width:0.79701;stroke-linecap:butt;stroke-linejoin:miter;stroke:rgb(100%,0%,0%);stroke-opacity:1;stroke-miterlimit:10;" d="M -0.00151405 -0.000499755 L 38.793033 50.393402 " transform="matrix(1.00006,0,0,-1.00009,176.329639,171.894031)"/>
<path style="fill:none;stroke-width:0.79701;stroke-linecap:round;stroke-linejoin:round;stroke:rgb(100%,0%,0%);stroke-opacity:1;stroke-miterlimit:10;" d="M -2.550196 3.109976 C -2.085347 1.244587 -1.046879 0.363006 0.000690057 0.00110384 C -1.046381 -0.361252 -2.08612 -1.245423 -2.551773 -3.112311 " transform="matrix(0.609987,-0.792441,-0.792418,-0.610005,215.367641,121.180908)"/>
</g>
</svg>
