<?xml version="1.0" encoding="UTF-8"?>
<svg xmlns="http://www.w3.org/2000/svg" xmlns:xlink="http://www.w3.org/1999/xlink" width="350pt" height="64pt" viewBox="0 0 350 64" version="1.1">
<g id="surface1">
<path style="fill:none;stroke-width:0.3985;stroke-linecap:butt;stroke-linejoin:miter;stroke:rgb(0%,0%,0%);stroke-opacity:1;stroke-miterlimit:10;" d="M -0.00049831 -0.00009375 L 32.399901 -0.00009375 " transform="matrix(1.00006,0,0,-1,34.391123,40.621)"/>
<path style="fill:none;stroke-width:0.3985;stroke-linecap:butt;stroke-linejoin:miter;stroke:rgb(0%,0%,0%);stroke-opacity:1;stroke-miterlimit:10;" d="M -0.00049831 -0.00009375 L -0.00049831 32.398344 " transform="matrix(1.00006,0,0,-1,34.391123,40.621)"/>
<path style="fill:none;stroke-width:0.3985;stroke-linecap:butt;stroke-linejoin:miter;stroke:rgb(0%,0%,0%);stroke-opacity:1;stroke-miterlimit:10;" d="M -0.00049831 -0.00009375 L -21.600765 -10.800875 " transform="matrix(1.00006,0,0,-1,34.391123,40.621)"/>
<path style="fill:none;stroke-width:0.79701;stroke-linecap:butt;stroke-linejoin:miter;stroke:rgb(0%,0%,100%);stroke-opacity:1;stroke-miterlimit:10;" d="M -0.00049831 -0.00009375 L 17.428143 8.71475 " transform="matrix(1.00006,0,0,-1,34.391123,40.621)"/>
<path style=" stroke:none;fill-rule:nonzero;fill:rgb(0%,0%,100%);fill-opacity:1;" d="M 55.992188 29.820312 C 54.640625 30.207031 52.285156 30.515625 50.488281 30.402344 L 52.226562 33.875 C 53.210938 32.371094 54.871094 30.671875 55.992188 29.820312 "/>
<path style="fill:none;stroke-width:0.79701;stroke-linecap:butt;stroke-linejoin:miter;stroke:rgb(0%,0%,100%);stroke-opacity:1;stroke-miterlimit:10;" d="M -0.00049831 -0.00009375 L 8.713823 17.429594 " transform="matrix(1.00006,0,0,-1,34.391123,40.621)"/>
<path style=" stroke:none;fill-rule:nonzero;fill:rgb(0%,0%,100%);fill-opacity:1;" d="M 45.191406 19.023438 C 44.34375 20.140625 42.644531 21.800781 41.136719 22.785156 L 44.613281 24.523438 C 44.496094 22.726562 44.804688 20.371094 45.191406 19.023438 "/>
<path style="fill:none;stroke-width:0.79701;stroke-linecap:butt;stroke-linejoin:miter;stroke:rgb(0%,0%,100%);stroke-opacity:1;stroke-miterlimit:10;" d="M -0.00049831 -0.00009375 L -0.00049831 16.937406 " transform="matrix(1.00006,0,0,-1,34.391123,40.621)"/>
<path style=" stroke:none;fill-rule:nonzero;fill:rgb(0%,0%,100%);fill-opacity:1;" d="M 34.390625 19.023438 C 34.132812 20.402344 33.355469 22.648438 32.449219 24.203125 L 36.332031 24.203125 C 35.425781 22.648438 34.648438 20.402344 34.390625 19.023438 "/>
<path style="fill:none;stroke-width:0.79701;stroke-linecap:butt;stroke-linejoin:miter;stroke:rgb(0%,0%,100%);stroke-opacity:1;stroke-miterlimit:10;" d="M -0.00049831 -0.00009375 L 7.502958 -7.504 " transform="matrix(1.00006,0,0,-1,34.391123,40.621)"/>
<path style=" stroke:none;fill-rule:nonzero;fill:rgb(0%,0%,100%);fill-opacity:1;" d="M 45.191406 51.421875 C 44.398438 50.261719 43.359375 48.125 42.902344 46.382812 L 40.152344 49.132812 C 41.894531 49.589844 44.03125 50.625 45.191406 51.421875 "/>
<path style="fill:none;stroke-width:0.79701;stroke-linecap:butt;stroke-linejoin:miter;stroke:rgb(0%,0%,100%);stroke-opacity:1;stroke-miterlimit:10;" d="M -0.00049831 -0.00009375 L -19.014982 28.519438 " transform="matrix(1.00006,0,0,-1,34.391123,40.621)"/>
<path style=" stroke:none;fill-rule:nonzero;fill:rgb(0%,0%,100%);fill-opacity:1;" d="M 12.789062 8.222656 C 13.339844 9.515625 13.941406 11.8125 14.046875 13.609375 L 17.28125 11.453125 C 15.664062 10.664062 13.773438 9.226562 12.789062 8.222656 "/>
<path style="fill:none;stroke-width:0.79701;stroke-linecap:butt;stroke-linejoin:miter;stroke:rgb(0%,0%,100%);stroke-opacity:1;stroke-miterlimit:10;" d="M -0.00049831 -0.00009375 L -28.518318 -19.011812 " transform="matrix(1.00006,0,0,-1,34.391123,40.621)"/>
<path style=" stroke:none;fill-rule:nonzero;fill:rgb(0%,0%,100%);fill-opacity:1;" d="M 1.988281 62.21875 C 3.285156 61.667969 5.582031 61.070312 7.378906 60.964844 L 5.222656 57.730469 C 4.433594 59.347656 2.996094 61.238281 1.988281 62.21875 "/>
<path style="fill:none;stroke-width:0.3985;stroke-linecap:butt;stroke-linejoin:miter;stroke:rgb(0%,0%,0%);stroke-opacity:1;stroke-dasharray:2.98883,2.98883;stroke-miterlimit:10;" d="M 32.399901 32.398344 C 46.98887 40.824125 61.00756 40.824125 72.491246 34.191313 " transform="matrix(1.00006,0,0,-1,34.391123,40.621)"/>
<path style=" stroke:none;fill-rule:nonzero;fill:rgb(0%,0%,0%);fill-opacity:1;" d="M 109.992188 8.222656 C 109.171875 7.519531 107.976562 6.136719 107.289062 4.933594 L 105.796875 7.523438 C 107.179688 7.515625 108.972656 7.863281 109.992188 8.222656 "/>
<path style="fill:none;stroke-width:0.3985;stroke-linecap:butt;stroke-linejoin:miter;stroke:rgb(0%,0%,0%);stroke-opacity:1;stroke-miterlimit:10;" d="M 75.596528 10.800688 L 118.797061 10.800688 " transform="matrix(1.00006,0,0,-1,34.391123,40.621)"/>
<path style="fill:none;stroke-width:0.3985;stroke-linecap:butt;stroke-linejoin:miter;stroke:rgb(0%,0%,0%);stroke-opacity:1;stroke-miterlimit:10;" d="M 97.196795 -10.800875 L 97.196795 32.398344 " transform="matrix(1.00006,0,0,-1,34.391123,40.621)"/>
<path style="fill:none;stroke-width:0.79701;stroke-linecap:butt;stroke-linejoin:miter;stroke:rgb(0%,0%,100%);stroke-opacity:1;stroke-miterlimit:10;" d="M 97.196795 10.800688 L 101.46607 27.874906 " transform="matrix(1.00006,0,0,-1,34.391123,40.621)"/>
<path style=" stroke:none;fill-rule:nonzero;fill:rgb(0%,0%,100%);fill-opacity:1;" d="M 136.996094 8.222656 C 136.40625 9.5 135.109375 11.488281 133.851562 12.777344 L 137.621094 13.71875 C 137.121094 11.992188 136.910156 9.625 136.996094 8.222656 "/>
<path style="fill:none;stroke-width:0.79701;stroke-linecap:butt;stroke-linejoin:miter;stroke:rgb(0%,0%,100%);stroke-opacity:1;stroke-miterlimit:10;" d="M 97.196795 10.800688 L 114.625437 19.515531 " transform="matrix(1.00006,0,0,-1,34.391123,40.621)"/>
<path style=" stroke:none;fill-rule:nonzero;fill:rgb(0%,0%,100%);fill-opacity:1;" d="M 153.195312 19.023438 C 151.84375 19.40625 149.488281 19.714844 147.691406 19.601562 L 149.429688 23.074219 C 150.414062 21.570312 152.074219 19.871094 153.195312 19.023438 "/>
<path style="fill:none;stroke-width:0.79701;stroke-linecap:butt;stroke-linejoin:miter;stroke:rgb(0%,0%,100%);stroke-opacity:1;stroke-miterlimit:10;" d="M 97.196795 10.800688 L 84.877222 19.011625 " transform="matrix(1.00006,0,0,-1,34.391123,40.621)"/>
<path style=" stroke:none;fill-rule:nonzero;fill:rgb(0%,0%,100%);fill-opacity:1;" d="M 115.394531 19.023438 C 116.398438 20.003906 117.835938 21.894531 118.625 23.511719 L 120.78125 20.277344 C 118.984375 20.171875 116.6875 19.574219 115.394531 19.023438 "/>
<path style="fill:none;stroke-width:0.79701;stroke-linecap:butt;stroke-linejoin:miter;stroke:rgb(0%,0%,100%);stroke-opacity:1;stroke-miterlimit:10;" d="M 97.196795 10.800688 L 97.196795 -0.738375 " transform="matrix(1.00006,0,0,-1,34.391123,40.621)"/>
<path style=" stroke:none;fill-rule:nonzero;fill:rgb(0%,0%,100%);fill-opacity:1;" d="M 131.59375 46.019531 C 131.851562 44.640625 132.628906 42.394531 133.535156 40.839844 L 129.652344 40.839844 C 130.558594 42.394531 131.335938 44.640625 131.59375 46.019531 "/>
<path style="fill:none;stroke-width:0.79701;stroke-linecap:butt;stroke-linejoin:miter;stroke:rgb(0%,0%,100%);stroke-opacity:1;stroke-miterlimit:10;" d="M 97.196795 10.800688 L 115.500384 -7.504 " transform="matrix(1.00006,0,0,-1,34.391123,40.621)"/>
<path style=" stroke:none;fill-rule:nonzero;fill:rgb(0%,0%,100%);fill-opacity:1;" d="M 153.195312 51.421875 C 152.402344 50.261719 151.363281 48.125 150.90625 46.382812 L 148.15625 49.132812 C 149.898438 49.589844 152.035156 50.625 153.195312 51.421875 "/>
<path style=" stroke:none;fill-rule:nonzero;fill:rgb(0%,0%,100%);fill-opacity:0.5;" d="M 109.992188 51.421875 L 109.992188 8.222656 L 153.195312 8.222656 L 153.195312 51.421875 Z M 109.992188 51.421875 "/>
<path style="fill:none;stroke-width:0.3985;stroke-linecap:butt;stroke-linejoin:miter;stroke:rgb(0%,0%,0%);stroke-opacity:1;stroke-miterlimit:10;" d="M -21.600781 10.80025 L 21.599751 10.80025 " transform="matrix(1.00006,0,0,-1,219.055203,41.019)"/>
<path style="fill:none;stroke-width:0.3985;stroke-linecap:butt;stroke-linejoin:miter;stroke:rgb(0%,0%,0%);stroke-opacity:1;stroke-miterlimit:10;" d="M -0.000514989 -10.801312 L -0.000514989 32.397906 " transform="matrix(1.00006,0,0,-1,219.055203,41.019)"/>
<path style="fill:none;stroke-width:0.79701;stroke-linecap:butt;stroke-linejoin:miter;stroke:rgb(0%,0%,100%);stroke-opacity:1;stroke-miterlimit:10;" d="M -0.000514989 10.80025 L 4.26876 27.874469 " transform="matrix(1.00006,0,0,-1,219.055203,41.019)"/>
<path style=" stroke:none;fill-rule:nonzero;fill:rgb(0%,0%,100%);fill-opacity:1;" d="M 224.457031 8.621094 C 223.867188 9.898438 222.570312 11.886719 221.3125 13.175781 L 225.082031 14.117188 C 224.582031 12.390625 224.371094 10.023438 224.457031 8.621094 "/>
<path style="fill:none;stroke-width:0.79701;stroke-linecap:butt;stroke-linejoin:miter;stroke:rgb(0%,0%,100%);stroke-opacity:1;stroke-miterlimit:10;" d="M -0.000514989 10.80025 L 17.428127 19.515094 " transform="matrix(1.00006,0,0,-1,219.055203,41.019)"/>
<path style=" stroke:none;fill-rule:nonzero;fill:rgb(0%,0%,100%);fill-opacity:1;" d="M 240.65625 19.417969 C 239.304688 19.804688 236.949219 20.113281 235.152344 20 L 236.890625 23.472656 C 237.875 21.96875 239.535156 20.269531 240.65625 19.417969 "/>
<path style="fill:none;stroke-width:0.79701;stroke-linecap:butt;stroke-linejoin:miter;stroke:rgb(0%,0%,100%);stroke-opacity:1;stroke-miterlimit:10;" d="M -0.000514989 10.80025 L -12.320088 19.015094 " transform="matrix(1.00006,0,0,-1,219.055203,41.019)"/>
<path style=" stroke:none;fill-rule:nonzero;fill:rgb(0%,0%,100%);fill-opacity:1;" d="M 202.855469 19.417969 C 203.859375 20.402344 205.296875 22.292969 206.085938 23.910156 L 208.242188 20.675781 C 206.445312 20.570312 204.148438 19.96875 202.855469 19.417969 "/>
<path style="fill:none;stroke-width:0.79701;stroke-linecap:butt;stroke-linejoin:miter;stroke:rgb(0%,0%,100%);stroke-opacity:1;stroke-miterlimit:10;" d="M -0.000514989 10.80025 L -0.000514989 -0.738812 " transform="matrix(1.00006,0,0,-1,219.055203,41.019)"/>
<path style=" stroke:none;fill-rule:nonzero;fill:rgb(0%,0%,100%);fill-opacity:1;" d="M 219.054688 46.417969 C 219.3125 45.039062 220.089844 42.792969 220.996094 41.238281 L 217.113281 41.238281 C 218.019531 42.792969 218.796875 45.039062 219.054688 46.417969 "/>
<path style="fill:none;stroke-width:0.79701;stroke-linecap:butt;stroke-linejoin:miter;stroke:rgb(0%,0%,100%);stroke-opacity:1;stroke-miterlimit:10;" d="M -0.000514989 10.80025 L 18.303074 -7.504437 " transform="matrix(1.00006,0,0,-1,219.055203,41.019)"/>
<path style=" stroke:none;fill-rule:nonzero;fill:rgb(0%,0%,100%);fill-opacity:1;" d="M 240.65625 51.820312 C 239.863281 50.660156 238.824219 48.523438 238.367188 46.78125 L 235.617188 49.527344 C 237.359375 49.988281 239.496094 51.023438 240.65625 51.820312 "/>
<path style="fill:none;stroke-width:0.3985;stroke-linecap:butt;stroke-linejoin:miter;stroke:rgb(0%,0%,0%);stroke-opacity:1;stroke-dasharray:2.98883,2.98883;stroke-miterlimit:10;" d="M 32.399885 32.397906 C 46.988853 40.823688 61.007543 40.823688 72.491229 34.190875 " transform="matrix(1.00006,0,0,-1,219.055203,41.019)"/>
<path style=" stroke:none;fill-rule:nonzero;fill:rgb(0%,0%,0%);fill-opacity:1;" d="M 294.65625 8.621094 C 293.835938 7.914062 292.640625 6.535156 291.953125 5.332031 L 290.460938 7.921875 C 291.84375 7.914062 293.636719 8.261719 294.65625 8.621094 "/>
<path style="fill:none;stroke-width:0.3985;stroke-linecap:butt;stroke-linejoin:miter;stroke:rgb(0%,0%,0%);stroke-opacity:1;stroke-miterlimit:10;" d="M 97.196778 -0.00053125 L 129.597178 -0.00053125 " transform="matrix(1.00006,0,0,-1,219.055203,41.019)"/>
<path style="fill:none;stroke-width:0.3985;stroke-linecap:butt;stroke-linejoin:miter;stroke:rgb(0%,0%,0%);stroke-opacity:1;stroke-miterlimit:10;" d="M 97.196778 -0.00053125 L 97.196778 32.397906 " transform="matrix(1.00006,0,0,-1,219.055203,41.019)"/>
<path style="fill:none;stroke-width:0.3985;stroke-linecap:butt;stroke-linejoin:miter;stroke:rgb(0%,0%,0%);stroke-opacity:1;stroke-miterlimit:10;" d="M 97.196778 -0.00053125 L 75.596512 -10.801312 " transform="matrix(1.00006,0,0,-1,219.055203,41.019)"/>
<path style="fill:none;stroke-width:0.79701;stroke-linecap:butt;stroke-linejoin:miter;stroke:rgb(0%,0%,100%);stroke-opacity:1;stroke-miterlimit:10;" d="M 97.196778 -0.00053125 L 101.122324 11.776813 " transform="matrix(1.00006,0,0,-1,219.055203,41.019)"/>
<path style=" stroke:none;fill-rule:nonzero;fill:rgb(0%,0%,100%);fill-opacity:1;" d="M 321.660156 24.820312 C 320.976562 26.046875 319.527344 27.933594 318.175781 29.121094 L 321.863281 30.347656 C 321.496094 28.585938 321.46875 26.210938 321.660156 24.820312 "/>
<path style="fill:none;stroke-width:0.79701;stroke-linecap:butt;stroke-linejoin:miter;stroke:rgb(0%,0%,100%);stroke-opacity:1;stroke-miterlimit:10;" d="M 97.196778 -0.00053125 L 114.62542 8.714313 " transform="matrix(1.00006,0,0,-1,219.055203,41.019)"/>
<path style=" stroke:none;fill-rule:nonzero;fill:rgb(0%,0%,100%);fill-opacity:1;" d="M 337.859375 30.21875 C 336.507812 30.605469 334.152344 30.914062 332.355469 30.796875 L 334.09375 34.273438 C 335.078125 32.769531 336.738281 31.070312 337.859375 30.21875 "/>
<path style="fill:none;stroke-width:0.79701;stroke-linecap:butt;stroke-linejoin:miter;stroke:rgb(0%,0%,100%);stroke-opacity:1;stroke-miterlimit:10;" d="M 97.196778 -0.00053125 L 74.526263 9.069781 " transform="matrix(1.00006,0,0,-1,219.055203,41.019)"/>
<path style=" stroke:none;fill-rule:nonzero;fill:rgb(0%,0%,100%);fill-opacity:1;" d="M 289.257812 30.21875 C 290.445312 30.972656 292.238281 32.527344 293.347656 33.945312 L 294.789062 30.339844 C 293.007812 30.605469 290.636719 30.492188 289.257812 30.21875 "/>
<path style="fill:none;stroke-width:0.79701;stroke-linecap:butt;stroke-linejoin:miter;stroke:rgb(0%,0%,100%);stroke-opacity:1;stroke-miterlimit:10;" d="M 97.196778 -0.00053125 L 93.271232 -11.777875 " transform="matrix(1.00006,0,0,-1,219.055203,41.019)"/>
<path style=" stroke:none;fill-rule:nonzero;fill:rgb(0%,0%,100%);fill-opacity:1;" d="M 310.859375 57.21875 C 311.539062 55.988281 312.988281 54.105469 314.339844 52.917969 L 310.652344 51.691406 C 311.023438 53.449219 311.050781 55.824219 310.859375 57.21875 "/>
<path style="fill:none;stroke-width:0.79701;stroke-linecap:butt;stroke-linejoin:miter;stroke:rgb(0%,0%,100%);stroke-opacity:1;stroke-miterlimit:10;" d="M 97.196778 -0.00053125 L 119.62512 -4.484906 " transform="matrix(1.00006,0,0,-1,219.055203,41.019)"/>
<path style=" stroke:none;fill-rule:nonzero;fill:rgb(0%,0%,100%);fill-opacity:1;" d="M 343.257812 46.417969 C 341.957031 45.894531 339.90625 44.691406 338.558594 43.496094 L 337.796875 47.308594 C 339.5 46.722656 341.855469 46.402344 343.257812 46.417969 "/>
<path style=" stroke:none;fill-rule:nonzero;fill:rgb(0%,0%,100%);fill-opacity:0.5;" d="M 294.65625 62.617188 L 348.660156 51.820312 L 337.859375 19.417969 L 283.855469 30.21875 L 294.65625 62.617188 "/>
</g>
</svg>
