<?xml version="1.0" encoding="UTF-8"?>
<svg xmlns="http://www.w3.org/2000/svg" xmlns:xlink="http://www.w3.org/1999/xlink" width="296pt" height="151pt" viewBox="0 0 296 151" version="1.1">
<g id="surface1">
<path style="fill:none;stroke-width:0.3985;stroke-linecap:butt;stroke-linejoin:miter;stroke:rgb(0%,0%,0%);stroke-opacity:1;stroke-miterlimit:10;" d="M -56.293381 0.00187216 L 56.294142 0.00187216 " transform="matrix(1.00009,0,0,-1.00006,58.489854,92.513591)"/>
<path style="fill:none;stroke-width:0.3985;stroke-linecap:round;stroke-linejoin:round;stroke:rgb(0%,0%,0%);stroke-opacity:1;stroke-miterlimit:10;" d="M -2.071894 2.392515 C -1.693022 0.955102 -0.849348 0.279361 -0.00176827 -0.00187216 C -0.849348 -0.279199 -1.693022 -0.95494 -2.071894 -2.392354 " transform="matrix(-1.00009,0,0,1.00006,1.990419,92.513591)"/>
<path style="fill:none;stroke-width:0.3985;stroke-linecap:round;stroke-linejoin:round;stroke:rgb(0%,0%,0%);stroke-opacity:1;stroke-miterlimit:10;" d="M -2.071133 2.392354 C -1.692261 0.95494 -0.848587 0.279199 -0.00100671 0.00187216 C -0.848587 -0.279361 -1.692261 -0.955102 -2.071133 -2.392515 " transform="matrix(1.00009,0,0,-1.00006,114.989288,92.513591)"/>
<path style="fill:none;stroke-width:0.3985;stroke-linecap:butt;stroke-linejoin:miter;stroke:rgb(0%,0%,0%);stroke-opacity:1;stroke-miterlimit:10;" d="M -0.00157217 -56.295531 L -0.00157217 56.29537 " transform="matrix(1.00009,0,0,-1.00006,58.489854,92.513591)"/>
<path style="fill:none;stroke-width:0.3985;stroke-linecap:round;stroke-linejoin:round;stroke:rgb(0%,0%,0%);stroke-opacity:1;stroke-miterlimit:10;" d="M -2.073706 2.392744 C -1.694823 0.955373 -0.851123 0.279653 0.000388046 -0.00157217 C -0.851123 -0.278891 -1.694823 -0.954611 -2.073706 -2.391982 " transform="matrix(0,1.00006,1.00009,0,58.489854,149.011331)"/>
<path style="fill:none;stroke-width:0.3985;stroke-linecap:round;stroke-linejoin:round;stroke:rgb(0%,0%,0%);stroke-opacity:1;stroke-miterlimit:10;" d="M -2.073868 2.391982 C -1.694984 0.954611 -0.851285 0.278891 0.000226345 0.00157217 C -0.851285 -0.279653 -1.694984 -0.955373 -2.073868 -2.392744 " transform="matrix(0,-1.00006,-1.00009,0,58.489854,36.015851)"/>
<path style="fill:none;stroke-width:0.3985;stroke-linecap:butt;stroke-linejoin:miter;stroke:rgb(50%,50%,100%);stroke-opacity:1;stroke-miterlimit:10;" d="M 28.347439 -56.693945 L -28.346677 56.693783 " transform="matrix(1.00009,0,0,-1.00006,58.489854,92.513591)"/>
<path style="fill:none;stroke-width:0.79701;stroke-linecap:butt;stroke-linejoin:miter;stroke:rgb(0%,0%,100%);stroke-opacity:1;stroke-miterlimit:10;" d="M -0.00157217 0.00187216 L 13.817497 -27.633188 " transform="matrix(1.00009,0,0,-1.00006,58.489854,92.513591)"/>
<path style="fill:none;stroke-width:0.79701;stroke-linecap:round;stroke-linejoin:round;stroke:rgb(0%,0%,100%);stroke-opacity:1;stroke-miterlimit:10;" d="M -2.551268 3.111984 C -2.083038 1.244562 -1.047087 0.364136 -0.00241783 -0.000957953 C -1.047066 -0.360823 -2.082963 -1.244755 -2.549335 -3.112183 " transform="matrix(0.44721,0.894434,0.89446,-0.447197,72.486313,120.50564)"/>
<path style="fill:none;stroke-width:0.3985;stroke-linecap:butt;stroke-linejoin:miter;stroke:rgb(0%,0%,0%);stroke-opacity:1;stroke-miterlimit:10;" d="M 0.00161602 0.00050085 L -58.571237 -33.817783 " transform="matrix(1.00009,0,0,-1.00006,206.756196,86.844251)"/>
<path style="fill:none;stroke-width:0.3985;stroke-linecap:round;stroke-linejoin:round;stroke:rgb(0%,0%,0%);stroke-opacity:1;stroke-miterlimit:10;" d="M -2.072965 2.390629 C -1.691763 0.95726 -0.852265 0.27864 0.000636049 -0.00178412 C -0.848931 -0.278058 -1.693034 -0.958909 -2.072952 -2.390359 " transform="matrix(-0.866088,0.50001,0.500025,0.866062,148.005349,120.762946)"/>
<path style="fill:none;stroke-width:0.3985;stroke-linecap:butt;stroke-linejoin:miter;stroke:rgb(0%,0%,0%);stroke-opacity:1;stroke-miterlimit:10;" d="M 0.00161602 0.00050085 L 84.642436 0.00050085 " transform="matrix(1.00009,0,0,-1.00006,206.756196,86.844251)"/>
<path style="fill:none;stroke-width:0.3985;stroke-linecap:round;stroke-linejoin:round;stroke:rgb(0%,0%,0%);stroke-opacity:1;stroke-miterlimit:10;" d="M -2.073565 2.390982 C -1.694693 0.957475 -0.851019 0.277828 0.000466673 0.00050085 C -0.851019 -0.280732 -1.694693 -0.956473 -2.073565 -2.389981 " transform="matrix(1.00009,0,0,-1.00006,291.605002,86.844251)"/>
<path style="fill:none;stroke-width:0.3985;stroke-linecap:butt;stroke-linejoin:miter;stroke:rgb(0%,0%,0%);stroke-opacity:1;stroke-miterlimit:10;" d="M 0.00161602 0.00050085 L 0.00161602 84.64386 " transform="matrix(1.00009,0,0,-1.00006,206.756196,86.844251)"/>
<path style="fill:none;stroke-width:0.3985;stroke-linecap:round;stroke-linejoin:round;stroke:rgb(0%,0%,0%);stroke-opacity:1;stroke-miterlimit:10;" d="M -2.072198 2.3927 C -1.693314 0.955329 -0.849615 0.279609 0.00189655 -0.00161602 C -0.849615 -0.278935 -1.693314 -0.954655 -2.072198 -2.392026 " transform="matrix(0,-1.00006,-1.00009,0,206.756196,1.99799)"/>
<path style="fill-rule:nonzero;fill:rgb(94.999695%,79.998779%,84.999084%);fill-opacity:0.5;stroke-width:0.3985;stroke-linecap:butt;stroke-linejoin:miter;stroke:rgb(0%,0%,0%);stroke-opacity:1;stroke-miterlimit:10;" d="M -8.708538 39.68562 L -87.263968 -62.362945 L 8.707864 -39.684618 L 87.263294 62.363947 L -8.708538 39.68562 " transform="matrix(1.00009,0,0,-1.00006,206.756196,86.844251)"/>
<path style="fill:none;stroke-width:0.79701;stroke-linecap:butt;stroke-linejoin:miter;stroke:rgb(0%,0%,100%);stroke-opacity:1;stroke-miterlimit:10;" d="M 0.00161602 0.00050085 L -23.21895 -5.487451 " transform="matrix(1.00009,0,0,-1.00006,206.756196,86.844251)"/>
<path style="fill:none;stroke-width:0.79701;stroke-linecap:round;stroke-linejoin:round;stroke:rgb(0%,0%,100%);stroke-opacity:1;stroke-miterlimit:10;" d="M -2.551771 3.111102 C -2.08606 1.243009 -1.045719 0.363017 0.000250983 -0.000522254 C -1.044834 -0.363695 -2.084143 -1.246016 -2.54888 -3.111013 " transform="matrix(-0.973228,0.229944,0.229951,0.973198,183.148802,92.422326)"/>
<path style="fill:none;stroke-width:0.79701;stroke-linecap:butt;stroke-linejoin:miter;stroke:rgb(100%,0%,0%);stroke-opacity:1;stroke-miterlimit:10;" d="M 0.00161602 0.00050085 L 19.152236 24.88182 " transform="matrix(1.00009,0,0,-1.00006,206.756196,86.844251)"/>
<path style="fill:none;stroke-width:0.79701;stroke-linecap:round;stroke-linejoin:round;stroke:rgb(100%,0%,0%);stroke-opacity:1;stroke-miterlimit:10;" d="M -2.550535 3.111374 C -2.083354 1.242917 -1.047286 0.364468 0.000280796 0.00259897 C -1.044426 -0.362879 -2.086582 -1.243979 -2.552292 -3.110866 " transform="matrix(0.610005,-0.792418,-0.792441,-0.609987,226.154232,61.646339)"/>
</g>
</svg>
