<?xml version="1.0" encoding="UTF-8"?>
<svg xmlns="http://www.w3.org/2000/svg" xmlns:xlink="http://www.w3.org/1999/xlink" width="230pt" height="230pt" viewBox="0 0 230 230" version="1.1">
<g id="surface1">
<path style="fill:none;stroke-width:0.3985;stroke-linecap:butt;stroke-linejoin:miter;stroke:rgb(0%,0%,0%);stroke-opacity:1;stroke-miterlimit:10;" d="M -112.9895 -0.00151621 L 112.987063 -0.00151621 " transform="matrix(1,0,0,-1.00002,115.177,115.185984)"/>
<path style="fill:none;stroke-width:0.3985;stroke-linecap:round;stroke-linejoin:round;stroke:rgb(0%,0%,0%);stroke-opacity:1;stroke-miterlimit:10;" d="M -2.07347 2.392093 C -1.694564 0.954622 -0.850814 0.278854 0.00074875 0.00151621 C -0.850814 -0.279728 -1.694564 -0.955496 -2.07347 -2.392967 " transform="matrix(-1,0,0,1.00002,1.98903,115.185984)"/>
<path style="fill:none;stroke-width:0.3985;stroke-linecap:round;stroke-linejoin:round;stroke:rgb(0%,0%,0%);stroke-opacity:1;stroke-miterlimit:10;" d="M -2.072001 2.392967 C -1.693095 0.955496 -0.849345 0.279728 -0.00168875 -0.00151621 C -0.849345 -0.278854 -1.693095 -0.954622 -2.072001 -2.392093 " transform="matrix(1,0,0,-1.00002,228.36497,115.185984)"/>
<path style="fill:none;stroke-width:0.3985;stroke-linecap:butt;stroke-linejoin:miter;stroke:rgb(0%,0%,0%);stroke-opacity:1;stroke-miterlimit:10;" d="M -0.00121875 -112.987538 L -0.00121875 112.988411 " transform="matrix(1,0,0,-1.00002,115.177,115.185984)"/>
<path style="fill:none;stroke-width:0.3985;stroke-linecap:round;stroke-linejoin:round;stroke:rgb(0%,0%,0%);stroke-opacity:1;stroke-miterlimit:10;" d="M -2.071489 2.389406 C -1.69259 0.955813 -0.848857 0.280031 -0.0012175 -0.00121875 C -0.848857 -0.278562 -1.69259 -0.95825 -2.071489 -2.391844 " transform="matrix(0,1.00002,1,0,115.177,228.376218)"/>
<path style="fill:none;stroke-width:0.3985;stroke-linecap:round;stroke-linejoin:round;stroke:rgb(0%,0%,0%);stroke-opacity:1;stroke-miterlimit:10;" d="M -2.070615 2.391844 C -1.691716 0.95825 -0.851889 0.278562 -0.000343743 0.00121875 C -0.851889 -0.280031 -1.691716 -0.955813 -2.070615 -2.389406 " transform="matrix(0,-1.00002,-1,0,115.177,1.99575)"/>
</g>
</svg>
