<?xml version="1.0" encoding="UTF-8"?>
<svg xmlns="http://www.w3.org/2000/svg" xmlns:xlink="http://www.w3.org/1999/xlink" width="352pt" height="297pt" viewBox="0 0 352 297" version="1.1">
<g id="surface1">
<path style="fill:none;stroke-width:0.3985;stroke-linecap:butt;stroke-linejoin:miter;stroke:rgb(0%,0%,0%);stroke-opacity:1;stroke-miterlimit:10;" d="M -0.000125 -0.00090625 L -117.492313 -67.832937 " transform="matrix(1,0,0,-1,176.422,170.878)"/>
<path style="fill:none;stroke-width:0.3985;stroke-linecap:round;stroke-linejoin:round;stroke:rgb(0%,0%,0%);stroke-opacity:1;stroke-miterlimit:10;" d="M -2.074537 2.390316 C -1.693285 0.956845 -0.848372 0.279599 0.00121953 0.00109729 C -0.850368 -0.278567 -1.692578 -0.95607 -2.074462 -2.390995 " transform="matrix(-0.86601,0.49998,0.49998,0.86601,58.75832,238.81094)"/>
<path style="fill:none;stroke-width:0.3985;stroke-linecap:butt;stroke-linejoin:miter;stroke:rgb(0%,0%,0%);stroke-opacity:1;stroke-miterlimit:10;" d="M -0.000125 -0.00090625 L 169.683469 -0.00090625 " transform="matrix(1,0,0,-1,176.422,170.878)"/>
<path style="fill:none;stroke-width:0.3985;stroke-linecap:round;stroke-linejoin:round;stroke:rgb(0%,0%,0%);stroke-opacity:1;stroke-miterlimit:10;" d="M -2.073121 2.389719 C -1.694215 0.956125 -0.850465 0.280344 0.0010975 -0.00090625 C -0.850465 -0.27825 -1.694215 -0.957937 -2.073121 -2.391531 " transform="matrix(1,0,0,-1,346.30359,170.878)"/>
<path style="fill:none;stroke-width:0.3985;stroke-linecap:butt;stroke-linejoin:miter;stroke:rgb(0%,0%,0%);stroke-opacity:1;stroke-miterlimit:10;" d="M -0.000125 -0.00090625 L -0.000125 169.682688 " transform="matrix(1,0,0,-1,176.422,170.878)"/>
<path style="fill:none;stroke-width:0.3985;stroke-linecap:round;stroke-linejoin:round;stroke:rgb(0%,0%,0%);stroke-opacity:1;stroke-miterlimit:10;" d="M -2.073903 2.39075 C -1.694996 0.957156 -0.851246 0.277469 0.00031625 0.000125 C -0.851246 -0.277219 -1.694996 -0.956906 -2.073903 -2.3905 " transform="matrix(0,-1,-1,0,176.422,0.99641)"/>
<path style="fill-rule:nonzero;fill:rgb(94.999695%,79.998779%,84.999084%);fill-opacity:0.5;stroke-width:0.3985;stroke-linecap:butt;stroke-linejoin:miter;stroke:rgb(0%,0%,0%);stroke-opacity:1;stroke-miterlimit:10;" d="M -17.414188 79.370188 L -174.531375 -124.727469 L 17.413937 -79.372 L 174.531125 124.725656 L -17.414188 79.370188 " transform="matrix(1,0,0,-1,176.422,170.878)"/>
<path style="fill:none;stroke-width:0.79701;stroke-linecap:butt;stroke-linejoin:miter;stroke:rgb(0%,0%,100%);stroke-opacity:1;stroke-miterlimit:10;" d="M -0.000125 -0.00090625 L -47.211063 -11.157156 " transform="matrix(1,0,0,-1,176.422,170.878)"/>
<path style="fill:none;stroke-width:0.79701;stroke-linecap:round;stroke-linejoin:round;stroke:rgb(0%,0%,100%);stroke-opacity:1;stroke-miterlimit:10;" d="M -2.54907 3.110944 C -2.083305 1.242733 -1.046667 0.363577 -0.000602906 0.00000886425 C -1.045778 -0.363179 -2.085173 -1.245548 -2.549938 -3.110656 " transform="matrix(-0.97314,0.22993,0.22993,0.97314,128.82363,182.12513)"/>
<path style="fill:none;stroke-width:0.79701;stroke-linecap:butt;stroke-linejoin:miter;stroke:rgb(100%,0%,0%);stroke-opacity:1;stroke-miterlimit:10;" d="M -0.000125 -0.00090625 L 38.792844 50.393625 " transform="matrix(1,0,0,-1,176.422,170.878)"/>
<path style="fill:none;stroke-width:0.79701;stroke-linecap:round;stroke-linejoin:round;stroke:rgb(100%,0%,0%);stroke-opacity:1;stroke-miterlimit:10;" d="M -2.55026 3.110452 C -2.085401 1.244937 -1.046864 0.363309 0.000782355 0.00139575 C -1.046377 -0.361001 -2.086211 -1.245251 -2.548831 -3.109894 " transform="matrix(0.60995,-0.79237,-0.79237,-0.60995,215.45766,120.16944)"/>
</g>
</svg>
