<?xml version="1.0" encoding="UTF-8"?>
<svg xmlns="http://www.w3.org/2000/svg" xmlns:xlink="http://www.w3.org/1999/xlink" width="295pt" height="150pt" viewBox="0 0 295 150" version="1.1">
<g id="surface1">
<path style="fill:none;stroke-width:0.3985;stroke-linecap:butt;stroke-linejoin:miter;stroke:rgb(0%,0%,0%);stroke-opacity:1;stroke-miterlimit:10;" d="M -56.294031 0.0001875 L 56.295812 0.0001875 " transform="matrix(1,0,0,-1,57.587,91.508)"/>
<path style="fill:none;stroke-width:0.3985;stroke-linecap:round;stroke-linejoin:round;stroke:rgb(0%,0%,0%);stroke-opacity:1;stroke-miterlimit:10;" d="M -2.071413 2.390438 C -1.692506 0.956844 -0.848756 0.277156 -0.0011 -0.0001875 C -0.848756 -0.277531 -1.692506 -0.957219 -2.071413 -2.390812 " transform="matrix(-1,0,0,1,1.09265,91.508)"/>
<path style="fill:none;stroke-width:0.3985;stroke-linecap:round;stroke-linejoin:round;stroke:rgb(0%,0%,0%);stroke-opacity:1;stroke-miterlimit:10;" d="M -2.073538 2.390812 C -1.694631 0.957219 -0.850881 0.277531 0.00068125 0.0001875 C -0.850881 -0.277156 -1.694631 -0.956844 -2.073538 -2.390438 " transform="matrix(1,0,0,-1,114.08135,91.508)"/>
<path style="fill:none;stroke-width:0.3985;stroke-linecap:butt;stroke-linejoin:miter;stroke:rgb(0%,0%,0%);stroke-opacity:1;stroke-miterlimit:10;" d="M -0.0010625 -56.296688 L -0.0010625 56.293156 " transform="matrix(1,0,0,-1,57.587,91.508)"/>
<path style="fill:none;stroke-width:0.3985;stroke-linecap:round;stroke-linejoin:round;stroke:rgb(0%,0%,0%);stroke-opacity:1;stroke-miterlimit:10;" d="M -2.072663 2.389562 C -1.693756 0.955969 -0.850006 0.280187 0.00155625 -0.0010625 C -0.850006 -0.278406 -1.693756 -0.958094 -2.072663 -2.391688 " transform="matrix(0,1,1,0,57.587,148.00235)"/>
<path style="fill:none;stroke-width:0.3985;stroke-linecap:round;stroke-linejoin:round;stroke:rgb(0%,0%,0%);stroke-opacity:1;stroke-miterlimit:10;" d="M -2.072288 2.391688 C -1.693381 0.958094 -0.849631 0.278406 0.00193125 0.0010625 C -0.849631 -0.280187 -1.693381 -0.955969 -2.072288 -2.389562 " transform="matrix(0,-1,-1,0,57.587,35.01365)"/>
<path style="fill:none;stroke-width:0.3985;stroke-linecap:butt;stroke-linejoin:miter;stroke:rgb(50%,50%,100%);stroke-opacity:1;stroke-miterlimit:10;" d="M 28.346594 -56.695125 L -28.348719 56.6955 " transform="matrix(1,0,0,-1,57.587,91.508)"/>
<path style="fill:none;stroke-width:0.79701;stroke-linecap:butt;stroke-linejoin:miter;stroke:rgb(0%,0%,100%);stroke-opacity:1;stroke-miterlimit:10;" d="M -0.0010625 0.0001875 L 13.815344 -27.632625 " transform="matrix(1,0,0,-1,57.587,91.508)"/>
<path style="fill:none;stroke-width:0.79701;stroke-linecap:round;stroke-linejoin:round;stroke:rgb(0%,0%,100%);stroke-opacity:1;stroke-miterlimit:10;" d="M -2.55284 3.110545 C -2.084601 1.242972 -1.045098 0.360738 0.00138255 -0.000879922 C -1.045085 -0.364282 -2.082809 -1.24306 -2.549234 -3.110649 " transform="matrix(0.44717,0.89438,0.89438,-0.44717,71.5822,119.49837)"/>
<path style="fill:none;stroke-width:0.3985;stroke-linecap:butt;stroke-linejoin:miter;stroke:rgb(0%,0%,0%);stroke-opacity:1;stroke-miterlimit:10;" d="M -0.00015625 -0.00084375 L -58.574375 -33.81725 " transform="matrix(1,0,0,-1,205.84,85.839)"/>
<path style="fill:none;stroke-width:0.3985;stroke-linecap:round;stroke-linejoin:round;stroke:rgb(0%,0%,0%);stroke-opacity:1;stroke-miterlimit:10;" d="M -2.074083 2.390737 C -1.692831 0.957267 -0.849871 0.276638 -0.000279306 -0.00186384 C -0.849913 -0.278145 -1.692124 -0.955648 -2.074008 -2.390573 " transform="matrix(-0.86601,0.49998,0.49998,0.86601,147.09444,119.75566)"/>
<path style="fill:none;stroke-width:0.3985;stroke-linecap:butt;stroke-linejoin:miter;stroke:rgb(0%,0%,0%);stroke-opacity:1;stroke-miterlimit:10;" d="M -0.00015625 -0.00084375 L 84.640469 -0.00084375 " transform="matrix(1,0,0,-1,205.84,85.839)"/>
<path style="fill:none;stroke-width:0.3985;stroke-linecap:round;stroke-linejoin:round;stroke:rgb(0%,0%,0%);stroke-opacity:1;stroke-miterlimit:10;" d="M -2.071795 2.389781 C -1.692889 0.956187 -0.849139 0.280406 -0.0014825 -0.00084375 C -0.849139 -0.278188 -1.692889 -0.957875 -2.071795 -2.391469 " transform="matrix(1,0,0,-1,290.68117,85.839)"/>
<path style="fill:none;stroke-width:0.3985;stroke-linecap:butt;stroke-linejoin:miter;stroke:rgb(0%,0%,0%);stroke-opacity:1;stroke-miterlimit:10;" d="M -0.00015625 -0.00084375 L -0.00015625 84.643687 " transform="matrix(1,0,0,-1,205.84,85.839)"/>
<path style="fill:none;stroke-width:0.3985;stroke-linecap:round;stroke-linejoin:round;stroke:rgb(0%,0%,0%);stroke-opacity:1;stroke-miterlimit:10;" d="M -2.072483 2.390781 C -1.693576 0.957188 -0.849826 0.2775 0.00173625 0.00015625 C -0.849826 -0.277187 -1.693576 -0.956875 -2.072483 -2.390469 " transform="matrix(0,-1,-1,0,205.84,0.99783)"/>
<path style="fill-rule:nonzero;fill:rgb(94.999695%,79.998779%,84.999084%);fill-opacity:0.5;stroke-width:0.3985;stroke-linecap:butt;stroke-linejoin:miter;stroke:rgb(0%,0%,0%);stroke-opacity:1;stroke-miterlimit:10;" d="M -8.707188 39.686656 L -87.265781 -62.364125 L 8.706875 -39.684438 L 87.265469 62.362437 L -8.707188 39.686656 " transform="matrix(1,0,0,-1,205.84,85.839)"/>
<path style="fill:none;stroke-width:0.79701;stroke-linecap:butt;stroke-linejoin:miter;stroke:rgb(0%,0%,100%);stroke-opacity:1;stroke-miterlimit:10;" d="M -0.00015625 -0.00084375 L -23.218906 -5.485219 " transform="matrix(1,0,0,-1,205.84,85.839)"/>
<path style="fill:none;stroke-width:0.79701;stroke-linecap:round;stroke-linejoin:round;stroke:rgb(0%,0%,100%);stroke-opacity:1;stroke-miterlimit:10;" d="M -2.551641 3.112948 C -2.085876 1.244737 -1.045436 0.364683 0.000628073 0.00111427 C -1.044547 -0.362074 -2.083942 -1.244442 -2.548707 -3.109551 " transform="matrix(-0.97314,0.22993,0.22993,0.97314,182.23473,91.41674)"/>
<path style="fill:none;stroke-width:0.79701;stroke-linecap:butt;stroke-linejoin:miter;stroke:rgb(100%,0%,0%);stroke-opacity:1;stroke-miterlimit:10;" d="M -0.00015625 -0.00084375 L 19.152187 24.881969 " transform="matrix(1,0,0,-1,205.84,85.839)"/>
<path style="fill:none;stroke-width:0.79701;stroke-linecap:round;stroke-linejoin:round;stroke:rgb(100%,0%,0%);stroke-opacity:1;stroke-miterlimit:10;" d="M -2.550645 3.111779 C -2.083404 1.243168 -1.044867 0.36154 -0.00269862 0.00033946 C -1.044379 -0.36277 -2.086596 -1.243924 -2.552312 -3.110951 " transform="matrix(0.60995,-0.79237,-0.79237,-0.60995,225.23629,60.6426)"/>
</g>
</svg>
