<?xml version="1.0" encoding="UTF-8"?>
<svg xmlns="http://www.w3.org/2000/svg" xmlns:xlink="http://www.w3.org/1999/xlink" width="349pt" height="63pt" viewBox="0 0 349 63" version="1.1">
<g id="surface1">
<path style="fill:none;stroke-width:0.3985;stroke-linecap:butt;stroke-linejoin:miter;stroke:rgb(0%,0%,0%);stroke-opacity:1;stroke-miterlimit:10;" d="M 0.0001875 -0.00009375 L 32.398625 -0.00009375 " transform="matrix(1,0,0,-1,33.492,40.621)"/>
<path style="fill:none;stroke-width:0.3985;stroke-linecap:butt;stroke-linejoin:miter;stroke:rgb(0%,0%,0%);stroke-opacity:1;stroke-miterlimit:10;" d="M 0.0001875 -0.00009375 L 0.0001875 32.398344 " transform="matrix(1,0,0,-1,33.492,40.621)"/>
<path style="fill:none;stroke-width:0.3985;stroke-linecap:butt;stroke-linejoin:miter;stroke:rgb(0%,0%,0%);stroke-opacity:1;stroke-miterlimit:10;" d="M 0.0001875 -0.00009375 L -21.597469 -10.800875 " transform="matrix(1,0,0,-1,33.492,40.621)"/>
<path style="fill:none;stroke-width:0.79701;stroke-linecap:butt;stroke-linejoin:miter;stroke:rgb(0%,0%,100%);stroke-opacity:1;stroke-miterlimit:10;" d="M 0.0001875 -0.00009375 L 17.429875 8.71475 " transform="matrix(1,0,0,-1,33.492,40.621)"/>
<path style=" stroke:none;fill-rule:nonzero;fill:rgb(0%,0%,100%);fill-opacity:1;" d="M 55.089844 29.820312 C 53.738281 30.207031 51.386719 30.515625 49.589844 30.402344 L 51.328125 33.875 C 52.3125 32.371094 53.972656 30.671875 55.089844 29.820312 "/>
<path style="fill:none;stroke-width:0.79701;stroke-linecap:butt;stroke-linejoin:miter;stroke:rgb(0%,0%,100%);stroke-opacity:1;stroke-miterlimit:10;" d="M 0.0001875 -0.00009375 L 8.715031 17.429594 " transform="matrix(1,0,0,-1,33.492,40.621)"/>
<path style=" stroke:none;fill-rule:nonzero;fill:rgb(0%,0%,100%);fill-opacity:1;" d="M 44.292969 19.023438 C 43.441406 20.140625 41.742188 21.800781 40.238281 22.785156 L 43.710938 24.523438 C 43.597656 22.726562 43.90625 20.371094 44.292969 19.023438 "/>
<path style="fill:none;stroke-width:0.79701;stroke-linecap:butt;stroke-linejoin:miter;stroke:rgb(0%,0%,100%);stroke-opacity:1;stroke-miterlimit:10;" d="M 0.0001875 -0.00009375 L 0.0001875 16.937406 " transform="matrix(1,0,0,-1,33.492,40.621)"/>
<path style=" stroke:none;fill-rule:nonzero;fill:rgb(0%,0%,100%);fill-opacity:1;" d="M 33.492188 19.023438 C 33.234375 20.402344 32.457031 22.648438 31.550781 24.203125 L 35.433594 24.203125 C 34.527344 22.648438 33.75 20.402344 33.492188 19.023438 "/>
<path style="fill:none;stroke-width:0.79701;stroke-linecap:butt;stroke-linejoin:miter;stroke:rgb(0%,0%,100%);stroke-opacity:1;stroke-miterlimit:10;" d="M 0.0001875 -0.00009375 L 7.504094 -7.504 " transform="matrix(1,0,0,-1,33.492,40.621)"/>
<path style=" stroke:none;fill-rule:nonzero;fill:rgb(0%,0%,100%);fill-opacity:1;" d="M 44.292969 51.421875 C 43.496094 50.261719 42.460938 48.125 42.003906 46.382812 L 39.253906 49.132812 C 40.996094 49.589844 43.132812 50.625 44.292969 51.421875 "/>
<path style="fill:none;stroke-width:0.79701;stroke-linecap:butt;stroke-linejoin:miter;stroke:rgb(0%,0%,100%);stroke-opacity:1;stroke-miterlimit:10;" d="M 0.0001875 -0.00009375 L -19.011531 28.519438 " transform="matrix(1,0,0,-1,33.492,40.621)"/>
<path style=" stroke:none;fill-rule:nonzero;fill:rgb(0%,0%,100%);fill-opacity:1;" d="M 11.894531 8.222656 C 12.445312 9.515625 13.042969 11.8125 13.148438 13.609375 L 16.382812 11.453125 C 14.765625 10.664062 12.875 9.226562 11.894531 8.222656 "/>
<path style="fill:none;stroke-width:0.79701;stroke-linecap:butt;stroke-linejoin:miter;stroke:rgb(0%,0%,100%);stroke-opacity:1;stroke-miterlimit:10;" d="M 0.0001875 -0.00009375 L -28.519344 -19.011812 " transform="matrix(1,0,0,-1,33.492,40.621)"/>
<path style=" stroke:none;fill-rule:nonzero;fill:rgb(0%,0%,100%);fill-opacity:1;" d="M 1.09375 62.21875 C 2.386719 61.667969 4.683594 61.070312 6.480469 60.964844 L 4.324219 57.730469 C 3.535156 59.347656 2.097656 61.238281 1.09375 62.21875 "/>
<path style="fill:none;stroke-width:0.3985;stroke-linecap:butt;stroke-linejoin:miter;stroke:rgb(0%,0%,0%);stroke-opacity:1;stroke-dasharray:2.98883,2.98883;stroke-miterlimit:10;" d="M 32.398625 32.398344 C 46.988469 40.824125 61.008 40.824125 72.492375 34.191313 " transform="matrix(1,0,0,-1,33.492,40.621)"/>
<path style=" stroke:none;fill-rule:nonzero;fill:rgb(0%,0%,0%);fill-opacity:1;" d="M 109.089844 8.222656 C 108.269531 7.519531 107.074219 6.136719 106.386719 4.933594 L 104.890625 7.523438 C 106.277344 7.515625 108.070312 7.863281 109.089844 8.222656 "/>
<path style="fill:none;stroke-width:0.3985;stroke-linecap:butt;stroke-linejoin:miter;stroke:rgb(0%,0%,0%);stroke-opacity:1;stroke-miterlimit:10;" d="M 75.597844 10.800688 L 118.797062 10.800688 " transform="matrix(1,0,0,-1,33.492,40.621)"/>
<path style="fill:none;stroke-width:0.3985;stroke-linecap:butt;stroke-linejoin:miter;stroke:rgb(0%,0%,0%);stroke-opacity:1;stroke-miterlimit:10;" d="M 97.1955 -10.800875 L 97.1955 32.398344 " transform="matrix(1,0,0,-1,33.492,40.621)"/>
<path style="fill:none;stroke-width:0.79701;stroke-linecap:butt;stroke-linejoin:miter;stroke:rgb(0%,0%,100%);stroke-opacity:1;stroke-miterlimit:10;" d="M 97.1955 10.800688 L 101.465031 27.874906 " transform="matrix(1,0,0,-1,33.492,40.621)"/>
<path style=" stroke:none;fill-rule:nonzero;fill:rgb(0%,0%,100%);fill-opacity:1;" d="M 136.089844 8.222656 C 135.503906 9.5 134.203125 11.488281 132.949219 12.777344 L 136.71875 13.71875 C 136.214844 11.992188 136.003906 9.625 136.089844 8.222656 "/>
<path style="fill:none;stroke-width:0.79701;stroke-linecap:butt;stroke-linejoin:miter;stroke:rgb(0%,0%,100%);stroke-opacity:1;stroke-miterlimit:10;" d="M 97.1955 10.800688 L 114.625187 19.515531 " transform="matrix(1,0,0,-1,33.492,40.621)"/>
<path style=" stroke:none;fill-rule:nonzero;fill:rgb(0%,0%,100%);fill-opacity:1;" d="M 152.289062 19.023438 C 150.9375 19.40625 148.582031 19.714844 146.785156 19.601562 L 148.523438 23.074219 C 149.507812 21.570312 151.167969 19.871094 152.289062 19.023438 "/>
<path style="fill:none;stroke-width:0.79701;stroke-linecap:butt;stroke-linejoin:miter;stroke:rgb(0%,0%,100%);stroke-opacity:1;stroke-miterlimit:10;" d="M 97.1955 10.800688 L 84.875187 19.011625 " transform="matrix(1,0,0,-1,33.492,40.621)"/>
<path style=" stroke:none;fill-rule:nonzero;fill:rgb(0%,0%,100%);fill-opacity:1;" d="M 114.488281 19.023438 C 115.496094 20.003906 116.933594 21.894531 117.722656 23.511719 L 119.878906 20.277344 C 118.082031 20.171875 115.78125 19.574219 114.488281 19.023438 "/>
<path style="fill:none;stroke-width:0.79701;stroke-linecap:butt;stroke-linejoin:miter;stroke:rgb(0%,0%,100%);stroke-opacity:1;stroke-miterlimit:10;" d="M 97.1955 10.800688 L 97.1955 -0.738375 " transform="matrix(1,0,0,-1,33.492,40.621)"/>
<path style=" stroke:none;fill-rule:nonzero;fill:rgb(0%,0%,100%);fill-opacity:1;" d="M 130.6875 46.019531 C 130.949219 44.640625 131.726562 42.394531 132.632812 40.839844 L 128.746094 40.839844 C 129.652344 42.394531 130.429688 44.640625 130.6875 46.019531 "/>
<path style="fill:none;stroke-width:0.79701;stroke-linecap:butt;stroke-linejoin:miter;stroke:rgb(0%,0%,100%);stroke-opacity:1;stroke-miterlimit:10;" d="M 97.1955 10.800688 L 115.500187 -7.504 " transform="matrix(1,0,0,-1,33.492,40.621)"/>
<path style=" stroke:none;fill-rule:nonzero;fill:rgb(0%,0%,100%);fill-opacity:1;" d="M 152.289062 51.421875 C 151.496094 50.261719 150.457031 48.125 150 46.382812 L 147.25 49.132812 C 148.992188 49.589844 151.128906 50.625 152.289062 51.421875 "/>
<path style=" stroke:none;fill-rule:nonzero;fill:rgb(0%,0%,100%);fill-opacity:0.5;" d="M 109.089844 51.421875 L 109.089844 8.222656 L 152.289062 8.222656 L 152.289062 51.421875 Z M 109.089844 51.421875 "/>
<path style="fill:none;stroke-width:0.3985;stroke-linecap:butt;stroke-linejoin:miter;stroke:rgb(0%,0%,0%);stroke-opacity:1;stroke-miterlimit:10;" d="M -21.601031 10.80025 L 21.598187 10.80025 " transform="matrix(1,0,0,-1,218.144,41.019)"/>
<path style="fill:none;stroke-width:0.3985;stroke-linecap:butt;stroke-linejoin:miter;stroke:rgb(0%,0%,0%);stroke-opacity:1;stroke-miterlimit:10;" d="M 0.00053125 -10.801312 L 0.00053125 32.397906 " transform="matrix(1,0,0,-1,218.144,41.019)"/>
<path style="fill:none;stroke-width:0.79701;stroke-linecap:butt;stroke-linejoin:miter;stroke:rgb(0%,0%,100%);stroke-opacity:1;stroke-miterlimit:10;" d="M 0.00053125 10.80025 L 4.270062 27.874469 " transform="matrix(1,0,0,-1,218.144,41.019)"/>
<path style=" stroke:none;fill-rule:nonzero;fill:rgb(0%,0%,100%);fill-opacity:1;" d="M 223.542969 8.621094 C 222.957031 9.898438 221.660156 11.886719 220.402344 13.175781 L 224.171875 14.117188 C 223.667969 12.390625 223.460938 10.023438 223.542969 8.621094 "/>
<path style="fill:none;stroke-width:0.79701;stroke-linecap:butt;stroke-linejoin:miter;stroke:rgb(0%,0%,100%);stroke-opacity:1;stroke-miterlimit:10;" d="M 0.00053125 10.80025 L 17.430219 19.515094 " transform="matrix(1,0,0,-1,218.144,41.019)"/>
<path style=" stroke:none;fill-rule:nonzero;fill:rgb(0%,0%,100%);fill-opacity:1;" d="M 239.742188 19.417969 C 238.390625 19.804688 236.035156 20.113281 234.242188 20 L 235.980469 23.472656 C 236.964844 21.96875 238.625 20.269531 239.742188 19.417969 "/>
<path style="fill:none;stroke-width:0.79701;stroke-linecap:butt;stroke-linejoin:miter;stroke:rgb(0%,0%,100%);stroke-opacity:1;stroke-miterlimit:10;" d="M 0.00053125 10.80025 L -12.319781 19.015094 " transform="matrix(1,0,0,-1,218.144,41.019)"/>
<path style=" stroke:none;fill-rule:nonzero;fill:rgb(0%,0%,100%);fill-opacity:1;" d="M 201.945312 19.417969 C 202.949219 20.402344 204.386719 22.292969 205.175781 23.910156 L 207.332031 20.675781 C 205.535156 20.570312 203.238281 19.96875 201.945312 19.417969 "/>
<path style="fill:none;stroke-width:0.79701;stroke-linecap:butt;stroke-linejoin:miter;stroke:rgb(0%,0%,100%);stroke-opacity:1;stroke-miterlimit:10;" d="M 0.00053125 10.80025 L 0.00053125 -0.738812 " transform="matrix(1,0,0,-1,218.144,41.019)"/>
<path style=" stroke:none;fill-rule:nonzero;fill:rgb(0%,0%,100%);fill-opacity:1;" d="M 218.144531 46.417969 C 218.402344 45.039062 219.179688 42.792969 220.085938 41.238281 L 216.203125 41.238281 C 217.109375 42.792969 217.886719 45.039062 218.144531 46.417969 "/>
<path style="fill:none;stroke-width:0.79701;stroke-linecap:butt;stroke-linejoin:miter;stroke:rgb(0%,0%,100%);stroke-opacity:1;stroke-miterlimit:10;" d="M 0.00053125 10.80025 L 18.301312 -7.504437 " transform="matrix(1,0,0,-1,218.144,41.019)"/>
<path style=" stroke:none;fill-rule:nonzero;fill:rgb(0%,0%,100%);fill-opacity:1;" d="M 239.742188 51.820312 C 238.949219 50.660156 237.910156 48.523438 237.453125 46.78125 L 234.707031 49.527344 C 236.445312 49.988281 238.582031 51.023438 239.742188 51.820312 "/>
<path style="fill:none;stroke-width:0.3985;stroke-linecap:butt;stroke-linejoin:miter;stroke:rgb(0%,0%,0%);stroke-opacity:1;stroke-dasharray:2.98883,2.98883;stroke-miterlimit:10;" d="M 32.398969 32.397906 C 46.988812 40.823688 61.008344 40.823688 72.492719 34.190875 " transform="matrix(1,0,0,-1,218.144,41.019)"/>
<path style=" stroke:none;fill-rule:nonzero;fill:rgb(0%,0%,0%);fill-opacity:1;" d="M 293.742188 8.621094 C 292.921875 7.914062 291.722656 6.535156 291.039062 5.332031 L 289.542969 7.921875 C 290.925781 7.914062 292.722656 8.261719 293.742188 8.621094 "/>
<path style="fill:none;stroke-width:0.3985;stroke-linecap:butt;stroke-linejoin:miter;stroke:rgb(0%,0%,0%);stroke-opacity:1;stroke-miterlimit:10;" d="M 97.195844 -0.00053125 L 129.598187 -0.00053125 " transform="matrix(1,0,0,-1,218.144,41.019)"/>
<path style="fill:none;stroke-width:0.3985;stroke-linecap:butt;stroke-linejoin:miter;stroke:rgb(0%,0%,0%);stroke-opacity:1;stroke-miterlimit:10;" d="M 97.195844 -0.00053125 L 97.195844 32.397906 " transform="matrix(1,0,0,-1,218.144,41.019)"/>
<path style="fill:none;stroke-width:0.3985;stroke-linecap:butt;stroke-linejoin:miter;stroke:rgb(0%,0%,0%);stroke-opacity:1;stroke-miterlimit:10;" d="M 97.195844 -0.00053125 L 75.598187 -10.801312 " transform="matrix(1,0,0,-1,218.144,41.019)"/>
<path style="fill:none;stroke-width:0.79701;stroke-linecap:butt;stroke-linejoin:miter;stroke:rgb(0%,0%,100%);stroke-opacity:1;stroke-miterlimit:10;" d="M 97.195844 -0.00053125 L 101.121625 11.776813 " transform="matrix(1,0,0,-1,218.144,41.019)"/>
<path style=" stroke:none;fill-rule:nonzero;fill:rgb(0%,0%,100%);fill-opacity:1;" d="M 320.742188 24.820312 C 320.058594 26.046875 318.613281 27.933594 317.261719 29.121094 L 320.945312 30.347656 C 320.578125 28.585938 320.550781 26.210938 320.742188 24.820312 "/>
<path style="fill:none;stroke-width:0.79701;stroke-linecap:butt;stroke-linejoin:miter;stroke:rgb(0%,0%,100%);stroke-opacity:1;stroke-miterlimit:10;" d="M 97.195844 -0.00053125 L 114.625531 8.714313 " transform="matrix(1,0,0,-1,218.144,41.019)"/>
<path style=" stroke:none;fill-rule:nonzero;fill:rgb(0%,0%,100%);fill-opacity:1;" d="M 336.941406 30.21875 C 335.589844 30.605469 333.234375 30.914062 331.4375 30.796875 L 333.175781 34.273438 C 334.160156 32.769531 335.820312 31.070312 336.941406 30.21875 "/>
<path style="fill:none;stroke-width:0.79701;stroke-linecap:butt;stroke-linejoin:miter;stroke:rgb(0%,0%,100%);stroke-opacity:1;stroke-miterlimit:10;" d="M 97.195844 -0.00053125 L 74.527875 9.069781 " transform="matrix(1,0,0,-1,218.144,41.019)"/>
<path style=" stroke:none;fill-rule:nonzero;fill:rgb(0%,0%,100%);fill-opacity:1;" d="M 288.34375 30.21875 C 289.527344 30.972656 291.324219 32.527344 292.429688 33.945312 L 293.875 30.339844 C 292.09375 30.605469 289.722656 30.492188 288.34375 30.21875 "/>
<path style="fill:none;stroke-width:0.79701;stroke-linecap:butt;stroke-linejoin:miter;stroke:rgb(0%,0%,100%);stroke-opacity:1;stroke-miterlimit:10;" d="M 97.195844 -0.00053125 L 93.270062 -11.777875 " transform="matrix(1,0,0,-1,218.144,41.019)"/>
<path style=" stroke:none;fill-rule:nonzero;fill:rgb(0%,0%,100%);fill-opacity:1;" d="M 309.941406 57.21875 C 310.625 55.988281 312.070312 54.105469 313.421875 52.917969 L 309.738281 51.691406 C 310.105469 53.449219 310.132812 55.824219 309.941406 57.21875 "/>
<path style="fill:none;stroke-width:0.79701;stroke-linecap:butt;stroke-linejoin:miter;stroke:rgb(0%,0%,100%);stroke-opacity:1;stroke-miterlimit:10;" d="M 97.195844 -0.00053125 L 119.625531 -4.484906 " transform="matrix(1,0,0,-1,218.144,41.019)"/>
<path style=" stroke:none;fill-rule:nonzero;fill:rgb(0%,0%,100%);fill-opacity:1;" d="M 342.339844 46.417969 C 341.035156 45.894531 338.988281 44.691406 337.640625 43.496094 L 336.878906 47.308594 C 338.582031 46.722656 340.933594 46.402344 342.339844 46.417969 "/>
<path style=" stroke:none;fill-rule:nonzero;fill:rgb(0%,0%,100%);fill-opacity:0.5;" d="M 293.742188 62.617188 L 347.742188 51.820312 L 336.941406 19.417969 L 282.941406 30.21875 L 293.742188 62.617188 "/>
</g>
</svg>
