<?xml version="1.0" encoding="UTF-8"?>
<svg xmlns="http://www.w3.org/2000/svg" xmlns:xlink="http://www.w3.org/1999/xlink" width="290pt" height="241pt" viewBox="0 0 290 241" version="1.1">
<g id="surface1">
<path style="fill:none;stroke-width:0.3985;stroke-linecap:butt;stroke-linejoin:miter;stroke:rgb(0%,0%,0%);stroke-opacity:1;stroke-miterlimit:10;" d="M 0.00146875 -0.00090625 L -117.490719 -67.832937 " transform="matrix(1,0,0,-1,118.729,170.878)"/>
<path style="fill:none;stroke-width:0.3985;stroke-linecap:round;stroke-linejoin:round;stroke:rgb(0%,0%,0%);stroke-opacity:1;stroke-miterlimit:10;" d="M -2.072535 2.389159 C -1.694665 0.957642 -0.849752 0.280396 -0.000160742 0.00189417 C -0.848365 -0.279723 -1.693958 -0.955273 -2.072459 -2.392151 " transform="matrix(-0.86601,0.49998,0.49998,0.86601,1.06532,238.81094)"/>
<path style="fill:none;stroke-width:0.3985;stroke-linecap:butt;stroke-linejoin:miter;stroke:rgb(0%,0%,0%);stroke-opacity:1;stroke-miterlimit:10;" d="M 0.00146875 -0.00090625 L 169.681156 -0.00090625 " transform="matrix(1,0,0,-1,118.729,170.878)"/>
<path style="fill:none;stroke-width:0.3985;stroke-linecap:round;stroke-linejoin:round;stroke:rgb(0%,0%,0%);stroke-opacity:1;stroke-miterlimit:10;" d="M -2.071528 2.389719 C -1.692621 0.956125 -0.848871 0.280344 -0.001215 -0.00090625 C -0.848871 -0.27825 -1.692621 -0.957937 -2.071528 -2.391531 " transform="matrix(1,0,0,-1,288.61059,170.878)"/>
<path style="fill:none;stroke-width:0.3985;stroke-linecap:butt;stroke-linejoin:miter;stroke:rgb(0%,0%,0%);stroke-opacity:1;stroke-miterlimit:10;" d="M 0.00146875 -0.00090625 L 0.00146875 169.682688 " transform="matrix(1,0,0,-1,118.729,170.878)"/>
<path style="fill:none;stroke-width:0.3985;stroke-linecap:round;stroke-linejoin:round;stroke:rgb(0%,0%,0%);stroke-opacity:1;stroke-miterlimit:10;" d="M -2.073903 2.389156 C -1.694996 0.955562 -0.851246 0.279781 0.00031625 -0.00146875 C -0.851246 -0.278813 -1.694996 -0.954594 -2.073903 -2.392094 " transform="matrix(0,-1,-1,0,118.729,0.99641)"/>
</g>
</svg>
