<?xml version="1.0" encoding="UTF-8"?>
<svg xmlns="http://www.w3.org/2000/svg" xmlns:xlink="http://www.w3.org/1999/xlink" width="229pt" height="229pt" viewBox="0 0 229 229" version="1.1">
<g id="surface1">
<path style="fill:none;stroke-width:0.3985;stroke-linecap:butt;stroke-linejoin:miter;stroke:rgb(0%,0%,0%);stroke-opacity:1;stroke-miterlimit:10;" d="M -112.989219 -0.000665727 L 112.987344 -0.000665727 " transform="matrix(1,0,0,-1.00002,114.415,114.585272)"/>
<path style="fill:none;stroke-width:0.3985;stroke-linecap:round;stroke-linejoin:round;stroke:rgb(0%,0%,0%);stroke-opacity:1;stroke-miterlimit:10;" d="M -2.073751 2.391243 C -1.694845 0.957678 -0.851095 0.278004 0.0004675 0.000665727 C -0.851095 -0.280579 -1.694845 -0.956346 -2.073751 -2.389911 " transform="matrix(-1,0,0,1.00002,1.22703,114.585272)"/>
<path style="fill:none;stroke-width:0.3985;stroke-linecap:round;stroke-linejoin:round;stroke:rgb(0%,0%,0%);stroke-opacity:1;stroke-miterlimit:10;" d="M -2.07172 2.389911 C -1.692814 0.956346 -0.849064 0.280579 -0.0014075 -0.000665727 C -0.849064 -0.278004 -1.692814 -0.957678 -2.07172 -2.391243 " transform="matrix(1,0,0,-1.00002,227.60297,114.585272)"/>
<path style="fill:none;stroke-width:0.3985;stroke-linecap:butt;stroke-linejoin:miter;stroke:rgb(0%,0%,0%);stroke-opacity:1;stroke-miterlimit:10;" d="M -0.0009375 -112.990593 L -0.0009375 112.989262 " transform="matrix(1,0,0,-1.00002,114.415,114.585272)"/>
<path style="fill:none;stroke-width:0.3985;stroke-linecap:round;stroke-linejoin:round;stroke:rgb(0%,0%,0%);stroke-opacity:1;stroke-miterlimit:10;" d="M -2.072339 2.389688 C -1.69344 0.956094 -0.849707 0.280313 0.00183819 -0.0009375 C -0.849707 -0.278281 -1.69344 -0.957969 -2.072339 -2.391562 " transform="matrix(0,1.00002,1,0,114.415,227.775506)"/>
<path style="fill:none;stroke-width:0.3985;stroke-linecap:round;stroke-linejoin:round;stroke:rgb(0%,0%,0%);stroke-opacity:1;stroke-miterlimit:10;" d="M -2.073671 2.391562 C -1.694772 0.957969 -0.851039 0.278281 0.00050674 0.0009375 C -0.851039 -0.280313 -1.694772 -0.956094 -2.073671 -2.389688 " transform="matrix(0,-1.00002,-1,0,114.415,1.395038)"/>
</g>
</svg>
