<?xml version="1.0" encoding="UTF-8"?>
<svg xmlns="http://www.w3.org/2000/svg" xmlns:xlink="http://www.w3.org/1999/xlink" width="326pt" height="127pt" viewBox="0 0 326 127" version="1.1">
<g id="surface1">
<path style="fill:none;stroke-width:0.3985;stroke-linecap:butt;stroke-linejoin:miter;stroke:rgb(0%,0%,0%);stroke-opacity:1;stroke-miterlimit:10;" d="M -0.00153125 0.00071875 L 84.643 0.00071875 " transform="matrix(1,0,0,-1,97.982,86.239)"/>
<path style="fill:none;stroke-width:0.3985;stroke-linecap:round;stroke-linejoin:round;stroke:rgb(0%,0%,0%);stroke-opacity:1;stroke-miterlimit:10;" d="M -2.07317 2.391344 C -1.694264 0.95775 -0.850514 0.278063 0.00104875 0.00071875 C -0.850514 -0.280531 -1.694264 -0.956312 -2.07317 -2.389906 " transform="matrix(1,0,0,-1,182.82317,86.239)"/>
<path style="fill:none;stroke-width:0.3985;stroke-linecap:butt;stroke-linejoin:miter;stroke:rgb(0%,0%,0%);stroke-opacity:1;stroke-miterlimit:10;" d="M -0.00153125 0.00071875 L -0.00153125 84.641344 " transform="matrix(1,0,0,-1,97.982,86.239)"/>
<path style="fill:none;stroke-width:0.3985;stroke-linecap:round;stroke-linejoin:round;stroke:rgb(0%,0%,0%);stroke-opacity:1;stroke-miterlimit:10;" d="M -2.07092 2.392156 C -1.692014 0.954656 -0.848264 0.278875 -0.0006075 0.00153125 C -0.848264 -0.279719 -1.692014 -0.9555 -2.07092 -2.389094 " transform="matrix(0,-1,-1,0,97.982,1.39783)"/>
<path style="fill:none;stroke-width:0.3985;stroke-linecap:butt;stroke-linejoin:miter;stroke:rgb(0%,0%,0%);stroke-opacity:1;stroke-miterlimit:10;" d="M -0.00153125 0.00071875 L -32.458562 -32.460219 " transform="matrix(1,0,0,-1,97.982,86.239)"/>
<path style="fill:none;stroke-width:0.3985;stroke-linecap:round;stroke-linejoin:round;stroke:rgb(0%,0%,0%);stroke-opacity:1;stroke-miterlimit:10;" d="M -2.07323 2.390442 C -1.694814 0.956879 -0.849593 0.277387 0.00115348 0.00117116 C -0.849593 -0.280569 -1.692052 -0.957299 -2.070468 -2.390861 " transform="matrix(-0.7071,0.7071,0.7071,0.7071,65.3828,118.8382)"/>
<path style="fill-rule:nonzero;fill:rgb(94.999695%,79.998779%,84.999084%);fill-opacity:0.5;stroke-width:0.3985;stroke-linecap:butt;stroke-linejoin:miter;stroke:rgb(0%,0%,0%);stroke-opacity:1;stroke-miterlimit:10;" d="M -39.259344 -39.261 L 95.9555 -17.432875 L 39.260188 39.258531 L -95.954656 17.434313 L -39.259344 -39.261 " transform="matrix(1,0,0,-1,97.982,86.239)"/>
<path style="fill:none;stroke-width:0.79701;stroke-linecap:butt;stroke-linejoin:miter;stroke:rgb(0%,0%,100%);stroke-opacity:1;stroke-miterlimit:10;" d="M -0.00153125 0.00071875 L 13.61175 -13.608656 " transform="matrix(1,0,0,-1,97.982,86.239)"/>
<path style="fill:none;stroke-width:0.79701;stroke-linecap:round;stroke-linejoin:round;stroke:rgb(0%,0%,100%);stroke-opacity:1;stroke-miterlimit:10;" d="M -2.549669 3.10962 C -2.082864 1.245161 -1.047053 0.364031 -0.000193572 0.00218763 C -1.044291 -0.362418 -2.085626 -1.243548 -2.549669 -3.110769 " transform="matrix(0.7071,0.7071,0.7071,-0.7071,111.87359,100.13059)"/>
<path style="fill:none;stroke-width:0.79701;stroke-linecap:butt;stroke-linejoin:miter;stroke:rgb(100%,0%,0%);stroke-opacity:1;stroke-miterlimit:10;" d="M -0.00153125 0.00071875 L -33.017156 -5.331312 " transform="matrix(1,0,0,-1,97.982,86.239)"/>
<path style="fill:none;stroke-width:0.79701;stroke-linecap:round;stroke-linejoin:round;stroke:rgb(100%,0%,0%);stroke-opacity:1;stroke-miterlimit:10;" d="M -2.551042 3.111026 C -2.084842 1.24327 -1.047639 0.363611 0.00168623 0.000358429 C -1.046472 -0.364662 -2.082991 -1.245968 -2.54996 -3.109519 " transform="matrix(-0.98718,0.15933,0.15933,0.98718,64.57192,91.63219)"/>
<path style="fill:none;stroke-width:0.3985;stroke-linecap:butt;stroke-linejoin:miter;stroke:rgb(0%,0%,0%);stroke-opacity:1;stroke-miterlimit:10;" d="M 113.389094 28.348375 L 226.775813 28.348375 " transform="matrix(1,0,0,-1,97.982,86.239)"/>
<path style="fill:none;stroke-width:0.3985;stroke-linecap:butt;stroke-linejoin:miter;stroke:rgb(0%,0%,0%);stroke-opacity:1;stroke-miterlimit:10;" d="M 170.0805 -28.346937 L 170.0805 85.039781 " transform="matrix(1,0,0,-1,97.982,86.239)"/>
<path style="fill-rule:nonzero;fill:rgb(94.999695%,79.998779%,84.999084%);fill-opacity:0.5;stroke-width:0.3985;stroke-linecap:butt;stroke-linejoin:miter;stroke:rgb(0%,0%,0%);stroke-opacity:1;stroke-miterlimit:10;" d="M 116.221125 -25.511 L 116.221125 82.203844 L 223.939875 82.203844 L 223.939875 -25.511 L 116.221125 -25.511 " transform="matrix(1,0,0,-1,97.982,86.239)"/>
<path style="fill:none;stroke-width:1.19553;stroke-linecap:butt;stroke-linejoin:miter;stroke:rgb(0%,0%,100%);stroke-opacity:1;stroke-miterlimit:10;" d="M 170.0805 28.348375 L 183.057063 28.348375 " transform="matrix(1,0,0,-1,97.982,86.239)"/>
<path style="fill:none;stroke-width:1.19553;stroke-linecap:round;stroke-linejoin:round;stroke:rgb(0%,0%,100%);stroke-opacity:1;stroke-miterlimit:10;" d="M -3.029125 3.8297 C -2.474438 1.532825 -1.243969 0.446888 -0.00178125 0.001575 C -1.243969 -0.447644 -2.474438 -1.533581 -3.029125 -3.830456 " transform="matrix(1,0,0,-1,281.6385,57.8922)"/>
<path style="fill:none;stroke-width:1.19553;stroke-linecap:butt;stroke-linejoin:miter;stroke:rgb(100%,0%,0%);stroke-opacity:1;stroke-miterlimit:10;" d="M 170.0805 28.348375 L 170.0805 41.324938 " transform="matrix(1,0,0,-1,97.982,86.239)"/>
<path style="fill:none;stroke-width:1.19553;stroke-linecap:round;stroke-linejoin:round;stroke:rgb(100%,0%,0%);stroke-opacity:1;stroke-miterlimit:10;" d="M -3.02719 3.832391 C -2.476409 1.53161 -1.242034 0.445673 0.00015375 0.00036 C -1.242034 -0.448859 -2.476409 -1.53089 -3.02719 -3.831671 " transform="matrix(0,-1,-1,0,268.06286,44.31656)"/>
</g>
</svg>
