<?xml version="1.0" encoding="UTF-8"?>
<svg xmlns="http://www.w3.org/2000/svg" xmlns:xlink="http://www.w3.org/1999/xlink" width="353pt" height="298pt" viewBox="0 0 353 298" version="1.1">
<g id="surface1">
<path style="fill:none;stroke-width:0.3985;stroke-linecap:butt;stroke-linejoin:miter;stroke:rgb(0%,0%,0%);stroke-opacity:1;stroke-miterlimit:10;" d="M -0.00138709 0.000358668 L -117.490431 -67.83338 " transform="matrix(1.00006,0,0,-1.00009,176.567793,171.293327)"/>
<path style="fill:none;stroke-width:0.3985;stroke-linecap:round;stroke-linejoin:round;stroke:rgb(0%,0%,0%);stroke-opacity:1;stroke-miterlimit:10;" d="M -2.072467 2.389513 C -1.694604 0.958109 -0.84974 0.280908 -0.00215471 -0.000964401 C -0.848345 -0.279165 -1.693873 -0.954648 -2.072329 -2.391403 " transform="matrix(-0.866062,0.500025,0.50001,0.866088,58.897054,239.232381)"/>
<path style="fill:none;stroke-width:0.3985;stroke-linecap:butt;stroke-linejoin:miter;stroke:rgb(0%,0%,0%);stroke-opacity:1;stroke-miterlimit:10;" d="M -0.00138709 0.000358668 L 169.683744 0.000358668 " transform="matrix(1.00006,0,0,-1.00009,176.567793,171.293327)"/>
<path style="fill:none;stroke-width:0.3985;stroke-linecap:round;stroke-linejoin:round;stroke:rgb(0%,0%,0%);stroke-opacity:1;stroke-miterlimit:10;" d="M -2.072733 2.390769 C -1.69385 0.957304 -0.85015 0.277677 0.0013611 0.000358668 C -0.85015 -0.280866 -1.69385 -0.956586 -2.072733 -2.390051 " transform="matrix(1.00006,0,0,-1.00009,346.459576,171.293327)"/>
<path style="fill:none;stroke-width:0.3985;stroke-linecap:butt;stroke-linejoin:miter;stroke:rgb(0%,0%,0%);stroke-opacity:1;stroke-miterlimit:10;" d="M -0.00138709 0.000358668 L -0.00138709 169.6804 " transform="matrix(1.00006,0,0,-1.00009,176.567793,171.293327)"/>
<path style="fill:none;stroke-width:0.3985;stroke-linecap:round;stroke-linejoin:round;stroke:rgb(0%,0%,0%);stroke-opacity:1;stroke-miterlimit:10;" d="M -2.072115 2.391869 C -1.693243 0.954455 -0.849569 0.278714 0.00191668 0.00138709 C -0.849569 -0.279846 -1.693243 -0.955587 -2.072115 -2.389094 " transform="matrix(0,-1.00009,-1.00006,0,176.567793,1.396448)"/>
<path style="fill-rule:nonzero;fill:rgb(94.999695%,79.998779%,84.999084%);fill-opacity:0.5;stroke-width:0.3985;stroke-linecap:butt;stroke-linejoin:miter;stroke:rgb(0%,0%,0%);stroke-opacity:1;stroke-miterlimit:10;" d="M -17.414405 79.372121 L -174.529978 -124.726697 L 17.415537 -79.371404 L 174.53111 124.727414 L -17.414405 79.372121 " transform="matrix(1.00006,0,0,-1.00009,176.567793,171.293327)"/>
<path style="fill:none;stroke-width:0.79701;stroke-linecap:butt;stroke-linejoin:miter;stroke:rgb(0%,0%,100%);stroke-opacity:1;stroke-miterlimit:10;" d="M -0.00138709 0.000358668 L -47.209492 -11.154887 " transform="matrix(1.00006,0,0,-1.00009,176.567793,171.293327)"/>
<path style="fill:none;stroke-width:0.79701;stroke-linecap:round;stroke-linejoin:round;stroke:rgb(0%,0%,100%);stroke-opacity:1;stroke-miterlimit:10;" d="M -2.55011 3.112638 C -2.084361 1.244589 -1.044878 0.360804 0.00202228 0.00106248 C -1.046888 -0.361188 -2.086212 -1.243472 -2.551835 -3.112214 " transform="matrix(-0.973198,0.229951,0.229944,0.973228,128.966568,182.54147)"/>
<path style="fill:none;stroke-width:0.79701;stroke-linecap:butt;stroke-linejoin:miter;stroke:rgb(100%,0%,0%);stroke-opacity:1;stroke-miterlimit:10;" d="M -0.00138709 0.000358668 L 38.79316 50.394261 " transform="matrix(1.00006,0,0,-1.00009,176.567793,171.293327)"/>
<path style="fill:none;stroke-width:0.79701;stroke-linecap:round;stroke-linejoin:round;stroke:rgb(100%,0%,0%);stroke-opacity:1;stroke-miterlimit:10;" d="M -2.549438 3.110399 C -2.084589 1.24501 -1.046122 0.363429 -0.00164749 -0.000855782 C -1.045624 -0.360829 -2.085363 -1.245 -2.551015 -3.111888 " transform="matrix(0.609987,-0.792441,-0.792418,-0.610005,215.605796,120.580204)"/>
</g>
</svg>
