<?xml version="1.0" encoding="UTF-8"?>
<svg xmlns="http://www.w3.org/2000/svg" xmlns:xlink="http://www.w3.org/1999/xlink" width="294.32pt" height="149.36pt" viewBox="0 0 294.32 149.36" version="1.1">
<defs>
<clipPath id="clip1">
  <path d="M 23 29 L 92 29 L 92 149.359375 L 23 149.359375 Z M 23 29 "/>
</clipPath>
<clipPath id="clip2">
  <path d="M 112 17 L 294.320312 17 L 294.320312 149.359375 L 112 149.359375 Z M 112 17 "/>
</clipPath>
</defs>
<g id="surface1">
<path style="fill:none;stroke-width:0.3985;stroke-linecap:butt;stroke-linejoin:miter;stroke:rgb(0%,0%,0%);stroke-opacity:1;stroke-miterlimit:10;" d="M -56.294969 -0.0016875 L 56.294875 -0.0016875 " transform="matrix(1,0,0,-1,57.627,91.428)"/>
<path style="fill:none;stroke-width:0.3985;stroke-linecap:round;stroke-linejoin:round;stroke:rgb(0%,0%,0%);stroke-opacity:1;stroke-miterlimit:10;" d="M -2.070475 2.392313 C -1.695475 0.954813 -0.851725 0.279031 -0.0001625 0.0016875 C -0.851725 -0.279562 -1.695475 -0.955344 -2.070475 -2.392844 " transform="matrix(-1,0,0,1,1.13265,91.428)"/>
<path style="fill:none;stroke-width:0.3985;stroke-linecap:round;stroke-linejoin:round;stroke:rgb(0%,0%,0%);stroke-opacity:1;stroke-miterlimit:10;" d="M -2.070569 2.392844 C -1.695569 0.955344 -0.851819 0.279562 -0.00025625 -0.0016875 C -0.851819 -0.279031 -1.695569 -0.954813 -2.070569 -2.392313 " transform="matrix(1,0,0,-1,114.12135,91.428)"/>
<path style="fill:none;stroke-width:0.3985;stroke-linecap:butt;stroke-linejoin:miter;stroke:rgb(0%,0%,0%);stroke-opacity:1;stroke-miterlimit:10;" d="M 0.00190625 -56.294656 L 0.00190625 56.295187 " transform="matrix(1,0,0,-1,57.627,91.428)"/>
<path style="fill:none;stroke-width:0.3985;stroke-linecap:round;stroke-linejoin:round;stroke:rgb(0%,0%,0%);stroke-opacity:1;stroke-miterlimit:10;" d="M -2.070787 2.392531 C -1.691881 0.955031 -0.848131 0.27925 -0.000475 0.00190625 C -0.848131 -0.279344 -1.691881 -0.955125 -2.070787 -2.392625 " transform="matrix(0,1,1,0,57.627,147.92235)"/>
<path style="fill:none;stroke-width:0.3985;stroke-linecap:round;stroke-linejoin:round;stroke:rgb(0%,0%,0%);stroke-opacity:1;stroke-miterlimit:10;" d="M -2.074163 2.392625 C -1.695256 0.955125 -0.851506 0.279344 0.00005625 -0.00190625 C -0.851506 -0.27925 -1.695256 -0.955031 -2.074163 -2.392531 " transform="matrix(0,-1,-1,0,57.627,34.93365)"/>
<g clip-path="url(#clip1)" clip-rule="nonzero">
<path style="fill:none;stroke-width:0.3985;stroke-linecap:butt;stroke-linejoin:miter;stroke:rgb(50%,50%,100%);stroke-opacity:1;stroke-miterlimit:10;" d="M 28.345656 -56.693094 L -28.34575 56.693625 " transform="matrix(1,0,0,-1,57.627,91.428)"/>
</g>
<path style="fill:none;stroke-width:0.79701;stroke-linecap:butt;stroke-linejoin:miter;stroke:rgb(0%,0%,100%);stroke-opacity:1;stroke-miterlimit:10;" d="M 0.00190625 -0.0016875 L 13.818313 -27.6345 " transform="matrix(1,0,0,-1,57.627,91.428)"/>
<path style="fill:none;stroke-width:0.79701;stroke-linecap:round;stroke-linejoin:round;stroke:rgb(0%,0%,100%);stroke-opacity:1;stroke-miterlimit:10;" d="M -2.549835 3.112362 C -2.08509 1.246536 -1.045588 0.364302 -0.000853657 -0.000810081 C -1.047322 -0.364212 -2.085045 -1.24299 -2.55147 -3.11058 " transform="matrix(0.44717,0.89438,0.89438,-0.44717,71.6222,119.41837)"/>
<path style="fill:none;stroke-width:0.3985;stroke-linecap:butt;stroke-linejoin:miter;stroke:rgb(0%,0%,0%);stroke-opacity:1;stroke-miterlimit:10;" d="M -0.00109375 0.0011875 L -58.571406 -33.815219 " transform="matrix(1,0,0,-1,205.88,85.759)"/>
<path style="fill:none;stroke-width:0.3985;stroke-linecap:round;stroke-linejoin:round;stroke:rgb(0%,0%,0%);stroke-opacity:1;stroke-miterlimit:10;" d="M -2.072334 2.391893 C -1.693034 0.955039 -0.851504 0.279746 0.00147012 -0.000708747 C -0.850117 -0.280373 -1.692327 -0.957876 -2.072258 -2.389418 " transform="matrix(-0.86601,0.49998,0.49998,0.86601,147.13444,119.67566)"/>
<path style="fill:none;stroke-width:0.3985;stroke-linecap:butt;stroke-linejoin:miter;stroke:rgb(0%,0%,0%);stroke-opacity:1;stroke-miterlimit:10;" d="M -0.00109375 0.0011875 L 84.643438 0.0011875 " transform="matrix(1,0,0,-1,205.88,85.759)"/>
<path style="fill:none;stroke-width:0.3985;stroke-linecap:round;stroke-linejoin:round;stroke:rgb(0%,0%,0%);stroke-opacity:1;stroke-miterlimit:10;" d="M -2.072733 2.391812 C -1.693826 0.958219 -0.850076 0.278531 0.00148625 0.0011875 C -0.850076 -0.280063 -1.693826 -0.955844 -2.072733 -2.389438 " transform="matrix(1,0,0,-1,290.72117,85.759)"/>
<path style="fill:none;stroke-width:0.3985;stroke-linecap:butt;stroke-linejoin:miter;stroke:rgb(0%,0%,0%);stroke-opacity:1;stroke-miterlimit:10;" d="M -0.00109375 0.0011875 L -0.00109375 84.641812 " transform="matrix(1,0,0,-1,205.88,85.759)"/>
<path style="fill:none;stroke-width:0.3985;stroke-linecap:round;stroke-linejoin:round;stroke:rgb(0%,0%,0%);stroke-opacity:1;stroke-miterlimit:10;" d="M -2.070451 2.391719 C -1.695451 0.958125 -0.851701 0.278437 -0.00013875 0.00109375 C -0.851701 -0.280156 -1.695451 -0.955938 -2.070451 -2.389531 " transform="matrix(0,-1,-1,0,205.88,0.91783)"/>
<path style=" stroke:none;fill-rule:nonzero;fill:rgb(94.999695%,79.998779%,84.999084%);fill-opacity:0.5;" d="M 197.171875 46.074219 L 118.613281 148.121094 L 214.585938 125.445312 L 293.144531 23.394531 L 197.171875 46.074219 "/>
<g clip-path="url(#clip2)" clip-rule="nonzero">
<path style="fill:none;stroke-width:0.3985;stroke-linecap:butt;stroke-linejoin:miter;stroke:rgb(0%,0%,0%);stroke-opacity:1;stroke-miterlimit:10;" d="M -8.708125 39.684781 L -87.266719 -62.362094 L 8.705938 -39.686313 L 87.264531 62.364469 L -8.708125 39.684781 " transform="matrix(1,0,0,-1,205.88,85.759)"/>
</g>
<path style="fill:none;stroke-width:0.79701;stroke-linecap:butt;stroke-linejoin:miter;stroke:rgb(0%,0%,100%);stroke-opacity:1;stroke-miterlimit:10;" d="M -0.00109375 0.0011875 L -23.215937 -5.487094 " transform="matrix(1,0,0,-1,205.88,85.759)"/>
<path style="fill:none;stroke-width:0.79701;stroke-linecap:round;stroke-linejoin:round;stroke:rgb(0%,0%,100%);stroke-opacity:1;stroke-miterlimit:10;" d="M -2.551195 3.110755 C -2.084532 1.246346 -1.044991 0.36249 0.0010734 -0.00107827 C -1.047903 -0.363368 -2.082598 -1.242833 -2.552064 -3.110845 " transform="matrix(-0.97314,0.22993,0.22993,0.97314,182.27473,91.33674)"/>
<path style="fill:none;stroke-width:0.79701;stroke-linecap:butt;stroke-linejoin:miter;stroke:rgb(100%,0%,0%);stroke-opacity:1;stroke-miterlimit:10;" d="M -0.00109375 0.0011875 L 19.155156 24.880094 " transform="matrix(1,0,0,-1,205.88,85.759)"/>
<path style="fill:none;stroke-width:0.79701;stroke-linecap:round;stroke-linejoin:round;stroke:rgb(100%,0%,0%);stroke-opacity:1;stroke-miterlimit:10;" d="M -2.552703 3.111378 C -2.085462 1.242767 -1.046925 0.361139 0.000722052 -0.000774051 C -1.046437 -0.363171 -2.083175 -1.245037 -2.548891 -3.112064 " transform="matrix(0.60995,-0.79237,-0.79237,-0.60995,225.27629,60.5626)"/>
</g>
</svg>
