<?xml version="1.0" encoding="UTF-8"?>
<svg xmlns="http://www.w3.org/2000/svg" xmlns:xlink="http://www.w3.org/1999/xlink" width="259.76pt" height="120.48819pt" viewBox="0 0 259.76 120.48819" version="1.1">
<defs>
<clipPath id="clip1">
  <path d="M 23 0 L 92 0 L 92 120.488281 L 23 120.488281 Z M 23 0 "/>
</clipPath>
<clipPath id="clip2">
  <path d="M 112 13 L 259.761719 13 L 259.761719 120.488281 L 112 120.488281 Z M 112 13 "/>
</clipPath>
</defs>
<g id="surface1">
<path style="fill:none;stroke-width:0.3985;stroke-linecap:butt;stroke-linejoin:miter;stroke:rgb(0%,0%,0%);stroke-opacity:1;stroke-miterlimit:10;" d="M -56.236375 -0.0000475 L 56.236281 -0.0000475 " transform="matrix(1,0,0,-1,57.627,62.46089)"/>
<path style="fill:none;stroke-width:0.31879;stroke-linecap:round;stroke-linejoin:round;stroke:rgb(0%,0%,0%);stroke-opacity:1;stroke-miterlimit:10;" d="M -1.194278 1.593798 C -1.096621 0.996141 0.001035 0.0977038 0.29791 0.0000475 C 0.001035 -0.101515 -1.096621 -0.996046 -1.194278 -1.593702 " transform="matrix(-1,0,0,1,1.39166,62.46089)"/>
<path style="fill:none;stroke-width:0.31879;stroke-linecap:round;stroke-linejoin:round;stroke:rgb(0%,0%,0%);stroke-opacity:1;stroke-miterlimit:10;" d="M -1.194371 1.593702 C -1.096715 0.996046 0.00094125 0.101515 0.297816 -0.0000475 C 0.00094125 -0.0977038 -1.096715 -0.996141 -1.194371 -1.593798 " transform="matrix(1,0,0,-1,113.86234,62.46089)"/>
<path style="fill:none;stroke-width:0.3985;stroke-linecap:butt;stroke-linejoin:miter;stroke:rgb(0%,0%,0%);stroke-opacity:1;stroke-miterlimit:10;" d="M 0.00190625 -56.234423 L 0.00190625 56.234327 " transform="matrix(1,0,0,-1,57.627,62.46089)"/>
<path style="fill:none;stroke-width:0.31879;stroke-linecap:round;stroke-linejoin:round;stroke:rgb(0%,0%,0%);stroke-opacity:1;stroke-miterlimit:10;" d="M -1.19623 1.595656 C -1.094668 0.998 -0.0009175 0.0995625 0.299864 0.00190625 C -0.0009175 -0.0996562 -1.094668 -0.998094 -1.19623 -1.59575 " transform="matrix(0,1,1,0,57.627,118.69623)"/>
<path style="fill:none;stroke-width:0.31879;stroke-linecap:round;stroke-linejoin:round;stroke:rgb(0%,0%,0%);stroke-opacity:1;stroke-miterlimit:10;" d="M -1.196325 1.59575 C -1.094763 0.998094 -0.0010125 0.0996562 0.299769 -0.00190625 C -0.0010125 -0.0995625 -1.094763 -0.998 -1.196325 -1.595656 " transform="matrix(0,-1,-1,0,57.627,6.22555)"/>
<g clip-path="url(#clip1)" clip-rule="nonzero">
<path style="fill:none;stroke-width:0.3985;stroke-linecap:butt;stroke-linejoin:miter;stroke:rgb(50%,50%,100%);stroke-opacity:1;stroke-miterlimit:10;" d="M 28.345656 -56.69536 L -28.34575 56.695265 " transform="matrix(1,0,0,-1,57.627,62.46089)"/>
</g>
<path style="fill:none;stroke-width:0.79701;stroke-linecap:butt;stroke-linejoin:miter;stroke:rgb(0%,0%,100%);stroke-opacity:1;stroke-miterlimit:10;" d="M 0.00190625 -0.0000475 L 13.857375 -27.714891 " transform="matrix(1,0,0,-1,57.627,62.46089)"/>
<path style="fill:none;stroke-width:0.6376;stroke-linecap:round;stroke-linejoin:round;stroke:rgb(0%,0%,100%);stroke-opacity:1;stroke-miterlimit:10;" d="M -1.554091 2.070147 C -1.426543 1.294465 0.000806046 0.130965 0.38865 -0.00180326 C 0.000810734 -0.131091 -1.42475 -1.296389 -1.554017 -2.070329 " transform="matrix(0.44717,0.89438,0.89438,-0.44717,71.48407,90.17503)"/>
<path style="fill:none;stroke-width:0.3985;stroke-linecap:butt;stroke-linejoin:miter;stroke:rgb(0%,0%,0%);stroke-opacity:1;stroke-miterlimit:10;" d="M -0.00021875 -0.000735 L -46.7385 -26.98511 " transform="matrix(1,0,0,-1,188.426,69.26489)"/>
<path style="fill:none;stroke-width:0.31879;stroke-linecap:round;stroke-linejoin:round;stroke:rgb(0%,0%,0%);stroke-opacity:1;stroke-miterlimit:10;" d="M -1.193793 1.593253 C -1.096635 0.995884 0.0012006 0.100446 0.299709 0.000276227 C -0.00211538 -0.100618 -1.097254 -0.997456 -1.194394 -1.595415 " transform="matrix(-0.86601,0.49998,0.49998,0.86601,141.6891,96.24835)"/>
<path style="fill:none;stroke-width:0.3985;stroke-linecap:butt;stroke-linejoin:miter;stroke:rgb(0%,0%,0%);stroke-opacity:1;stroke-miterlimit:10;" d="M -0.00021875 -0.000735 L 67.574 -0.000735 " transform="matrix(1,0,0,-1,188.426,69.26489)"/>
<path style="fill:none;stroke-width:0.31879;stroke-linecap:round;stroke-linejoin:round;stroke:rgb(0%,0%,0%);stroke-opacity:1;stroke-miterlimit:10;" d="M -1.194322 1.593015 C -1.096666 0.995359 0.00099 0.100827 0.297865 -0.000735 C 0.00099 -0.0983913 -1.096666 -0.996829 -1.194322 -1.594485 " transform="matrix(1,0,0,-1,255.99901,69.26489)"/>
<path style="fill:none;stroke-width:0.3985;stroke-linecap:butt;stroke-linejoin:miter;stroke:rgb(0%,0%,0%);stroke-opacity:1;stroke-miterlimit:10;" d="M -0.00021875 -0.000735 L -0.00021875 67.573484 " transform="matrix(1,0,0,-1,188.426,69.26489)"/>
<path style="fill:none;stroke-width:0.31879;stroke-linecap:round;stroke-linejoin:round;stroke:rgb(0%,0%,0%);stroke-opacity:1;stroke-miterlimit:10;" d="M -1.194839 1.593969 C -1.097183 0.996313 0.00047375 0.097875 0.297349 0.00021875 C 0.00047375 -0.101344 -1.097183 -0.995875 -1.194839 -1.593531 " transform="matrix(0,-1,-1,0,188.426,1.69188)"/>
<path style=" stroke:none;fill-rule:nonzero;fill:rgb(94.999695%,79.998779%,84.999084%);fill-opacity:0.5;" d="M 181.460938 37.515625 L 118.613281 119.15625 L 195.390625 101.011719 L 258.238281 19.375 L 181.460938 37.515625 "/>
<g clip-path="url(#clip2)" clip-rule="nonzero">
<path style="fill:none;stroke-width:0.3985;stroke-linecap:butt;stroke-linejoin:miter;stroke:rgb(0%,0%,0%);stroke-opacity:1;stroke-miterlimit:10;" d="M -6.965063 31.749265 L -69.812719 -49.89136 L 6.964625 -31.746829 L 69.812281 49.88989 L -6.965063 31.749265 " transform="matrix(1,0,0,-1,188.426,69.26489)"/>
</g>
<path style="fill:none;stroke-width:0.79701;stroke-linecap:butt;stroke-linejoin:miter;stroke:rgb(0%,0%,100%);stroke-opacity:1;stroke-miterlimit:10;" d="M -0.00021875 -0.000735 L -18.504125 -4.371829 " transform="matrix(1,0,0,-1,188.426,69.26489)"/>
<path style="fill:none;stroke-width:0.6376;stroke-linecap:round;stroke-linejoin:round;stroke:rgb(0%,0%,100%);stroke-opacity:1;stroke-miterlimit:10;" d="M -1.555234 2.07244 C -1.425765 1.295234 0.00117797 0.131198 0.387587 -0.000237925 C -0.00018042 -0.129395 -1.423452 -1.294386 -1.554575 -2.070234 " transform="matrix(-0.97314,0.22992,0.22992,0.97314,169.9202,73.63768)"/>
<path style="fill:none;stroke-width:0.79701;stroke-linecap:butt;stroke-linejoin:miter;stroke:rgb(100%,0%,0%);stroke-opacity:1;stroke-miterlimit:10;" d="M -0.00021875 -0.000735 L 15.281031 19.850827 " transform="matrix(1,0,0,-1,188.426,69.26489)"/>
<path style="fill:none;stroke-width:0.6376;stroke-linecap:round;stroke-linejoin:round;stroke:rgb(100%,0%,0%);stroke-opacity:1;stroke-miterlimit:10;" d="M -1.552801 2.071597 C -1.422725 1.294218 -0.00014238 0.131429 0.386709 0.000324607 C -0.000766746 -0.130332 -1.425405 -1.296007 -1.553994 -2.070379 " transform="matrix(0.60995,-0.79237,-0.79237,-0.60995,203.70579,49.41599)"/>
</g>
</svg>
