<?xml version="1.0" encoding="UTF-8"?>
<svg xmlns="http://www.w3.org/2000/svg" xmlns:xlink="http://www.w3.org/1999/xlink" width="228.56pt" height="228.90249pt" viewBox="0 0 228.56 228.90249" version="1.1">
<defs>
<clipPath id="clip1">
  <path d="M 111 225 L 117 225 L 117 228.902344 L 111 228.902344 Z M 111 225 "/>
</clipPath>
</defs>
<g id="surface1">
<path style="fill:none;stroke-width:0.3985;stroke-linecap:butt;stroke-linejoin:miter;stroke:rgb(0%,0%,0%);stroke-opacity:1;stroke-miterlimit:10;" d="M -112.987969 -0.00120375 L 112.988594 -0.00120375 " transform="matrix(1,0,0,-1,114.32,114.61989)"/>
<path style="fill:none;stroke-width:0.3985;stroke-linecap:round;stroke-linejoin:round;stroke:rgb(0%,0%,0%);stroke-opacity:1;stroke-miterlimit:10;" d="M -2.071095 2.391829 C -1.692189 0.958235 -0.848439 0.278548 -0.0007825 0.00120375 C -0.848439 -0.280046 -1.692189 -0.955827 -2.071095 -2.389421 " transform="matrix(-1,0,0,1,1.13203,114.61989)"/>
<path style="fill:none;stroke-width:0.3985;stroke-linecap:round;stroke-linejoin:round;stroke:rgb(0%,0%,0%);stroke-opacity:1;stroke-miterlimit:10;" d="M -2.07047 2.389421 C -1.69547 0.955827 -0.85172 0.280046 -0.0001575 -0.00120375 C -0.85172 -0.278548 -1.69547 -0.958235 -2.07047 -2.391829 " transform="matrix(1,0,0,-1,227.50797,114.61989)"/>
<path style="fill:none;stroke-width:0.3985;stroke-linecap:butt;stroke-linejoin:miter;stroke:rgb(0%,0%,0%);stroke-opacity:1;stroke-miterlimit:10;" d="M 0.0003125 -112.989485 L 0.0003125 112.987077 " transform="matrix(1,0,0,-1,114.32,114.61989)"/>
<g clip-path="url(#clip1)" clip-rule="nonzero">
<path style="fill:none;stroke-width:0.3985;stroke-linecap:round;stroke-linejoin:round;stroke:rgb(0%,0%,0%);stroke-opacity:1;stroke-miterlimit:10;" d="M -2.073485 2.390938 C -1.694579 0.957344 -0.850829 0.277656 0.00073375 0.0003125 C -0.850829 -0.277031 -1.694579 -0.956719 -2.073485 -2.390312 " transform="matrix(0,1,1,0,114.32,227.80786)"/>
</g>
<path style="fill:none;stroke-width:0.3985;stroke-linecap:round;stroke-linejoin:round;stroke:rgb(0%,0%,0%);stroke-opacity:1;stroke-miterlimit:10;" d="M -2.071986 2.390312 C -1.69308 0.956719 -0.84933 0.277031 -0.00167375 -0.0003125 C -0.84933 -0.277656 -1.69308 -0.957344 -2.071986 -2.390938 " transform="matrix(0,-1,-1,0,114.32,1.43192)"/>
</g>
</svg>
