<?xml version="1.0" encoding="UTF-8"?>
<svg xmlns="http://www.w3.org/2000/svg" xmlns:xlink="http://www.w3.org/1999/xlink" width="115.28pt" height="115.21139pt" viewBox="0 0 115.28 115.21139" version="1.1">
<g id="surface1">
<path style="fill:none;stroke-width:0.3985;stroke-linecap:butt;stroke-linejoin:miter;stroke:rgb(0%,0%,0%);stroke-opacity:1;stroke-miterlimit:10;" d="M -56.236375 0.0018675 L 56.236281 0.0018675 " transform="matrix(1,0,0,-1,57.627,57.44718)"/>
<path style="fill:none;stroke-width:0.31879;stroke-linecap:round;stroke-linejoin:round;stroke:rgb(0%,0%,0%);stroke-opacity:1;stroke-miterlimit:10;" d="M -1.194278 1.595789 C -1.096621 0.998133 0.001035 0.099695 0.29791 -0.0018675 C 0.001035 -0.0995237 -1.096621 -0.997961 -1.194278 -1.595617 " transform="matrix(-1,0,0,1,1.39166,57.44718)"/>
<path style="fill:none;stroke-width:0.31879;stroke-linecap:round;stroke-linejoin:round;stroke:rgb(0%,0%,0%);stroke-opacity:1;stroke-miterlimit:10;" d="M -1.194371 1.595617 C -1.096715 0.997961 0.00094125 0.0995237 0.297816 0.0018675 C 0.00094125 -0.099695 -1.096715 -0.998133 -1.194371 -1.595789 " transform="matrix(1,0,0,-1,113.86234,57.44718)"/>
<path style="fill:none;stroke-width:0.3985;stroke-linecap:butt;stroke-linejoin:miter;stroke:rgb(0%,0%,0%);stroke-opacity:1;stroke-miterlimit:10;" d="M 0.00190625 -56.236414 L 0.00190625 56.236242 " transform="matrix(1,0,0,-1,57.627,57.44718)"/>
<path style="fill:none;stroke-width:0.31879;stroke-linecap:round;stroke-linejoin:round;stroke:rgb(0%,0%,0%);stroke-opacity:1;stroke-miterlimit:10;" d="M -1.194239 1.595656 C -1.096582 0.998 0.00107375 0.0995625 0.297949 0.00190625 C 0.00107375 -0.0996562 -1.096582 -0.998094 -1.194239 -1.59575 " transform="matrix(0,1,1,0,57.627,113.68252)"/>
<path style="fill:none;stroke-width:0.31879;stroke-linecap:round;stroke-linejoin:round;stroke:rgb(0%,0%,0%);stroke-opacity:1;stroke-miterlimit:10;" d="M -1.19441 1.59575 C -1.096754 0.998094 0.0009025 0.0996562 0.297777 -0.00190625 C 0.0009025 -0.0995625 -1.096754 -0.998 -1.19441 -1.595656 " transform="matrix(0,-1,-1,0,57.627,1.21184)"/>
</g>
</svg>
