<?xml version="1.0" encoding="UTF-8"?>
<svg xmlns="http://www.w3.org/2000/svg" xmlns:xlink="http://www.w3.org/1999/xlink" width="351.92pt" height="297.0212pt" viewBox="0 0 351.92 297.0212" version="1.1">
<defs>
<clipPath id="clip1">
  <path d="M 0 40 L 351.921875 40 L 351.921875 297.019531 L 0 297.019531 Z M 0 40 "/>
</clipPath>
</defs>
<g id="surface1">
<path style="fill:none;stroke-width:0.3985;stroke-linecap:butt;stroke-linejoin:miter;stroke:rgb(0%,0%,0%);stroke-opacity:1;stroke-miterlimit:10;" d="M -0.00059375 0.00039 L -117.492781 -67.831641 " transform="matrix(1,0,0,-1,175.942,171.31289)"/>
<path style="fill:none;stroke-width:0.3985;stroke-linecap:round;stroke-linejoin:round;stroke:rgb(0%,0%,0%);stroke-opacity:1;stroke-miterlimit:10;" d="M -2.072826 2.392342 C -1.693527 0.955488 -0.848614 0.278242 0.000977358 -0.000259707 C -0.85061 -0.279924 -1.69282 -0.957427 -2.072751 -2.388969 " transform="matrix(-0.86601,0.49998,0.49998,0.86601,58.27832,239.24583)"/>
<path style="fill:none;stroke-width:0.3985;stroke-linecap:butt;stroke-linejoin:miter;stroke:rgb(0%,0%,0%);stroke-opacity:1;stroke-miterlimit:10;" d="M -0.00059375 0.00039 L 169.683 0.00039 " transform="matrix(1,0,0,-1,175.942,171.31289)"/>
<path style="fill:none;stroke-width:0.3985;stroke-linecap:round;stroke-linejoin:round;stroke:rgb(0%,0%,0%);stroke-opacity:1;stroke-miterlimit:10;" d="M -2.07359 2.391015 C -1.694684 0.957421 -0.850934 0.277734 0.00062875 0.00039 C -0.850934 -0.28086 -1.694684 -0.956641 -2.07359 -2.390235 " transform="matrix(1,0,0,-1,345.82359,171.31289)"/>
<path style="fill:none;stroke-width:0.3985;stroke-linecap:butt;stroke-linejoin:miter;stroke:rgb(0%,0%,0%);stroke-opacity:1;stroke-miterlimit:10;" d="M -0.00059375 0.00039 L -0.00059375 169.683984 " transform="matrix(1,0,0,-1,175.942,171.31289)"/>
<path style="fill:none;stroke-width:0.3985;stroke-linecap:round;stroke-linejoin:round;stroke:rgb(0%,0%,0%);stroke-opacity:1;stroke-miterlimit:10;" d="M -2.072606 2.391219 C -1.6937 0.957625 -0.84995 0.277938 0.0016125 0.00059375 C -0.84995 -0.280656 -1.6937 -0.956437 -2.072606 -2.390031 " transform="matrix(0,-1,-1,0,175.942,1.4313)"/>
<path style=" stroke:none;fill-rule:nonzero;fill:rgb(94.999695%,79.998779%,84.999084%);fill-opacity:0.5;" d="M 158.527344 91.941406 L 1.414062 296.039062 L 193.355469 250.683594 L 350.472656 46.585938 L 158.527344 91.941406 "/>
<g clip-path="url(#clip1)" clip-rule="nonzero">
<path style="fill:none;stroke-width:0.3985;stroke-linecap:butt;stroke-linejoin:miter;stroke:rgb(0%,0%,0%);stroke-opacity:1;stroke-miterlimit:10;" d="M -17.414656 79.371484 L -174.527938 -124.726172 L 17.413469 -79.370704 L 174.530656 124.726953 L -17.414656 79.371484 " transform="matrix(1,0,0,-1,175.942,171.31289)"/>
</g>
<path style="fill:none;stroke-width:0.79701;stroke-linecap:butt;stroke-linejoin:miter;stroke:rgb(0%,0%,100%);stroke-opacity:1;stroke-miterlimit:10;" d="M -0.00059375 0.00039 L -47.211531 -11.15586 " transform="matrix(1,0,0,-1,175.942,171.31289)"/>
<path style="fill:none;stroke-width:0.79701;stroke-linecap:round;stroke-linejoin:round;stroke:rgb(0%,0%,100%);stroke-opacity:1;stroke-miterlimit:10;" d="M -2.548912 3.109574 C -2.08605 1.246064 -1.046509 0.362208 -0.000444773 -0.00136053 C -1.04562 -0.364549 -2.084116 -1.243115 -2.54978 -3.112026 " transform="matrix(-0.97314,0.22993,0.22993,0.97314,128.34363,182.56002)"/>
<path style="fill:none;stroke-width:0.79701;stroke-linecap:butt;stroke-linejoin:miter;stroke:rgb(100%,0%,0%);stroke-opacity:1;stroke-miterlimit:10;" d="M -0.00059375 0.00039 L 38.792375 50.391015 " transform="matrix(1,0,0,-1,175.942,171.31289)"/>
<path style="fill:none;stroke-width:0.79701;stroke-linecap:round;stroke-linejoin:round;stroke:rgb(100%,0%,0%);stroke-opacity:1;stroke-miterlimit:10;" d="M -2.549518 3.111615 C -2.08466 1.246099 -1.046123 0.364471 -0.00157191 0.000175065 C -1.046348 -0.365317 -2.085469 -1.244088 -2.551185 -3.111115 " transform="matrix(0.60995,-0.79237,-0.79237,-0.60995,214.97766,120.60433)"/>
</g>
</svg>
