<?xml version="1.0" encoding="UTF-8"?>
<svg xmlns="http://www.w3.org/2000/svg" xmlns:xlink="http://www.w3.org/1999/xlink" width="228.56pt" height="228.56pt" viewBox="0 0 228.56 228.56" version="1.1">
<g id="surface1">
<path style="fill:none;stroke-width:0.3985;stroke-linecap:butt;stroke-linejoin:miter;stroke:rgb(0%,0%,0%);stroke-opacity:1;stroke-miterlimit:10;" d="M -112.987969 -0.00046875 L 112.988594 -0.00046875 " transform="matrix(1,0,0,-1,114.32,114.105)"/>
<path style="fill:none;stroke-width:0.3985;stroke-linecap:round;stroke-linejoin:round;stroke:rgb(0%,0%,0%);stroke-opacity:1;stroke-miterlimit:10;" d="M -2.071095 2.391094 C -1.692189 0.9575 -0.848439 0.277813 -0.0007825 0.00046875 C -0.848439 -0.280781 -1.692189 -0.956562 -2.071095 -2.390156 " transform="matrix(-1,0,0,1,1.13203,114.105)"/>
<path style="fill:none;stroke-width:0.3985;stroke-linecap:round;stroke-linejoin:round;stroke:rgb(0%,0%,0%);stroke-opacity:1;stroke-miterlimit:10;" d="M -2.07047 2.390156 C -1.69547 0.956562 -0.85172 0.280781 -0.0001575 -0.00046875 C -0.85172 -0.277813 -1.69547 -0.9575 -2.07047 -2.391094 " transform="matrix(1,0,0,-1,227.50797,114.105)"/>
<path style="fill:none;stroke-width:0.3985;stroke-linecap:butt;stroke-linejoin:miter;stroke:rgb(0%,0%,0%);stroke-opacity:1;stroke-miterlimit:10;" d="M 0.0003125 -112.98875 L 0.0003125 112.987812 " transform="matrix(1,0,0,-1,114.32,114.105)"/>
<path style="fill:none;stroke-width:0.3985;stroke-linecap:round;stroke-linejoin:round;stroke:rgb(0%,0%,0%);stroke-opacity:1;stroke-miterlimit:10;" d="M -2.070314 2.390938 C -1.695314 0.957344 -0.851564 0.277656 -0.00000125 0.0003125 C -0.851564 -0.277031 -1.695314 -0.956719 -2.070314 -2.390312 " transform="matrix(0,1,1,0,114.32,227.29297)"/>
<path style="fill:none;stroke-width:0.3985;stroke-linecap:round;stroke-linejoin:round;stroke:rgb(0%,0%,0%);stroke-opacity:1;stroke-miterlimit:10;" d="M -2.071251 2.390312 C -1.692345 0.956719 -0.848595 0.277031 -0.00093875 -0.0003125 C -0.848595 -0.277656 -1.692345 -0.957344 -2.071251 -2.390938 " transform="matrix(0,-1,-1,0,114.32,0.91703)"/>
</g>
</svg>
