<?xml version="1.0" encoding="UTF-8"?>
<svg xmlns="http://www.w3.org/2000/svg" xmlns:xlink="http://www.w3.org/1999/xlink" width="351.44pt" height="297.2pt" viewBox="0 0 351.44 297.2" version="1.1">
<defs>
<clipPath id="clip1">
  <path d="M 0 40 L 351.441406 40 L 351.441406 297.199219 L 0 297.199219 Z M 0 40 "/>
</clipPath>
</defs>
<g id="surface1">
<path style="fill:none;stroke-width:0.3985;stroke-linecap:butt;stroke-linejoin:miter;stroke:rgb(0%,0%,0%);stroke-opacity:1;stroke-miterlimit:10;" d="M -0.00059375 0.00065625 L -117.492781 -67.831375 " transform="matrix(1,0,0,-1,175.942,171.278)"/>
<path style="fill:none;stroke-width:0.3985;stroke-linecap:round;stroke-linejoin:round;stroke:rgb(0%,0%,0%);stroke-opacity:1;stroke-miterlimit:10;" d="M -2.072959 2.392111 C -1.69366 0.955257 -0.848747 0.278011 0.000844232 -0.000490293 C -0.850743 -0.280155 -1.692953 -0.957657 -2.072884 -2.3892 " transform="matrix(-0.86601,0.49998,0.49998,0.86601,58.27832,239.21094)"/>
<path style="fill:none;stroke-width:0.3985;stroke-linecap:butt;stroke-linejoin:miter;stroke:rgb(0%,0%,0%);stroke-opacity:1;stroke-miterlimit:10;" d="M -0.00059375 0.00065625 L 169.683 0.00065625 " transform="matrix(1,0,0,-1,175.942,171.278)"/>
<path style="fill:none;stroke-width:0.3985;stroke-linecap:round;stroke-linejoin:round;stroke:rgb(0%,0%,0%);stroke-opacity:1;stroke-miterlimit:10;" d="M -2.07359 2.391281 C -1.694684 0.957687 -0.850934 0.278 0.00062875 0.00065625 C -0.850934 -0.280594 -1.694684 -0.956375 -2.07359 -2.389969 " transform="matrix(1,0,0,-1,345.82359,171.278)"/>
<path style="fill:none;stroke-width:0.3985;stroke-linecap:butt;stroke-linejoin:miter;stroke:rgb(0%,0%,0%);stroke-opacity:1;stroke-miterlimit:10;" d="M -0.00059375 0.00065625 L -0.00059375 169.68425 " transform="matrix(1,0,0,-1,175.942,171.278)"/>
<path style="fill:none;stroke-width:0.3985;stroke-linecap:round;stroke-linejoin:round;stroke:rgb(0%,0%,0%);stroke-opacity:1;stroke-miterlimit:10;" d="M -2.07234 2.391219 C -1.693434 0.957625 -0.849684 0.277938 0.00187875 0.00059375 C -0.849684 -0.280656 -1.693434 -0.956437 -2.07234 -2.390031 " transform="matrix(0,-1,-1,0,175.942,1.39641)"/>
<path style=" stroke:none;fill-rule:nonzero;fill:rgb(94.999695%,79.998779%,84.999084%);fill-opacity:0.5;" d="M 158.527344 91.90625 L 1.414062 296.003906 L 193.355469 250.648438 L 350.472656 46.550781 L 158.527344 91.90625 "/>
<g clip-path="url(#clip1)" clip-rule="nonzero">
<path style="fill:none;stroke-width:0.3985;stroke-linecap:butt;stroke-linejoin:miter;stroke:rgb(0%,0%,0%);stroke-opacity:1;stroke-miterlimit:10;" d="M -17.414656 79.37175 L -174.527938 -124.725906 L 17.413469 -79.370438 L 174.530656 124.727219 L -17.414656 79.37175 " transform="matrix(1,0,0,-1,175.942,171.278)"/>
</g>
<path style="fill:none;stroke-width:0.79701;stroke-linecap:butt;stroke-linejoin:miter;stroke:rgb(0%,0%,100%);stroke-opacity:1;stroke-miterlimit:10;" d="M -0.00059375 0.00065625 L -47.211531 -11.155594 " transform="matrix(1,0,0,-1,175.942,171.278)"/>
<path style="fill:none;stroke-width:0.79701;stroke-linecap:round;stroke-linejoin:round;stroke:rgb(0%,0%,100%);stroke-opacity:1;stroke-miterlimit:10;" d="M -2.548973 3.109315 C -2.086111 1.245804 -1.046571 0.361949 -0.000505999 -0.00161966 C -1.045681 -0.364808 -2.084178 -1.243375 -2.549841 -3.112285 " transform="matrix(-0.97314,0.22993,0.22993,0.97314,128.34363,182.52513)"/>
<path style="fill:none;stroke-width:0.79701;stroke-linecap:butt;stroke-linejoin:miter;stroke:rgb(100%,0%,0%);stroke-opacity:1;stroke-miterlimit:10;" d="M -0.00059375 0.00065625 L 38.792375 50.391281 " transform="matrix(1,0,0,-1,175.942,171.278)"/>
<path style="fill:none;stroke-width:0.79701;stroke-linecap:round;stroke-linejoin:round;stroke:rgb(100%,0%,0%);stroke-opacity:1;stroke-miterlimit:10;" d="M -2.549307 3.111777 C -2.084449 1.246262 -1.045912 0.364633 -0.00136091 0.000337482 C -1.046137 -0.365155 -2.085258 -1.243926 -2.550974 -3.110953 " transform="matrix(0.60995,-0.79237,-0.79237,-0.60995,214.97766,120.56944)"/>
</g>
</svg>
