<?xml version="1.0" encoding="UTF-8"?>
<svg xmlns="http://www.w3.org/2000/svg" xmlns:xlink="http://www.w3.org/1999/xlink" width="117.2pt" height="97.46215pt" viewBox="0 0 117.2 97.46215" version="1.1">
<defs>
<clipPath id="clip1">
  <path d="M 0 63 L 54 63 L 54 97.460938 L 0 97.460938 Z M 0 63 "/>
</clipPath>
</defs>
<g id="surface1">
<g clip-path="url(#clip1)" clip-rule="nonzero">
<path style="fill:none;stroke-width:0.3985;stroke-linecap:butt;stroke-linejoin:miter;stroke:rgb(0%,0%,0%);stroke-opacity:1;stroke-miterlimit:10;" d="M -0.00059375 0.00002375 L -46.734969 -26.984351 " transform="matrix(1,0,0,-1,48.067,68.78518)"/>
</g>
<path style="fill:none;stroke-width:0.31879;stroke-linecap:round;stroke-linejoin:round;stroke:rgb(0%,0%,0%);stroke-opacity:1;stroke-miterlimit:10;" d="M -1.197231 1.594361 C -1.096689 0.995039 0.00114599 0.0996014 0.299654 -0.00056839 C -0.000216846 -0.0980795 -1.095356 -0.994918 -1.197831 -1.594307 " transform="matrix(-0.86601,0.49998,0.49998,0.86601,1.3301,95.76864)"/>
<path style="fill:none;stroke-width:0.3985;stroke-linecap:butt;stroke-linejoin:miter;stroke:rgb(0%,0%,0%);stroke-opacity:1;stroke-miterlimit:10;" d="M -0.00059375 0.00002375 L 67.573625 0.00002375 " transform="matrix(1,0,0,-1,48.067,68.78518)"/>
<path style="fill:none;stroke-width:0.31879;stroke-linecap:round;stroke-linejoin:round;stroke:rgb(0%,0%,0%);stroke-opacity:1;stroke-miterlimit:10;" d="M -1.194697 1.593774 C -1.097041 0.996117 0.000615 0.09768 0.29749 0.00002375 C 0.000615 -0.101539 -1.097041 -0.99607 -1.194697 -1.593726 " transform="matrix(1,0,0,-1,115.64001,68.78518)"/>
<path style="fill:none;stroke-width:0.3985;stroke-linecap:butt;stroke-linejoin:miter;stroke:rgb(0%,0%,0%);stroke-opacity:1;stroke-miterlimit:10;" d="M -0.00059375 0.00002375 L -0.00059375 67.574242 " transform="matrix(1,0,0,-1,48.067,68.78518)"/>
<path style="fill:none;stroke-width:0.31879;stroke-linecap:round;stroke-linejoin:round;stroke:rgb(0%,0%,0%);stroke-opacity:1;stroke-miterlimit:10;" d="M -1.19408 1.594344 C -1.096424 0.996687 0.0012325 0.09825 0.298107 0.00059375 C 0.0012325 -0.100969 -1.096424 -0.9955 -1.19408 -1.593156 " transform="matrix(0,-1,-1,0,48.067,1.21217)"/>
</g>
</svg>
