<?xml version="1.0" encoding="UTF-8"?>
<svg xmlns="http://www.w3.org/2000/svg" xmlns:xlink="http://www.w3.org/1999/xlink" width="290pt" height="241.52pt" viewBox="0 0 290 241.52" version="1.1">
<defs>
<clipPath id="clip1">
  <path d="M 0 165 L 125 165 L 125 241.519531 L 0 241.519531 Z M 0 165 "/>
</clipPath>
</defs>
<g id="surface1">
<g clip-path="url(#clip1)" clip-rule="nonzero">
<path style="fill:none;stroke-width:0.3985;stroke-linecap:butt;stroke-linejoin:miter;stroke:rgb(0%,0%,0%);stroke-opacity:1;stroke-miterlimit:10;" d="M 0.00053125 0.00065625 L -117.491656 -67.831375 " transform="matrix(1,0,0,-1,118.769,171.278)"/>
</g>
<path style="fill:none;stroke-width:0.3985;stroke-linecap:round;stroke-linejoin:round;stroke:rgb(0%,0%,0%);stroke-opacity:1;stroke-miterlimit:10;" d="M -2.070551 2.39072 C -1.694634 0.95582 -0.849722 0.278574 -0.000130075 0.0000722104 C -0.851717 -0.279592 -1.693928 -0.957095 -2.070475 -2.39059 " transform="matrix(-0.86601,0.49998,0.49998,0.86601,1.10532,239.21094)"/>
<path style="fill:none;stroke-width:0.3985;stroke-linecap:butt;stroke-linejoin:miter;stroke:rgb(0%,0%,0%);stroke-opacity:1;stroke-miterlimit:10;" d="M 0.00053125 0.00065625 L 169.684125 0.00065625 " transform="matrix(1,0,0,-1,118.769,171.278)"/>
<path style="fill:none;stroke-width:0.3985;stroke-linecap:round;stroke-linejoin:round;stroke:rgb(0%,0%,0%);stroke-opacity:1;stroke-miterlimit:10;" d="M -2.072465 2.391281 C -1.693559 0.957687 -0.849809 0.278 0.00175375 0.00065625 C -0.849809 -0.280594 -1.693559 -0.956375 -2.072465 -2.389969 " transform="matrix(1,0,0,-1,288.65059,171.278)"/>
<path style="fill:none;stroke-width:0.3985;stroke-linecap:butt;stroke-linejoin:miter;stroke:rgb(0%,0%,0%);stroke-opacity:1;stroke-miterlimit:10;" d="M 0.00053125 0.00065625 L 0.00053125 169.68425 " transform="matrix(1,0,0,-1,118.769,171.278)"/>
<path style="fill:none;stroke-width:0.3985;stroke-linecap:round;stroke-linejoin:round;stroke:rgb(0%,0%,0%);stroke-opacity:1;stroke-miterlimit:10;" d="M -2.07234 2.390094 C -1.693434 0.9565 -0.849684 0.280719 0.00187875 -0.00053125 C -0.849684 -0.277875 -1.693434 -0.957563 -2.07234 -2.391156 " transform="matrix(0,-1,-1,0,118.769,1.39641)"/>
</g>
</svg>
