<?xml version="1.0" encoding="UTF-8"?>
<svg xmlns="http://www.w3.org/2000/svg" xmlns:xlink="http://www.w3.org/1999/xlink" width="290pt" height="241.37493pt" viewBox="0 0 290 241.37493" version="1.1">
<defs>
<clipPath id="clip1">
  <path d="M 0 165 L 125 165 L 125 241.375 L 0 241.375 Z M 0 165 "/>
</clipPath>
</defs>
<g id="surface1">
<g clip-path="url(#clip1)" clip-rule="nonzero">
<path style="fill:none;stroke-width:0.3985;stroke-linecap:butt;stroke-linejoin:miter;stroke:rgb(0%,0%,0%);stroke-opacity:1;stroke-miterlimit:10;" d="M 0.00053125 0.00039 L -117.491656 -67.831641 " transform="matrix(1,0,0,-1,118.769,171.31289)"/>
</g>
<path style="fill:none;stroke-width:0.3985;stroke-linecap:round;stroke-linejoin:round;stroke:rgb(0%,0%,0%);stroke-opacity:1;stroke-miterlimit:10;" d="M -2.070418 2.390951 C -1.694501 0.95605 -0.849589 0.278804 0.00000305088 0.000302796 C -0.851584 -0.279362 -1.693795 -0.956864 -2.070342 -2.39036 " transform="matrix(-0.86601,0.49998,0.49998,0.86601,1.10532,239.24583)"/>
<path style="fill:none;stroke-width:0.3985;stroke-linecap:butt;stroke-linejoin:miter;stroke:rgb(0%,0%,0%);stroke-opacity:1;stroke-miterlimit:10;" d="M 0.00053125 0.00039 L 169.684125 0.00039 " transform="matrix(1,0,0,-1,118.769,171.31289)"/>
<path style="fill:none;stroke-width:0.3985;stroke-linecap:round;stroke-linejoin:round;stroke:rgb(0%,0%,0%);stroke-opacity:1;stroke-miterlimit:10;" d="M -2.072465 2.391015 C -1.693559 0.957421 -0.849809 0.277734 0.00175375 0.00039 C -0.849809 -0.28086 -1.693559 -0.956641 -2.072465 -2.390235 " transform="matrix(1,0,0,-1,288.65059,171.31289)"/>
<path style="fill:none;stroke-width:0.3985;stroke-linecap:butt;stroke-linejoin:miter;stroke:rgb(0%,0%,0%);stroke-opacity:1;stroke-miterlimit:10;" d="M 0.00053125 0.00039 L 0.00053125 169.683984 " transform="matrix(1,0,0,-1,118.769,171.31289)"/>
<path style="fill:none;stroke-width:0.3985;stroke-linecap:round;stroke-linejoin:round;stroke:rgb(0%,0%,0%);stroke-opacity:1;stroke-miterlimit:10;" d="M -2.072606 2.390094 C -1.6937 0.9565 -0.84995 0.280719 0.0016125 -0.00053125 C -0.84995 -0.277875 -1.6937 -0.957563 -2.072606 -2.391156 " transform="matrix(0,-1,-1,0,118.769,1.4313)"/>
</g>
</svg>
