<?xml version="1.0" encoding="UTF-8"?>
<svg xmlns="http://www.w3.org/2000/svg" xmlns:xlink="http://www.w3.org/1999/xlink" width="349.04pt" height="63.44pt" viewBox="0 0 349.04 63.44" version="1.1">
<defs>
<clipPath id="clip1">
  <path d="M 0 28 L 45 28 L 45 63.441406 L 0 63.441406 Z M 0 28 "/>
</clipPath>
<clipPath id="clip2">
  <path d="M 300 29 L 327 29 L 327 63.441406 L 300 63.441406 Z M 300 29 "/>
</clipPath>
<clipPath id="clip3">
  <path d="M 304 29 L 349.039062 29 L 349.039062 57 L 304 57 Z M 304 29 "/>
</clipPath>
</defs>
<g id="surface1">
<path style="fill:none;stroke-width:0.3985;stroke-linecap:butt;stroke-linejoin:miter;stroke:rgb(0%,0%,0%);stroke-opacity:1;stroke-miterlimit:10;" d="M -0.00075 -0.0005625 L 32.397688 -0.0005625 " transform="matrix(1,0,0,-1,33.532,40.101)"/>
<path style="fill:none;stroke-width:0.3985;stroke-linecap:butt;stroke-linejoin:miter;stroke:rgb(0%,0%,0%);stroke-opacity:1;stroke-miterlimit:10;" d="M -0.00075 -0.0005625 L -0.00075 32.397875 " transform="matrix(1,0,0,-1,33.532,40.101)"/>
<path style="fill:none;stroke-width:0.3985;stroke-linecap:butt;stroke-linejoin:miter;stroke:rgb(0%,0%,0%);stroke-opacity:1;stroke-miterlimit:10;" d="M -0.00075 -0.0005625 L -21.598406 -10.801344 " transform="matrix(1,0,0,-1,33.532,40.101)"/>
<path style="fill:none;stroke-width:0.79701;stroke-linecap:butt;stroke-linejoin:miter;stroke:rgb(0%,0%,100%);stroke-opacity:1;stroke-miterlimit:10;" d="M -0.00075 -0.0005625 L 17.428938 8.714281 " transform="matrix(1,0,0,-1,33.532,40.101)"/>
<path style=" stroke:none;fill-rule:nonzero;fill:rgb(0%,0%,100%);fill-opacity:1;" d="M 55.132812 29.300781 C 53.78125 29.6875 51.425781 29.996094 49.628906 29.878906 L 51.367188 33.355469 C 52.351562 31.847656 54.011719 30.152344 55.132812 29.300781 "/>
<path style="fill:none;stroke-width:0.79701;stroke-linecap:butt;stroke-linejoin:miter;stroke:rgb(0%,0%,100%);stroke-opacity:1;stroke-miterlimit:10;" d="M -0.00075 -0.0005625 L 8.714094 17.429125 " transform="matrix(1,0,0,-1,33.532,40.101)"/>
<path style=" stroke:none;fill-rule:nonzero;fill:rgb(0%,0%,100%);fill-opacity:1;" d="M 44.332031 18.5 C 43.480469 19.621094 41.785156 21.28125 40.277344 22.265625 L 43.753906 24.003906 C 43.636719 22.207031 43.945312 19.851562 44.332031 18.5 "/>
<path style="fill:none;stroke-width:0.79701;stroke-linecap:butt;stroke-linejoin:miter;stroke:rgb(0%,0%,100%);stroke-opacity:1;stroke-miterlimit:10;" d="M -0.00075 -0.0005625 L -0.00075 16.936938 " transform="matrix(1,0,0,-1,33.532,40.101)"/>
<path style=" stroke:none;fill-rule:nonzero;fill:rgb(0%,0%,100%);fill-opacity:1;" d="M 33.53125 18.5 C 33.273438 19.882812 32.496094 22.128906 31.589844 23.683594 L 35.476562 23.683594 C 34.566406 22.128906 33.792969 19.882812 33.53125 18.5 "/>
<path style="fill:none;stroke-width:0.79701;stroke-linecap:butt;stroke-linejoin:miter;stroke:rgb(0%,0%,100%);stroke-opacity:1;stroke-miterlimit:10;" d="M -0.00075 -0.0005625 L 7.503156 -7.504469 " transform="matrix(1,0,0,-1,33.532,40.101)"/>
<path style=" stroke:none;fill-rule:nonzero;fill:rgb(0%,0%,100%);fill-opacity:1;" d="M 44.332031 50.902344 C 43.539062 49.742188 42.5 47.605469 42.042969 45.863281 L 39.292969 48.609375 C 41.035156 49.070312 43.171875 50.105469 44.332031 50.902344 "/>
<path style="fill:none;stroke-width:0.79701;stroke-linecap:butt;stroke-linejoin:miter;stroke:rgb(0%,0%,100%);stroke-opacity:1;stroke-miterlimit:10;" d="M -0.00075 -0.0005625 L -19.012469 28.518969 " transform="matrix(1,0,0,-1,33.532,40.101)"/>
<path style=" stroke:none;fill-rule:nonzero;fill:rgb(0%,0%,100%);fill-opacity:1;" d="M 11.933594 7.703125 C 12.484375 8.996094 13.082031 11.292969 13.191406 13.089844 L 16.421875 10.933594 C 14.804688 10.144531 12.914062 8.707031 11.933594 7.703125 "/>
<g clip-path="url(#clip1)" clip-rule="nonzero">
<path style="fill:none;stroke-width:0.79701;stroke-linecap:butt;stroke-linejoin:miter;stroke:rgb(0%,0%,100%);stroke-opacity:1;stroke-miterlimit:10;" d="M -0.00075 -0.0005625 L -28.520281 -19.012281 " transform="matrix(1,0,0,-1,33.532,40.101)"/>
</g>
<path style=" stroke:none;fill-rule:nonzero;fill:rgb(0%,0%,100%);fill-opacity:1;" d="M 1.132812 61.699219 C 2.425781 61.148438 4.726562 60.550781 6.519531 60.441406 L 4.367188 57.210938 C 3.574219 58.828125 2.136719 60.71875 1.132812 61.699219 "/>
<path style="fill:none;stroke-width:0.3985;stroke-linecap:butt;stroke-linejoin:miter;stroke:rgb(0%,0%,0%);stroke-opacity:1;stroke-dasharray:2.98883,2.98883;stroke-miterlimit:10;" d="M 32.397688 32.397875 C 46.987531 40.823656 61.007063 40.823656 72.491438 34.190844 " transform="matrix(1,0,0,-1,33.532,40.101)"/>
<path style=" stroke:none;fill-rule:nonzero;fill:rgb(0%,0%,0%);fill-opacity:1;" d="M 109.128906 7.703125 C 108.308594 6.996094 107.113281 5.617188 106.425781 4.414062 L 104.929688 7.003906 C 106.316406 6.996094 108.109375 7.34375 109.128906 7.703125 "/>
<path style="fill:none;stroke-width:0.3985;stroke-linecap:butt;stroke-linejoin:miter;stroke:rgb(0%,0%,0%);stroke-opacity:1;stroke-miterlimit:10;" d="M 75.596906 10.800219 L 118.796125 10.800219 " transform="matrix(1,0,0,-1,33.532,40.101)"/>
<path style="fill:none;stroke-width:0.3985;stroke-linecap:butt;stroke-linejoin:miter;stroke:rgb(0%,0%,0%);stroke-opacity:1;stroke-miterlimit:10;" d="M 97.198469 -10.801344 L 97.198469 32.397875 " transform="matrix(1,0,0,-1,33.532,40.101)"/>
<path style="fill:none;stroke-width:0.79701;stroke-linecap:butt;stroke-linejoin:miter;stroke:rgb(0%,0%,100%);stroke-opacity:1;stroke-miterlimit:10;" d="M 97.198469 10.800219 L 101.468 27.874438 " transform="matrix(1,0,0,-1,33.532,40.101)"/>
<path style=" stroke:none;fill-rule:nonzero;fill:rgb(0%,0%,100%);fill-opacity:1;" d="M 136.128906 7.703125 C 135.542969 8.980469 134.246094 10.96875 132.988281 12.257812 L 136.757812 13.199219 C 136.253906 11.472656 136.046875 9.105469 136.128906 7.703125 "/>
<path style="fill:none;stroke-width:0.79701;stroke-linecap:butt;stroke-linejoin:miter;stroke:rgb(0%,0%,100%);stroke-opacity:1;stroke-miterlimit:10;" d="M 97.198469 10.800219 L 114.628156 19.515063 " transform="matrix(1,0,0,-1,33.532,40.101)"/>
<path style=" stroke:none;fill-rule:nonzero;fill:rgb(0%,0%,100%);fill-opacity:1;" d="M 152.328125 18.5 C 150.976562 18.886719 148.621094 19.195312 146.828125 19.082031 L 148.5625 22.554688 C 149.546875 21.050781 151.207031 19.351562 152.328125 18.5 "/>
<path style="fill:none;stroke-width:0.79701;stroke-linecap:butt;stroke-linejoin:miter;stroke:rgb(0%,0%,100%);stroke-opacity:1;stroke-miterlimit:10;" d="M 97.198469 10.800219 L 84.878156 19.015063 " transform="matrix(1,0,0,-1,33.532,40.101)"/>
<path style=" stroke:none;fill-rule:nonzero;fill:rgb(0%,0%,100%);fill-opacity:1;" d="M 114.53125 18.5 C 115.535156 19.484375 116.972656 21.375 117.761719 22.992188 L 119.917969 19.757812 C 118.121094 19.652344 115.824219 19.050781 114.53125 18.5 "/>
<path style="fill:none;stroke-width:0.79701;stroke-linecap:butt;stroke-linejoin:miter;stroke:rgb(0%,0%,100%);stroke-opacity:1;stroke-miterlimit:10;" d="M 97.198469 10.800219 L 97.198469 -0.738844 " transform="matrix(1,0,0,-1,33.532,40.101)"/>
<path style=" stroke:none;fill-rule:nonzero;fill:rgb(0%,0%,100%);fill-opacity:1;" d="M 130.730469 45.5 C 130.988281 44.121094 131.765625 41.875 132.671875 40.320312 L 128.785156 40.320312 C 129.691406 41.875 130.46875 44.121094 130.730469 45.5 "/>
<path style="fill:none;stroke-width:0.79701;stroke-linecap:butt;stroke-linejoin:miter;stroke:rgb(0%,0%,100%);stroke-opacity:1;stroke-miterlimit:10;" d="M 97.198469 10.800219 L 115.49925 -7.504469 " transform="matrix(1,0,0,-1,33.532,40.101)"/>
<path style=" stroke:none;fill-rule:nonzero;fill:rgb(0%,0%,100%);fill-opacity:1;" d="M 152.328125 50.902344 C 151.535156 49.742188 150.496094 47.605469 150.039062 45.863281 L 147.292969 48.609375 C 149.03125 49.070312 151.167969 50.105469 152.328125 50.902344 "/>
<path style=" stroke:none;fill-rule:nonzero;fill:rgb(0%,0%,100%);fill-opacity:0.5;" d="M 109.128906 50.902344 L 109.128906 7.703125 L 152.328125 7.703125 L 152.328125 50.902344 Z M 109.128906 50.902344 "/>
<path style="fill:none;stroke-width:0.3985;stroke-linecap:butt;stroke-linejoin:miter;stroke:rgb(0%,0%,0%);stroke-opacity:1;stroke-miterlimit:10;" d="M -21.598063 10.799781 L 21.601156 10.799781 " transform="matrix(1,0,0,-1,218.184,40.499)"/>
<path style="fill:none;stroke-width:0.3985;stroke-linecap:butt;stroke-linejoin:miter;stroke:rgb(0%,0%,0%);stroke-opacity:1;stroke-miterlimit:10;" d="M -0.00040625 -10.797875 L -0.00040625 32.397438 " transform="matrix(1,0,0,-1,218.184,40.499)"/>
<path style="fill:none;stroke-width:0.79701;stroke-linecap:butt;stroke-linejoin:miter;stroke:rgb(0%,0%,100%);stroke-opacity:1;stroke-miterlimit:10;" d="M -0.00040625 10.799781 L 4.269125 27.874 " transform="matrix(1,0,0,-1,218.184,40.499)"/>
<path style=" stroke:none;fill-rule:nonzero;fill:rgb(0%,0%,100%);fill-opacity:1;" d="M 223.582031 8.101562 C 222.996094 9.378906 221.699219 11.367188 220.441406 12.65625 L 224.210938 13.597656 C 223.710938 11.871094 223.5 9.503906 223.582031 8.101562 "/>
<path style="fill:none;stroke-width:0.79701;stroke-linecap:butt;stroke-linejoin:miter;stroke:rgb(0%,0%,100%);stroke-opacity:1;stroke-miterlimit:10;" d="M -0.00040625 10.799781 L 17.429281 19.514625 " transform="matrix(1,0,0,-1,218.184,40.499)"/>
<path style=" stroke:none;fill-rule:nonzero;fill:rgb(0%,0%,100%);fill-opacity:1;" d="M 239.785156 18.898438 C 238.433594 19.285156 236.078125 19.59375 234.28125 19.480469 L 236.019531 22.953125 C 237.003906 21.449219 238.664062 19.75 239.785156 18.898438 "/>
<path style="fill:none;stroke-width:0.79701;stroke-linecap:butt;stroke-linejoin:miter;stroke:rgb(0%,0%,100%);stroke-opacity:1;stroke-miterlimit:10;" d="M -0.00040625 10.799781 L -12.320719 19.014625 " transform="matrix(1,0,0,-1,218.184,40.499)"/>
<path style=" stroke:none;fill-rule:nonzero;fill:rgb(0%,0%,100%);fill-opacity:1;" d="M 201.984375 18.898438 C 202.988281 19.882812 204.425781 21.773438 205.21875 23.390625 L 207.371094 20.15625 C 205.578125 20.050781 203.277344 19.449219 201.984375 18.898438 "/>
<path style="fill:none;stroke-width:0.79701;stroke-linecap:butt;stroke-linejoin:miter;stroke:rgb(0%,0%,100%);stroke-opacity:1;stroke-miterlimit:10;" d="M -0.00040625 10.799781 L -0.00040625 -0.739281 " transform="matrix(1,0,0,-1,218.184,40.499)"/>
<path style=" stroke:none;fill-rule:nonzero;fill:rgb(0%,0%,100%);fill-opacity:1;" d="M 218.183594 45.898438 C 218.441406 44.515625 219.21875 42.273438 220.125 40.71875 L 216.242188 40.71875 C 217.148438 42.273438 217.925781 44.515625 218.183594 45.898438 "/>
<path style="fill:none;stroke-width:0.79701;stroke-linecap:butt;stroke-linejoin:miter;stroke:rgb(0%,0%,100%);stroke-opacity:1;stroke-miterlimit:10;" d="M -0.00040625 10.799781 L 18.304281 -7.501 " transform="matrix(1,0,0,-1,218.184,40.499)"/>
<path style=" stroke:none;fill-rule:nonzero;fill:rgb(0%,0%,100%);fill-opacity:1;" d="M 239.785156 51.296875 C 238.988281 50.136719 237.953125 48 237.492188 46.261719 L 234.746094 49.007812 C 236.488281 49.46875 238.625 50.503906 239.785156 51.296875 "/>
<path style="fill:none;stroke-width:0.3985;stroke-linecap:butt;stroke-linejoin:miter;stroke:rgb(0%,0%,0%);stroke-opacity:1;stroke-dasharray:2.98883,2.98883;stroke-miterlimit:10;" d="M 32.398031 32.397438 C 46.987875 40.823219 61.007406 40.823219 72.491781 34.190406 " transform="matrix(1,0,0,-1,218.184,40.499)"/>
<path style=" stroke:none;fill-rule:nonzero;fill:rgb(0%,0%,0%);fill-opacity:1;" d="M 293.78125 8.101562 C 292.960938 7.394531 291.765625 6.015625 291.078125 4.8125 L 289.582031 7.402344 C 290.96875 7.394531 292.761719 7.742188 293.78125 8.101562 "/>
<path style="fill:none;stroke-width:0.3985;stroke-linecap:butt;stroke-linejoin:miter;stroke:rgb(0%,0%,0%);stroke-opacity:1;stroke-miterlimit:10;" d="M 97.198812 -0.001 L 129.59725 -0.001 " transform="matrix(1,0,0,-1,218.184,40.499)"/>
<path style="fill:none;stroke-width:0.3985;stroke-linecap:butt;stroke-linejoin:miter;stroke:rgb(0%,0%,0%);stroke-opacity:1;stroke-miterlimit:10;" d="M 97.198812 -0.001 L 97.198812 32.397438 " transform="matrix(1,0,0,-1,218.184,40.499)"/>
<path style="fill:none;stroke-width:0.3985;stroke-linecap:butt;stroke-linejoin:miter;stroke:rgb(0%,0%,0%);stroke-opacity:1;stroke-miterlimit:10;" d="M 97.198812 -0.001 L 75.59725 -10.797875 " transform="matrix(1,0,0,-1,218.184,40.499)"/>
<path style="fill:none;stroke-width:0.79701;stroke-linecap:butt;stroke-linejoin:miter;stroke:rgb(0%,0%,100%);stroke-opacity:1;stroke-miterlimit:10;" d="M 97.198812 -0.001 L 101.124594 11.776344 " transform="matrix(1,0,0,-1,218.184,40.499)"/>
<path style=" stroke:none;fill-rule:nonzero;fill:rgb(0%,0%,100%);fill-opacity:1;" d="M 320.78125 24.300781 C 320.097656 25.527344 318.652344 27.410156 317.300781 28.601562 L 320.984375 29.828125 C 320.617188 28.066406 320.589844 25.691406 320.78125 24.300781 "/>
<path style="fill:none;stroke-width:0.79701;stroke-linecap:butt;stroke-linejoin:miter;stroke:rgb(0%,0%,100%);stroke-opacity:1;stroke-miterlimit:10;" d="M 97.198812 -0.001 L 114.6285 8.713844 " transform="matrix(1,0,0,-1,218.184,40.499)"/>
<path style=" stroke:none;fill-rule:nonzero;fill:rgb(0%,0%,100%);fill-opacity:1;" d="M 336.980469 29.699219 C 335.628906 30.085938 333.273438 30.394531 331.480469 30.277344 L 333.214844 33.753906 C 334.199219 32.246094 335.859375 30.546875 336.980469 29.699219 "/>
<path style="fill:none;stroke-width:0.79701;stroke-linecap:butt;stroke-linejoin:miter;stroke:rgb(0%,0%,100%);stroke-opacity:1;stroke-miterlimit:10;" d="M 97.198812 -0.001 L 74.526937 9.069313 " transform="matrix(1,0,0,-1,218.184,40.499)"/>
<path style=" stroke:none;fill-rule:nonzero;fill:rgb(0%,0%,100%);fill-opacity:1;" d="M 288.382812 29.699219 C 289.570312 30.453125 291.363281 32.007812 292.46875 33.425781 L 293.914062 29.820312 C 292.132812 30.085938 289.761719 29.972656 288.382812 29.699219 "/>
<g clip-path="url(#clip2)" clip-rule="nonzero">
<path style="fill:none;stroke-width:0.79701;stroke-linecap:butt;stroke-linejoin:miter;stroke:rgb(0%,0%,100%);stroke-opacity:1;stroke-miterlimit:10;" d="M 97.198812 -0.001 L 93.273031 -11.778344 " transform="matrix(1,0,0,-1,218.184,40.499)"/>
</g>
<path style=" stroke:none;fill-rule:nonzero;fill:rgb(0%,0%,100%);fill-opacity:1;" d="M 309.980469 56.699219 C 310.664062 55.46875 312.109375 53.585938 313.460938 52.398438 L 309.777344 51.167969 C 310.144531 52.929688 310.171875 55.304688 309.980469 56.699219 "/>
<g clip-path="url(#clip3)" clip-rule="nonzero">
<path style="fill:none;stroke-width:0.79701;stroke-linecap:butt;stroke-linejoin:miter;stroke:rgb(0%,0%,100%);stroke-opacity:1;stroke-miterlimit:10;" d="M 97.198812 -0.001 L 119.624594 -4.485375 " transform="matrix(1,0,0,-1,218.184,40.499)"/>
</g>
<path style=" stroke:none;fill-rule:nonzero;fill:rgb(0%,0%,100%);fill-opacity:1;" d="M 342.378906 45.898438 C 341.078125 45.375 339.027344 44.171875 337.683594 42.976562 L 336.917969 46.789062 C 338.621094 46.203125 340.976562 45.882812 342.378906 45.898438 "/>
<path style=" stroke:none;fill-rule:nonzero;fill:rgb(0%,0%,100%);fill-opacity:0.5;" d="M 293.78125 62.097656 L 347.78125 51.296875 L 336.980469 18.898438 L 282.980469 29.699219 L 293.78125 62.097656 "/>
</g>
</svg>
