<?xml version="1.0" encoding="UTF-8"?>
<svg xmlns="http://www.w3.org/2000/svg" xmlns:xlink="http://www.w3.org/1999/xlink" width="294.8pt" height="149.75046pt" viewBox="0 0 294.8 149.75046" version="1.1">
<defs>
<clipPath id="clip1">
  <path d="M 23 29 L 92 29 L 92 149.75 L 23 149.75 Z M 23 29 "/>
</clipPath>
<clipPath id="clip2">
  <path d="M 112 18 L 294.800781 18 L 294.800781 149.75 L 112 149.75 Z M 112 18 "/>
</clipPath>
</defs>
<g id="surface1">
<path style="fill:none;stroke-width:0.3985;stroke-linecap:butt;stroke-linejoin:miter;stroke:rgb(0%,0%,0%);stroke-opacity:1;stroke-miterlimit:10;" d="M -56.294969 0.00148375 L 56.294875 0.00148375 " transform="matrix(1,0,0,-1,57.627,91.94289)"/>
<path style="fill:none;stroke-width:0.3985;stroke-linecap:round;stroke-linejoin:round;stroke:rgb(0%,0%,0%);stroke-opacity:1;stroke-miterlimit:10;" d="M -2.070475 2.389141 C -1.695475 0.955548 -0.851725 0.279766 -0.0001625 -0.00148375 C -0.851725 -0.278827 -1.695475 -0.954609 -2.070475 -2.392109 " transform="matrix(-1,0,0,1,1.13265,91.94289)"/>
<path style="fill:none;stroke-width:0.3985;stroke-linecap:round;stroke-linejoin:round;stroke:rgb(0%,0%,0%);stroke-opacity:1;stroke-miterlimit:10;" d="M -2.070569 2.392109 C -1.695569 0.954609 -0.851819 0.278827 -0.00025625 0.00148375 C -0.851819 -0.279766 -1.695569 -0.955548 -2.070569 -2.389141 " transform="matrix(1,0,0,-1,114.12135,91.94289)"/>
<path style="fill:none;stroke-width:0.3985;stroke-linecap:butt;stroke-linejoin:miter;stroke:rgb(0%,0%,0%);stroke-opacity:1;stroke-miterlimit:10;" d="M 0.00190625 -56.295391 L 0.00190625 56.294452 " transform="matrix(1,0,0,-1,57.627,91.94289)"/>
<path style="fill:none;stroke-width:0.3985;stroke-linecap:round;stroke-linejoin:round;stroke:rgb(0%,0%,0%);stroke-opacity:1;stroke-miterlimit:10;" d="M -2.073959 2.392531 C -1.695053 0.955031 -0.851303 0.27925 0.00026 0.00190625 C -0.851303 -0.279344 -1.695053 -0.955125 -2.073959 -2.392625 " transform="matrix(0,1,1,0,57.627,148.43724)"/>
<path style="fill:none;stroke-width:0.3985;stroke-linecap:round;stroke-linejoin:round;stroke:rgb(0%,0%,0%);stroke-opacity:1;stroke-miterlimit:10;" d="M -2.070991 2.392625 C -1.692085 0.955125 -0.848335 0.279344 -0.00067875 -0.00190625 C -0.848335 -0.27925 -1.692085 -0.955031 -2.070991 -2.392531 " transform="matrix(0,-1,-1,0,57.627,35.44854)"/>
<g clip-path="url(#clip1)" clip-rule="nonzero">
<path style="fill:none;stroke-width:0.3985;stroke-linecap:butt;stroke-linejoin:miter;stroke:rgb(50%,50%,100%);stroke-opacity:1;stroke-miterlimit:10;" d="M 28.345656 -56.693829 L -28.34575 56.69289 " transform="matrix(1,0,0,-1,57.627,91.94289)"/>
</g>
<path style="fill:none;stroke-width:0.79701;stroke-linecap:butt;stroke-linejoin:miter;stroke:rgb(0%,0%,100%);stroke-opacity:1;stroke-miterlimit:10;" d="M 0.00190625 0.00148375 L 13.818313 -27.635235 " transform="matrix(1,0,0,-1,57.627,91.94289)"/>
<path style="fill:none;stroke-width:0.79701;stroke-linecap:round;stroke-linejoin:round;stroke:rgb(0%,0%,100%);stroke-opacity:1;stroke-miterlimit:10;" d="M -2.549177 3.112034 C -2.084432 1.246208 -1.04493 0.363973 -0.000196207 -0.00113879 C -1.046664 -0.364541 -2.084388 -1.243319 -2.550813 -3.110908 " transform="matrix(0.44717,0.89438,0.89438,-0.44717,71.6222,119.93326)"/>
<path style="fill:none;stroke-width:0.3985;stroke-linecap:butt;stroke-linejoin:miter;stroke:rgb(0%,0%,0%);stroke-opacity:1;stroke-miterlimit:10;" d="M -0.00109375 0.0004525 L -58.571406 -33.815954 " transform="matrix(1,0,0,-1,205.88,86.27389)"/>
<path style="fill:none;stroke-width:0.3985;stroke-linecap:round;stroke-linejoin:round;stroke:rgb(0%,0%,0%);stroke-opacity:1;stroke-miterlimit:10;" d="M -2.071966 2.392529 C -1.692667 0.955676 -0.851137 0.280382 0.00183762 -0.0000721998 C -0.849749 -0.279737 -1.69196 -0.957239 -2.073844 -2.392164 " transform="matrix(-0.86601,0.49998,0.49998,0.86601,147.13444,120.19055)"/>
<path style="fill:none;stroke-width:0.3985;stroke-linecap:butt;stroke-linejoin:miter;stroke:rgb(0%,0%,0%);stroke-opacity:1;stroke-miterlimit:10;" d="M -0.00109375 0.0004525 L 84.643438 0.0004525 " transform="matrix(1,0,0,-1,205.88,86.27389)"/>
<path style="fill:none;stroke-width:0.3985;stroke-linecap:round;stroke-linejoin:round;stroke:rgb(0%,0%,0%);stroke-opacity:1;stroke-miterlimit:10;" d="M -2.072733 2.391077 C -1.693826 0.957484 -0.850076 0.277796 0.00148625 0.0004525 C -0.850076 -0.280798 -1.693826 -0.956579 -2.072733 -2.390173 " transform="matrix(1,0,0,-1,290.72117,86.27389)"/>
<path style="fill:none;stroke-width:0.3985;stroke-linecap:butt;stroke-linejoin:miter;stroke:rgb(0%,0%,0%);stroke-opacity:1;stroke-miterlimit:10;" d="M -0.00109375 0.0004525 L -0.00109375 84.641077 " transform="matrix(1,0,0,-1,205.88,86.27389)"/>
<path style="fill:none;stroke-width:0.3985;stroke-linecap:round;stroke-linejoin:round;stroke:rgb(0%,0%,0%);stroke-opacity:1;stroke-miterlimit:10;" d="M -2.071186 2.391719 C -1.69228 0.958125 -0.84853 0.278437 -0.00087375 0.00109375 C -0.84853 -0.280156 -1.69228 -0.955938 -2.071186 -2.389531 " transform="matrix(0,-1,-1,0,205.88,1.43272)"/>
<path style=" stroke:none;fill-rule:nonzero;fill:rgb(94.999695%,79.998779%,84.999084%);fill-opacity:0.5;" d="M 197.171875 46.589844 L 118.613281 148.636719 L 214.585938 125.960938 L 293.144531 23.910156 L 197.171875 46.589844 "/>
<g clip-path="url(#clip2)" clip-rule="nonzero">
<path style="fill:none;stroke-width:0.3985;stroke-linecap:butt;stroke-linejoin:miter;stroke:rgb(0%,0%,0%);stroke-opacity:1;stroke-miterlimit:10;" d="M -8.708125 39.684046 L -87.266719 -62.362829 L 8.705938 -39.687048 L 87.264531 62.363734 L -8.708125 39.684046 " transform="matrix(1,0,0,-1,205.88,86.27389)"/>
</g>
<path style="fill:none;stroke-width:0.79701;stroke-linecap:butt;stroke-linejoin:miter;stroke:rgb(0%,0%,100%);stroke-opacity:1;stroke-miterlimit:10;" d="M -0.00109375 0.0004525 L -23.215937 -5.487829 " transform="matrix(1,0,0,-1,205.88,86.27389)"/>
<path style="fill:none;stroke-width:0.79701;stroke-linecap:round;stroke-linejoin:round;stroke:rgb(0%,0%,100%);stroke-opacity:1;stroke-miterlimit:10;" d="M -2.551026 3.11147 C -2.085261 1.243259 -1.044822 0.363205 0.00124243 -0.000362919 C -1.047734 -0.362653 -2.083327 -1.24592 -2.551895 -3.11013 " transform="matrix(-0.97314,0.22993,0.22993,0.97314,182.27473,91.85163)"/>
<path style="fill:none;stroke-width:0.79701;stroke-linecap:butt;stroke-linejoin:miter;stroke:rgb(100%,0%,0%);stroke-opacity:1;stroke-miterlimit:10;" d="M -0.00109375 0.0004525 L 19.155156 24.879359 " transform="matrix(1,0,0,-1,205.88,86.27389)"/>
<path style="fill:none;stroke-width:0.79701;stroke-linecap:round;stroke-linejoin:round;stroke:rgb(100%,0%,0%);stroke-opacity:1;stroke-miterlimit:10;" d="M -2.55019 3.113313 C -2.082948 1.244702 -1.044412 0.363074 0.000139595 -0.00122241 C -1.047019 -0.363619 -2.083758 -1.245486 -2.549474 -3.112513 " transform="matrix(0.60995,-0.79237,-0.79237,-0.60995,225.27629,61.07749)"/>
</g>
</svg>
