<?xml version="1.0" encoding="UTF-8"?>
<svg xmlns="http://www.w3.org/2000/svg" xmlns:xlink="http://www.w3.org/1999/xlink" width="348.08pt" height="62.92308pt" viewBox="0 0 348.08 62.92308" version="1.1">
<defs>
<clipPath id="clip1">
  <path d="M 0 28 L 45 28 L 45 62.921875 L 0 62.921875 Z M 0 28 "/>
</clipPath>
<clipPath id="clip2">
  <path d="M 299 29 L 327 29 L 327 62.921875 L 299 62.921875 Z M 299 29 "/>
</clipPath>
<clipPath id="clip3">
  <path d="M 303 29 L 348.078125 29 L 348.078125 57 L 303 57 Z M 303 29 "/>
</clipPath>
<clipPath id="clip4">
  <path d="M 282 18 L 348 18 L 348 62.921875 L 282 62.921875 Z M 282 18 "/>
</clipPath>
</defs>
<g id="surface1">
<path style="fill:none;stroke-width:0.3985;stroke-linecap:butt;stroke-linejoin:miter;stroke:rgb(0%,0%,0%);stroke-opacity:1;stroke-miterlimit:10;" d="M -0.00121875 0.00033125 L 32.397219 0.00033125 " transform="matrix(1,0,0,-1,33.052,40.13705)"/>
<path style="fill:none;stroke-width:0.3985;stroke-linecap:butt;stroke-linejoin:miter;stroke:rgb(0%,0%,0%);stroke-opacity:1;stroke-miterlimit:10;" d="M -0.00121875 0.00033125 L -0.00121875 32.398769 " transform="matrix(1,0,0,-1,33.052,40.13705)"/>
<path style="fill:none;stroke-width:0.3985;stroke-linecap:butt;stroke-linejoin:miter;stroke:rgb(0%,0%,0%);stroke-opacity:1;stroke-miterlimit:10;" d="M -0.00121875 0.00033125 L -21.598875 -10.80045 " transform="matrix(1,0,0,-1,33.052,40.13705)"/>
<path style="fill:none;stroke-width:0.79701;stroke-linecap:butt;stroke-linejoin:miter;stroke:rgb(0%,0%,100%);stroke-opacity:1;stroke-miterlimit:10;" d="M -0.00121875 0.00033125 L 17.428469 8.715175 " transform="matrix(1,0,0,-1,33.052,40.13705)"/>
<path style=" stroke:none;fill-rule:nonzero;fill:rgb(0%,0%,100%);fill-opacity:1;" d="M 54.652344 29.335938 C 53.300781 29.722656 50.945312 30.03125 49.148438 29.917969 L 50.886719 33.390625 C 51.871094 31.886719 53.53125 30.1875 54.652344 29.335938 "/>
<path style="fill:none;stroke-width:0.79701;stroke-linecap:butt;stroke-linejoin:miter;stroke:rgb(0%,0%,100%);stroke-opacity:1;stroke-miterlimit:10;" d="M -0.00121875 0.00033125 L 8.713625 17.430019 " transform="matrix(1,0,0,-1,33.052,40.13705)"/>
<path style=" stroke:none;fill-rule:nonzero;fill:rgb(0%,0%,100%);fill-opacity:1;" d="M 43.851562 18.539062 C 43.003906 19.65625 41.304688 21.316406 39.796875 22.300781 L 43.273438 24.039062 C 43.15625 22.246094 43.464844 19.890625 43.851562 18.539062 "/>
<path style="fill:none;stroke-width:0.79701;stroke-linecap:butt;stroke-linejoin:miter;stroke:rgb(0%,0%,100%);stroke-opacity:1;stroke-miterlimit:10;" d="M -0.00121875 0.00033125 L -0.00121875 16.937831 " transform="matrix(1,0,0,-1,33.052,40.13705)"/>
<path style=" stroke:none;fill-rule:nonzero;fill:rgb(0%,0%,100%);fill-opacity:1;" d="M 33.050781 18.539062 C 32.792969 19.917969 32.015625 22.164062 31.109375 23.71875 L 34.996094 23.71875 C 34.089844 22.164062 33.3125 19.917969 33.050781 18.539062 "/>
<path style="fill:none;stroke-width:0.79701;stroke-linecap:butt;stroke-linejoin:miter;stroke:rgb(0%,0%,100%);stroke-opacity:1;stroke-miterlimit:10;" d="M -0.00121875 0.00033125 L 7.502688 -7.503575 " transform="matrix(1,0,0,-1,33.052,40.13705)"/>
<path style=" stroke:none;fill-rule:nonzero;fill:rgb(0%,0%,100%);fill-opacity:1;" d="M 43.851562 50.9375 C 43.058594 49.777344 42.019531 47.640625 41.5625 45.898438 L 38.816406 48.648438 C 40.554688 49.105469 42.691406 50.144531 43.851562 50.9375 "/>
<path style="fill:none;stroke-width:0.79701;stroke-linecap:butt;stroke-linejoin:miter;stroke:rgb(0%,0%,100%);stroke-opacity:1;stroke-miterlimit:10;" d="M -0.00121875 0.00033125 L -19.012937 28.519862 " transform="matrix(1,0,0,-1,33.052,40.13705)"/>
<path style=" stroke:none;fill-rule:nonzero;fill:rgb(0%,0%,100%);fill-opacity:1;" d="M 11.453125 7.738281 C 12.003906 9.03125 12.601562 11.328125 12.710938 13.125 L 15.941406 10.96875 C 14.324219 10.179688 12.433594 8.742188 11.453125 7.738281 "/>
<g clip-path="url(#clip1)" clip-rule="nonzero">
<path style="fill:none;stroke-width:0.79701;stroke-linecap:butt;stroke-linejoin:miter;stroke:rgb(0%,0%,100%);stroke-opacity:1;stroke-miterlimit:10;" d="M -0.00121875 0.00033125 L -28.52075 -19.011388 " transform="matrix(1,0,0,-1,33.052,40.13705)"/>
</g>
<path style=" stroke:none;fill-rule:nonzero;fill:rgb(0%,0%,100%);fill-opacity:1;" d="M 0.652344 61.738281 C 1.945312 61.1875 4.246094 60.585938 6.039062 60.480469 L 3.886719 57.246094 C 3.09375 58.863281 1.660156 60.753906 0.652344 61.738281 "/>
<path style="fill:none;stroke-width:0.3985;stroke-linecap:butt;stroke-linejoin:miter;stroke:rgb(0%,0%,0%);stroke-opacity:1;stroke-dasharray:2.98883,2.98883;stroke-miterlimit:10;" d="M 32.397219 32.398769 C 46.987063 40.820644 61.0105 40.820644 72.490969 34.191737 " transform="matrix(1,0,0,-1,33.052,40.13705)"/>
<path style=" stroke:none;fill-rule:nonzero;fill:rgb(0%,0%,0%);fill-opacity:1;" d="M 108.648438 7.738281 C 107.828125 7.035156 106.632812 5.652344 105.945312 4.453125 L 104.453125 7.039062 C 105.835938 7.035156 107.628906 7.378906 108.648438 7.738281 "/>
<path style="fill:none;stroke-width:0.3985;stroke-linecap:butt;stroke-linejoin:miter;stroke:rgb(0%,0%,0%);stroke-opacity:1;stroke-miterlimit:10;" d="M 75.596438 10.801112 L 118.795656 10.801112 " transform="matrix(1,0,0,-1,33.052,40.13705)"/>
<path style="fill:none;stroke-width:0.3985;stroke-linecap:butt;stroke-linejoin:miter;stroke:rgb(0%,0%,0%);stroke-opacity:1;stroke-miterlimit:10;" d="M 97.198 -10.80045 L 97.198 32.398769 " transform="matrix(1,0,0,-1,33.052,40.13705)"/>
<path style="fill:none;stroke-width:0.79701;stroke-linecap:butt;stroke-linejoin:miter;stroke:rgb(0%,0%,100%);stroke-opacity:1;stroke-miterlimit:10;" d="M 97.198 10.801112 L 101.467531 27.875331 " transform="matrix(1,0,0,-1,33.052,40.13705)"/>
<path style=" stroke:none;fill-rule:nonzero;fill:rgb(0%,0%,100%);fill-opacity:1;" d="M 135.648438 7.738281 C 135.0625 9.015625 133.765625 11.003906 132.507812 12.292969 L 136.277344 13.234375 C 135.773438 11.507812 135.566406 9.140625 135.648438 7.738281 "/>
<path style="fill:none;stroke-width:0.79701;stroke-linecap:butt;stroke-linejoin:miter;stroke:rgb(0%,0%,100%);stroke-opacity:1;stroke-miterlimit:10;" d="M 97.198 10.801112 L 114.627688 19.515956 " transform="matrix(1,0,0,-1,33.052,40.13705)"/>
<path style=" stroke:none;fill-rule:nonzero;fill:rgb(0%,0%,100%);fill-opacity:1;" d="M 151.847656 18.539062 C 150.496094 18.921875 148.140625 19.234375 146.347656 19.117188 L 148.085938 22.589844 C 149.070312 21.085938 150.730469 19.386719 151.847656 18.539062 "/>
<path style="fill:none;stroke-width:0.79701;stroke-linecap:butt;stroke-linejoin:miter;stroke:rgb(0%,0%,100%);stroke-opacity:1;stroke-miterlimit:10;" d="M 97.198 10.801112 L 84.877688 19.01205 " transform="matrix(1,0,0,-1,33.052,40.13705)"/>
<path style=" stroke:none;fill-rule:nonzero;fill:rgb(0%,0%,100%);fill-opacity:1;" d="M 114.050781 18.539062 C 115.054688 19.519531 116.492188 21.410156 117.28125 23.027344 L 119.4375 19.792969 C 117.640625 19.6875 115.34375 19.089844 114.050781 18.539062 "/>
<path style="fill:none;stroke-width:0.79701;stroke-linecap:butt;stroke-linejoin:miter;stroke:rgb(0%,0%,100%);stroke-opacity:1;stroke-miterlimit:10;" d="M 97.198 10.801112 L 97.198 -0.73795 " transform="matrix(1,0,0,-1,33.052,40.13705)"/>
<path style=" stroke:none;fill-rule:nonzero;fill:rgb(0%,0%,100%);fill-opacity:1;" d="M 130.25 45.535156 C 130.507812 44.15625 131.285156 41.910156 132.191406 40.355469 L 128.304688 40.355469 C 129.214844 41.910156 129.992188 44.15625 130.25 45.535156 "/>
<path style="fill:none;stroke-width:0.79701;stroke-linecap:butt;stroke-linejoin:miter;stroke:rgb(0%,0%,100%);stroke-opacity:1;stroke-miterlimit:10;" d="M 97.198 10.801112 L 115.498781 -7.503575 " transform="matrix(1,0,0,-1,33.052,40.13705)"/>
<path style=" stroke:none;fill-rule:nonzero;fill:rgb(0%,0%,100%);fill-opacity:1;" d="M 151.847656 50.9375 C 151.054688 49.777344 150.015625 47.640625 149.558594 45.898438 L 146.8125 48.648438 C 148.550781 49.105469 150.6875 50.144531 151.847656 50.9375 "/>
<path style=" stroke:none;fill-rule:nonzero;fill:rgb(0%,0%,100%);fill-opacity:0.5;" d="M 108.648438 50.9375 L 108.648438 7.738281 L 151.847656 7.738281 L 151.847656 50.9375 Z M 108.648438 50.9375 "/>
<path style="fill:none;stroke-width:0.3985;stroke-linecap:butt;stroke-linejoin:miter;stroke:rgb(0%,0%,0%);stroke-opacity:1;stroke-miterlimit:10;" d="M -21.598531 10.800675 L 21.600687 10.800675 " transform="matrix(1,0,0,-1,217.704,40.53505)"/>
<path style="fill:none;stroke-width:0.3985;stroke-linecap:butt;stroke-linejoin:miter;stroke:rgb(0%,0%,0%);stroke-opacity:1;stroke-miterlimit:10;" d="M -0.000875 -10.800888 L -0.000875 32.398331 " transform="matrix(1,0,0,-1,217.704,40.53505)"/>
<path style="fill:none;stroke-width:0.79701;stroke-linecap:butt;stroke-linejoin:miter;stroke:rgb(0%,0%,100%);stroke-opacity:1;stroke-miterlimit:10;" d="M -0.000875 10.800675 L 4.268656 27.874894 " transform="matrix(1,0,0,-1,217.704,40.53505)"/>
<path style=" stroke:none;fill-rule:nonzero;fill:rgb(0%,0%,100%);fill-opacity:1;" d="M 223.105469 8.136719 C 222.515625 9.414062 221.21875 11.402344 219.960938 12.691406 L 223.730469 13.632812 C 223.230469 11.90625 223.019531 9.539062 223.105469 8.136719 "/>
<path style="fill:none;stroke-width:0.79701;stroke-linecap:butt;stroke-linejoin:miter;stroke:rgb(0%,0%,100%);stroke-opacity:1;stroke-miterlimit:10;" d="M -0.000875 10.800675 L 17.428812 19.515519 " transform="matrix(1,0,0,-1,217.704,40.53505)"/>
<path style=" stroke:none;fill-rule:nonzero;fill:rgb(0%,0%,100%);fill-opacity:1;" d="M 239.304688 18.9375 C 237.953125 19.320312 235.597656 19.628906 233.800781 19.515625 L 235.539062 22.988281 C 236.523438 21.484375 238.183594 19.785156 239.304688 18.9375 "/>
<path style="fill:none;stroke-width:0.79701;stroke-linecap:butt;stroke-linejoin:miter;stroke:rgb(0%,0%,100%);stroke-opacity:1;stroke-miterlimit:10;" d="M -0.000875 10.800675 L -12.321188 19.011612 " transform="matrix(1,0,0,-1,217.704,40.53505)"/>
<path style=" stroke:none;fill-rule:nonzero;fill:rgb(0%,0%,100%);fill-opacity:1;" d="M 201.503906 18.9375 C 202.511719 19.917969 203.945312 21.808594 204.738281 23.425781 L 206.890625 20.191406 C 205.097656 20.085938 202.796875 19.488281 201.503906 18.9375 "/>
<path style="fill:none;stroke-width:0.79701;stroke-linecap:butt;stroke-linejoin:miter;stroke:rgb(0%,0%,100%);stroke-opacity:1;stroke-miterlimit:10;" d="M -0.000875 10.800675 L -0.000875 -0.738388 " transform="matrix(1,0,0,-1,217.704,40.53505)"/>
<path style=" stroke:none;fill-rule:nonzero;fill:rgb(0%,0%,100%);fill-opacity:1;" d="M 217.703125 45.933594 C 217.964844 44.554688 218.738281 42.308594 219.648438 40.753906 L 215.761719 40.753906 C 216.667969 42.308594 217.445312 44.554688 217.703125 45.933594 "/>
<path style="fill:none;stroke-width:0.79701;stroke-linecap:butt;stroke-linejoin:miter;stroke:rgb(0%,0%,100%);stroke-opacity:1;stroke-miterlimit:10;" d="M -0.000875 10.800675 L 18.303812 -7.504013 " transform="matrix(1,0,0,-1,217.704,40.53505)"/>
<path style=" stroke:none;fill-rule:nonzero;fill:rgb(0%,0%,100%);fill-opacity:1;" d="M 239.304688 51.335938 C 238.507812 50.175781 237.472656 48.039062 237.015625 46.296875 L 234.265625 49.046875 C 236.007812 49.503906 238.144531 50.539062 239.304688 51.335938 "/>
<path style="fill:none;stroke-width:0.3985;stroke-linecap:butt;stroke-linejoin:miter;stroke:rgb(0%,0%,0%);stroke-opacity:1;stroke-dasharray:2.98883,2.98883;stroke-miterlimit:10;" d="M 32.397562 32.398331 C 46.987406 40.824112 61.006937 40.824112 72.491312 34.1913 " transform="matrix(1,0,0,-1,217.704,40.53505)"/>
<path style=" stroke:none;fill-rule:nonzero;fill:rgb(0%,0%,0%);fill-opacity:1;" d="M 293.300781 8.136719 C 292.480469 7.433594 291.285156 6.050781 290.597656 4.847656 L 289.105469 7.4375 C 290.488281 7.429688 292.28125 7.777344 293.300781 8.136719 "/>
<path style="fill:none;stroke-width:0.3985;stroke-linecap:butt;stroke-linejoin:miter;stroke:rgb(0%,0%,0%);stroke-opacity:1;stroke-miterlimit:10;" d="M 97.198344 -0.00010625 L 129.596781 -0.00010625 " transform="matrix(1,0,0,-1,217.704,40.53505)"/>
<path style="fill:none;stroke-width:0.3985;stroke-linecap:butt;stroke-linejoin:miter;stroke:rgb(0%,0%,0%);stroke-opacity:1;stroke-miterlimit:10;" d="M 97.198344 -0.00010625 L 97.198344 32.398331 " transform="matrix(1,0,0,-1,217.704,40.53505)"/>
<path style="fill:none;stroke-width:0.3985;stroke-linecap:butt;stroke-linejoin:miter;stroke:rgb(0%,0%,0%);stroke-opacity:1;stroke-miterlimit:10;" d="M 97.198344 -0.00010625 L 75.596781 -10.800888 " transform="matrix(1,0,0,-1,217.704,40.53505)"/>
<path style="fill:none;stroke-width:0.79701;stroke-linecap:butt;stroke-linejoin:miter;stroke:rgb(0%,0%,100%);stroke-opacity:1;stroke-miterlimit:10;" d="M 97.198344 -0.00010625 L 101.124125 11.777237 " transform="matrix(1,0,0,-1,217.704,40.53505)"/>
<path style=" stroke:none;fill-rule:nonzero;fill:rgb(0%,0%,100%);fill-opacity:1;" d="M 320.300781 24.335938 C 319.617188 25.5625 318.171875 27.449219 316.820312 28.636719 L 320.507812 29.863281 C 320.136719 28.101562 320.109375 25.726562 320.300781 24.335938 "/>
<path style="fill:none;stroke-width:0.79701;stroke-linecap:butt;stroke-linejoin:miter;stroke:rgb(0%,0%,100%);stroke-opacity:1;stroke-miterlimit:10;" d="M 97.198344 -0.00010625 L 114.628031 8.714737 " transform="matrix(1,0,0,-1,217.704,40.53505)"/>
<path style=" stroke:none;fill-rule:nonzero;fill:rgb(0%,0%,100%);fill-opacity:1;" d="M 336.5 29.734375 C 335.148438 30.121094 332.792969 30.429688 331 30.316406 L 332.734375 33.789062 C 333.71875 32.285156 335.382812 30.585938 336.5 29.734375 "/>
<path style="fill:none;stroke-width:0.79701;stroke-linecap:butt;stroke-linejoin:miter;stroke:rgb(0%,0%,100%);stroke-opacity:1;stroke-miterlimit:10;" d="M 97.198344 -0.00010625 L 74.526469 9.0663 " transform="matrix(1,0,0,-1,217.704,40.53505)"/>
<path style=" stroke:none;fill-rule:nonzero;fill:rgb(0%,0%,100%);fill-opacity:1;" d="M 287.902344 29.734375 C 289.089844 30.488281 290.882812 32.042969 291.992188 33.464844 L 293.433594 29.855469 C 291.652344 30.121094 289.28125 30.007812 287.902344 29.734375 "/>
<g clip-path="url(#clip2)" clip-rule="nonzero">
<path style="fill:none;stroke-width:0.79701;stroke-linecap:butt;stroke-linejoin:miter;stroke:rgb(0%,0%,100%);stroke-opacity:1;stroke-miterlimit:10;" d="M 97.198344 -0.00010625 L 93.272562 -11.77745 " transform="matrix(1,0,0,-1,217.704,40.53505)"/>
</g>
<path style=" stroke:none;fill-rule:nonzero;fill:rgb(0%,0%,100%);fill-opacity:1;" d="M 309.5 56.734375 C 310.183594 55.507812 311.632812 53.621094 312.984375 52.433594 L 309.296875 51.207031 C 309.664062 52.96875 309.691406 55.34375 309.5 56.734375 "/>
<g clip-path="url(#clip3)" clip-rule="nonzero">
<path style="fill:none;stroke-width:0.79701;stroke-linecap:butt;stroke-linejoin:miter;stroke:rgb(0%,0%,100%);stroke-opacity:1;stroke-miterlimit:10;" d="M 97.198344 -0.00010625 L 119.624125 -4.484481 " transform="matrix(1,0,0,-1,217.704,40.53505)"/>
</g>
<path style=" stroke:none;fill-rule:nonzero;fill:rgb(0%,0%,100%);fill-opacity:1;" d="M 341.902344 45.933594 C 340.597656 45.410156 338.546875 44.207031 337.203125 43.015625 L 336.441406 46.824219 C 338.140625 46.238281 340.496094 45.917969 341.902344 45.933594 "/>
<g clip-path="url(#clip4)" clip-rule="nonzero">
<path style=" stroke:none;fill-rule:nonzero;fill:rgb(0%,0%,100%);fill-opacity:0.5;" d="M 293.300781 62.132812 L 347.300781 51.335938 L 336.5 18.9375 L 282.503906 29.734375 L 293.300781 62.132812 "/>
</g>
</g>
</svg>
